<svg width="18" height="22" viewBox="0 0 18 22" fill="none" xmlns="http://www.w3.org/2000/svg">
<path d="M17.0246 7.66282C16.9312 7.72131 14.7069 8.95576 14.7069 11.6928C14.8117 14.8142 17.5138 15.9089 17.5602 15.9089C17.5138 15.9674 17.1522 17.4001 16.0811 18.902C15.231 20.1957 14.2876 21.5 12.8548 21.5C11.492 21.5 11.0028 20.6378 9.43029 20.6378C7.74157 20.6378 7.26375 21.5 5.97081 21.5C4.53809 21.5 3.52471 20.1258 2.62831 18.8442C1.46375 17.1669 0.47392 14.5347 0.438975 12.0073C0.415426 10.668 0.67219 9.35154 1.32398 8.23332C2.24392 6.67223 3.88631 5.6125 5.67986 5.57756C7.05408 5.53122 8.27713 6.52105 9.1158 6.52105C9.91951 6.52105 11.4221 5.57756 13.1222 5.57756C13.8561 5.57832 15.8129 5.79938 17.0246 7.66282ZM8.99957 5.31016C8.75496 4.08711 9.43029 2.86406 10.0593 2.08389C10.863 1.14039 12.1324 0.5 13.2271 0.5C13.297 1.72305 12.8541 2.92255 12.0625 3.79616C11.3522 4.73965 10.1292 5.44993 8.99957 5.31016Z" fill="#404145"/>
</svg>
