<svg width="18" height="18" viewBox="0 0 18 18" fill="none" xmlns="http://www.w3.org/2000/svg">
<path d="M10.3468 1.20563L9.45497 0.290588C9.07734 -0.0968628 8.46669 -0.0968628 8.09307 0.290588L0.283226 8.29929C-0.0944099 8.68674 -0.0944099 9.31326 0.283226 9.69659L8.09307 17.7094C8.47071 18.0969 9.08135 18.0969 9.45497 17.7094L10.3468 16.7944C10.7285 16.4028 10.7205 15.7639 10.3308 15.3806L5.48979 10.6487H17.0358C17.5701 10.6487 18 10.2077 18 9.65949V8.34051C18 7.79231 17.5701 7.35127 17.0358 7.35127H5.48979L10.3308 2.61942C10.7245 2.23609 10.7325 1.59721 10.3468 1.20563Z" fill="white"/>
</svg>
