<svg width="451" height="304" viewBox="0 0 451 304" fill="none" xmlns="http://www.w3.org/2000/svg">
<path d="M336.295 269.148C373.275 271.757 419.503 257.094 439.896 224.942C448.34 211.629 453.948 194.542 448.07 179.814C443.618 168.661 424.784 156.051 420.719 144.739C416.597 133.268 417.181 120.347 419.297 108.288C425.379 73.6306 391.565 19.529 320.161 13.7561C266.017 9.37871 241.526 51.4632 195.447 57.2072C148.946 63.0035 94.4204 28.2244 61.1587 57.2072C19.8505 93.2016 39.2354 129.231 44.2629 146.089C50.7214 167.744 19.153 192.461 25.6632 224.343C40.2198 295.631 146.017 247.558 177.025 244.547C208.518 241.491 239.771 250.454 270.633 257.65C301.494 264.846 334.182 270.259 364.348 260.382L336.295 269.148Z" fill="#F3FAFF"/>
<path d="M222.843 303.223C345.639 303.223 445.185 298.48 445.185 292.628C445.185 286.777 345.639 282.033 222.843 282.033C100.046 282.033 0.5 286.777 0.5 292.628C0.5 298.48 100.046 303.223 222.843 303.223Z" fill="#E9ECF2"/>
<path d="M29.3296 111.135L28.658 111.21C27.159 97.999 31.2039 85.1627 41.3889 70.813L41.9401 71.204C31.8573 85.41 27.8502 98.0986 29.3296 111.135Z" fill="#2E4882"/>
<path d="M25.0603 119.982L24.4151 120.184C16.6846 95.5572 29.9459 75.613 43.9381 59.3511L44.4508 59.7919C30.5797 75.9131 17.4288 95.6707 25.0603 119.982Z" fill="#2E4882"/>
<path d="M351.308 15.1024C335.796 7.17265 322.664 5.03791 309.977 8.37971L309.805 7.72636C322.661 4.33789 335.947 6.49029 351.615 14.5001L351.308 15.1024Z" fill="#2E4882"/>
<path d="M362.91 15.9557C344.959 4.55357 323.512 -5.6131 300.555 5.44405L300.262 4.83485C323.517 -6.3642 345.164 3.88319 363.274 15.3856L362.91 15.9557Z" fill="#2E4882"/>
<path d="M165.839 83.5055L164.855 83.4784C164.869 82.9783 164.893 82.4801 164.928 81.9844L165.909 82.0531C165.876 82.5349 165.852 83.0199 165.839 83.5055Z" fill="#3F5A9F"/>
<path d="M232.877 75.2792C232.611 74.3238 232.3 73.369 231.952 72.4406L232.873 72.095C233.231 73.0498 233.551 74.0324 233.824 75.0156L232.877 75.2792ZM166.245 79.0858L165.273 78.9313C165.434 77.9248 165.642 76.9119 165.89 75.9212L166.844 76.1608C166.602 77.1232 166.4 78.1076 166.245 79.0858ZM230.781 69.6942C230.353 68.8005 229.878 67.9151 229.373 67.0625L230.219 66.5611C230.739 67.439 231.227 68.3496 231.667 69.2691L230.781 69.6942ZM167.698 73.2983L166.769 72.9761C167.104 72.0131 167.485 71.0526 167.903 70.1205L168.801 70.5228C168.394 71.4291 168.023 72.3624 167.698 73.2983ZM227.74 64.5645C227.163 63.761 226.541 62.9715 225.893 62.2185L226.639 61.5771C227.305 62.3515 227.945 63.1638 228.539 63.9912L227.74 64.5645ZM170.141 67.8533L169.282 67.374C169.779 66.4829 170.322 65.6025 170.895 64.7594L171.709 65.3112C171.152 66.1316 170.624 66.9874 170.141 67.8533ZM223.848 60.0415C223.138 59.3484 222.389 58.6793 221.621 58.0512L222.244 57.2906C223.033 57.9364 223.804 58.625 224.534 59.3377L223.848 60.0415ZM173.49 62.9147L172.727 62.2941C173.371 61.5033 174.057 60.7308 174.767 59.998L175.474 60.6822C174.783 61.3948 174.116 62.146 173.49 62.9147ZM219.231 56.262C218.411 55.702 217.558 55.1722 216.694 54.6867L217.176 53.8296C218.064 54.3291 218.942 54.8739 219.786 55.4497L219.231 56.262ZM177.643 58.6313L176.999 57.8878C177.772 57.2187 178.581 56.5773 179.407 55.9807L179.983 56.7772C179.182 57.3574 178.394 57.9811 177.643 58.6313ZM214.028 53.3383C213.124 52.9297 212.192 52.5557 211.256 52.2278L211.582 51.3001C212.544 51.6375 213.503 52.0222 214.434 52.4428L214.028 53.3383ZM182.476 55.1357L181.972 54.2912C182.848 53.7678 183.758 53.2778 184.676 52.8344L185.104 53.7199C184.212 54.1506 183.328 54.6274 182.476 55.1357ZM208.398 51.3644C207.436 51.1197 206.452 50.9147 205.474 50.7558L205.632 49.7853C206.638 49.9492 207.65 50.1599 208.64 50.4115L208.398 51.3644ZM187.846 52.5393L187.498 51.6198C188.452 51.2584 189.434 50.9349 190.416 50.6587L190.683 51.6053C189.727 51.874 188.773 52.1887 187.846 52.5393ZM202.509 50.4058C201.52 50.3339 200.516 50.3043 199.525 50.3188L199.511 49.3356C200.53 49.3211 201.563 49.3507 202.581 49.4252L202.509 50.4058ZM193.589 50.9223L193.406 49.9562C194.409 49.7663 195.434 49.6175 196.445 49.5141L196.545 50.4922C195.562 50.5925 194.564 50.7375 193.589 50.9223Z" fill="#3F5A9F"/>
<path d="M234.768 79.5231L233.794 79.6618C233.725 79.1794 233.647 78.7013 233.559 78.2265L234.525 78.0474C234.616 78.5355 234.697 79.0274 234.768 79.5231Z" fill="#3F5A9F"/>
<path d="M168.838 83.8223L165.268 85.5269L161.562 84.1407L165.578 92.6053L168.838 83.8223Z" fill="#3F5A9F"/>
<path d="M135.328 132.473C135.181 130.234 136.095 127.603 136.692 127.863C137.29 128.124 136.733 130.217 137.15 130.847C137.698 131.674 138.17 132.449 137.764 134.401L135.328 132.473Z" fill="#FCB47E"/>
<path d="M115.16 288.748L113.375 274.322H123.952L124.416 288.748H115.16Z" fill="#FCB47E"/>
<path d="M124.196 282.515C120.2 283.56 114.264 281.658 114.264 281.658L113.844 278.233L124.085 279.095L124.196 282.515Z" fill="#FCA377"/>
<path d="M64.707 288.748L65.6833 274.322H76.2605L73.9624 288.748H64.707Z" fill="#FCB47E"/>
<path d="M75.7589 277.404L75.0356 281.956C70.1525 282.243 66.6833 280.437 65.3242 279.569L65.6225 275.139L75.7589 277.404Z" fill="#FCA377"/>
<path d="M137.637 279.705C137.637 279.705 130.573 190.993 111.498 147.866L93.7656 148.755C93.7656 148.755 95.2792 211.216 108.583 279.705C108.583 279.705 125.225 283.654 137.637 279.705Z" fill="#3F5A9F"/>
<path d="M87.4015 279.704C87.4015 279.704 69.9509 282.525 59.9961 275.755C59.9961 275.755 65.2967 179.568 81.5296 148.03H100.615C100.615 148.03 99.9918 199.877 87.4015 279.704Z" fill="#3F5A9F"/>
<path d="M81.9535 102.367C82.4233 100.688 83.3069 98.5448 83.3069 98.5448C82.9978 100.152 82.9922 101.931 83.0249 102.892C87.1677 104.793 95.8239 107.267 109.264 103.98C109.092 102.599 109.015 101.29 109.015 101.29C109.253 102.169 109.595 103.052 109.927 103.814C110.407 103.693 110.888 103.566 111.38 103.428C110.977 101.721 110.805 98.7548 110.805 98.7548C111.275 100.539 112.202 102.356 112.595 103.08C113.412 102.831 114.246 102.566 115.097 102.279C115.097 102.279 112.418 98.191 110.661 87.552C109.214 78.8074 104.729 74.6761 97.912 74.8583C83.8921 75.2342 80.1523 101.252 80.1523 101.252C80.1523 101.252 80.7496 101.726 81.9535 102.367Z" fill="#374263"/>
<path d="M130.405 133.221C130.405 133.221 124.787 107.93 102.448 106.622C68.0639 104.609 57.4961 126.974 57.4961 126.974L130.405 133.221Z" fill="white"/>
<path d="M94.8091 81.2717C98.605 79.1029 105.269 79.0095 106.793 84.1455C108.2 88.8849 107.975 103.179 101.631 102.908C94.9989 102.625 92.9065 97.5834 92.3149 94.5027C92.1024 93.3959 91.0133 83.4405 94.8091 81.2717Z" fill="#FCB47E"/>
<path d="M92.4886 94.2504C92.4886 94.2504 89.5252 95.1624 88.9721 92.4985C88.4733 90.0951 91.3263 89.1586 92.2452 90.2112L92.4886 94.2504Z" fill="#FCB47E"/>
<path d="M133.537 163.685C137.787 155.362 141.108 135.921 141.108 135.921C141.601 135.156 143.664 131.846 143.794 129.325C143.849 128.205 143.283 127.539 142.524 127.906C142.252 126.995 141.711 126.829 140.981 127.362C140.574 126.566 140.076 126.597 139.58 126.986C138.493 125.166 136.329 130.931 136.34 131.652C136.347 132.136 136.494 133.91 136.567 134.433C136.664 135.124 123.82 157.014 123.82 157.014L133.537 163.685Z" fill="#FCB47E"/>
<path d="M63.4451 277.312L62.875 277.274C62.9381 276.313 69.3997 180.73 85.8079 149.673L86.313 149.94C69.961 180.889 63.5082 276.351 63.4451 277.312Z" fill="white"/>
<path d="M77.3731 132.627L71.3555 167.04C87.0586 171.758 104.78 167.52 119.271 157.904L113.27 123.966L102.101 106.959C102.101 106.959 96.6558 113.173 90.6539 106.818L75.0221 113.374L77.3731 132.627Z" fill="white"/>
<path d="M134.546 140.088L131.376 132.225C131.376 132.225 123.44 116.094 116.91 111.922L112.73 140.148L134.546 140.088Z" fill="white"/>
<path d="M97.4559 202.379L96.8984 202.326C97.8015 192.687 98.5526 183.26 99.1316 174.309L99.6903 174.345C99.1114 183.302 98.3597 192.734 97.4559 202.379Z" fill="#47393D"/>
<path d="M112.818 279.904C112.7 279.336 100.93 222.865 97.582 194.411L98.1496 194.344C101.494 222.774 113.259 279.22 113.377 279.787L112.818 279.904Z" fill="white"/>
<path d="M113.556 123.927L113.012 124.023L119.002 157.964L119.546 157.868L113.556 123.927Z" fill="#3F5A9F"/>
<path d="M90.0664 89.6787C90.0664 89.6787 91.1272 89.0657 92.1822 90.187C92.1822 90.187 92.4629 87.945 93.2196 86.5305L93.6958 89.0323C94.4633 89.154 96.9089 89.5544 99.5898 89.6068C100.345 89.6213 102.469 89.6068 102.469 89.6068L102.954 85.4249L103.859 89.5235C104.484 89.4737 104.969 89.4075 105.466 89.3413L105.82 86.883L106.505 89.1975C107.173 89.0871 107.638 88.9818 107.864 88.9326C108.002 87.1763 108.058 82.4363 104.925 79.6911C101.329 76.5423 93.7229 78.2715 91.9602 82.044C90.1988 85.8172 90.0664 89.6787 90.0664 89.6787Z" fill="#374263"/>
<path d="M97.1597 109.708C100.309 109.708 102.18 106.958 102.18 106.958L101.391 97.8496L92.7288 92.7017L90.543 106.817C90.543 106.817 93.2541 109.708 97.1597 109.708Z" fill="#FCB47E"/>
<path d="M101.333 103.418L101.357 102.866C97.4148 102.698 94.8909 99.6838 93.4682 97.1846L92.9883 97.4583C94.4798 100.078 97.1379 103.239 101.333 103.418Z" fill="#374263"/>
<path d="M112.723 295.537L139.456 295.635C140.387 295.638 141.135 294.853 141.068 293.925C141.067 293.913 141.066 293.902 141.065 293.891C141.048 293.686 141.024 293.476 140.993 293.266C140.903 292.554 140.714 291.842 140.382 291.396C139.12 289.709 136.661 288.933 132.283 287.179C129.536 286.075 127.204 284.613 126.179 283.929C125.846 283.705 125.413 283.759 125.121 284.036C119.815 289.187 116.572 288.074 115.609 285.937C114.873 284.308 113.821 284.644 113.528 285.119C112.632 286.606 112.127 290.97 111.921 293.159C111.895 293.393 111.876 293.61 111.863 293.783C111.831 294.191 111.811 294.438 111.811 294.438C111.71 295.008 112.148 295.535 112.723 295.537Z" fill="#374263"/>
<path d="M130.767 289.977C132.668 289.064 132.393 287.102 132.391 287.082L131.932 287.15C131.942 287.217 132.153 288.796 130.566 289.559L130.767 289.977Z" fill="white"/>
<path d="M133.113 290.776C134.863 289.796 134.683 288.093 134.675 288.021L134.214 288.074C134.221 288.134 134.359 289.547 132.887 290.371L133.113 290.776Z" fill="white"/>
<path d="M118.035 289.556C119.823 289.562 121.445 288.753 121.472 288.739L121.261 288.326C121.22 288.347 117.156 290.371 115.081 287.767L114.719 288.055C115.631 289.2 116.868 289.551 118.035 289.556Z" fill="white"/>
<path d="M115.131 293.462L115.129 293.925L130.707 293.983L130.709 293.519L115.131 293.462Z" fill="white"/>
<path d="M132.72 293.525L132.719 293.989L136.403 294.002L136.405 293.539L132.72 293.525Z" fill="white"/>
<path d="M62.6997 295.54L89.4329 295.638C90.3637 295.641 91.111 294.856 91.0436 293.928C91.0429 293.916 91.0417 293.905 91.041 293.894C91.0234 293.689 90.9994 293.479 90.9692 293.269C90.879 292.557 90.6898 291.845 90.3574 291.399C89.0961 289.712 86.6372 288.936 82.2593 287.182C79.5115 286.077 77.1794 284.616 76.1552 283.932C75.8222 283.708 75.389 283.762 75.097 284.039C69.7907 289.19 66.5479 288.077 65.5849 285.94C64.849 284.311 63.7964 284.647 63.5038 285.122C62.6077 286.609 62.1031 290.973 61.8975 293.162C61.8717 293.396 61.8528 293.613 61.8395 293.786C61.8074 294.194 61.7878 294.441 61.7878 294.441C61.6875 295.011 62.1246 295.538 62.6997 295.54Z" fill="#374263"/>
<path d="M80.7006 289.979C82.602 289.065 82.327 287.103 82.3245 287.083L81.866 287.152C81.8754 287.219 82.0867 288.798 80.5 289.56L80.7006 289.979Z" fill="white"/>
<path d="M83.0428 290.774C84.7929 289.795 84.6131 288.092 84.6043 288.02L84.1439 288.073C84.1509 288.133 84.289 289.546 82.8164 290.37L83.0428 290.774Z" fill="white"/>
<path d="M67.9566 289.556C69.7451 289.562 71.3671 288.753 71.3936 288.739L71.183 288.326C71.142 288.347 67.0781 290.371 65.0033 287.767L64.6406 288.055C65.5532 289.2 66.7905 289.551 67.9566 289.556Z" fill="white"/>
<path d="M65.072 293.462L65.0703 293.925L80.6486 293.983L80.6503 293.519L65.072 293.462Z" fill="white"/>
<path d="M82.6502 293.525L82.6484 293.989L86.3327 294.002L86.3344 293.539L82.6502 293.525Z" fill="white"/>
<path d="M78.5323 205.661L167.828 191.562C169.667 191.272 170.933 189.53 170.643 187.692L161.569 130.223C161.279 128.385 159.537 127.118 157.699 127.409L68.4028 141.507C66.5645 141.797 65.2982 143.539 65.5883 145.377L74.662 202.846C74.9528 204.685 76.694 205.951 78.5323 205.661Z" fill="#6D92F0"/>
<path d="M96.1931 182.333L80.1178 184.872C79.6203 184.95 79.1485 184.607 79.0697 184.109L78.5816 181.02C78.5028 180.522 78.8458 180.05 79.344 179.972L95.4192 177.433C95.9168 177.354 96.3886 177.697 96.4674 178.196L96.9549 181.285C97.0337 181.783 96.6906 182.255 96.1931 182.333Z" fill="white"/>
<path d="M117.435 178.976L101.359 181.515C100.862 181.594 100.39 181.25 100.311 180.752L99.8238 177.663C99.7449 177.165 100.088 176.693 100.586 176.615L116.661 174.076C117.159 173.997 117.631 174.34 117.71 174.839L118.197 177.928C118.275 178.426 117.932 178.898 117.435 178.976Z" fill="white"/>
<path d="M138.669 175.623L122.594 178.162C122.096 178.241 121.624 177.897 121.546 177.399L121.058 174.31C120.979 173.812 121.322 173.34 121.821 173.262L137.896 170.723C138.393 170.644 138.865 170.987 138.944 171.486L139.432 174.575C139.51 175.073 139.167 175.545 138.669 175.623Z" fill="white"/>
<path d="M159.939 172.27L143.864 174.809C143.366 174.887 142.895 174.544 142.816 174.046L142.328 170.957C142.249 170.459 142.592 169.987 143.09 169.909L159.165 167.37C159.663 167.291 160.135 167.634 160.213 168.133L160.702 171.222C160.78 171.72 160.437 172.191 159.939 172.27Z" fill="white"/>
<path d="M161.238 181.882L140.09 185.221C139.484 185.317 138.91 184.9 138.814 184.294L138.389 181.597C138.293 180.991 138.71 180.417 139.316 180.321L160.465 176.982C161.071 176.886 161.645 177.304 161.741 177.91L162.167 180.606C162.262 181.212 161.844 181.786 161.238 181.882Z" fill="white"/>
<path d="M79.2861 159.19L78.2701 152.754C78.0481 151.348 79.0117 150.023 80.4181 149.801L92.9188 147.827C94.3251 147.605 95.6501 148.569 95.8721 149.975L96.8881 156.41C97.1101 157.817 96.1464 159.142 94.7401 159.364L82.2394 161.338C80.833 161.56 79.508 160.596 79.2861 159.19ZM80.5259 150.486C79.4967 150.649 78.7923 151.618 78.9543 152.647L79.9703 159.082C80.133 160.111 81.1023 160.815 82.1309 160.653L94.6322 158.679C95.6615 158.517 96.3659 157.548 96.2038 156.519L95.1878 150.084C95.0251 149.054 94.0558 148.35 93.0272 148.512L80.5259 150.486Z" fill="white"/>
<path d="M162.564 134.4L161.941 134.498L164.116 148.266L164.739 148.168L162.564 134.4Z" fill="#2E4882"/>
<path d="M117.255 199.866L117.156 199.243L167.783 191.249C168.589 191.122 169.299 190.685 169.783 190.021C170.266 189.356 170.462 188.546 170.335 187.74L165.936 159.876L166.558 159.777L170.957 187.642C171.111 188.614 170.875 189.591 170.292 190.392C169.709 191.194 168.853 191.719 167.881 191.873L117.255 199.866Z" fill="#2E4882"/>
<path d="M108.439 200.609L89.6875 203.572L89.786 204.196L108.538 201.232L108.439 200.609Z" fill="#2E4882"/>
<path d="M143.08 127.855C143.471 127.974 143.669 128.412 143.495 128.783C143.183 129.45 142.668 130.147 142.307 130.171C141.668 130.212 141.991 129.121 142.237 128.306C142.346 127.948 142.722 127.746 143.08 127.855Z" fill="#FCB47E"/>
<path d="M141.999 127.839C142.262 128.017 142.371 128.351 142.259 128.648C141.978 129.389 141.375 130.459 140.768 130.364C140.382 130.303 140.638 129.143 140.89 128.201C141.012 127.744 141.608 127.573 141.999 127.839Z" fill="#FCB47E"/>
<path d="M140.42 127.447C140.785 127.523 141.022 127.877 140.949 128.243C140.792 129.028 140.392 130.061 139.579 130.353C138.881 130.603 139.279 128.947 139.528 127.929C139.615 127.572 139.969 127.352 140.328 127.427L140.42 127.447Z" fill="#FCB47E"/>
<path d="M139.107 126.573C139.77 126.689 139.862 127.35 139.691 127.787C139.379 128.584 138.834 129.487 138.333 129.61C137.796 129.743 138.094 128.409 138.269 127.389C138.347 126.929 138.7 126.502 139.107 126.573Z" fill="#FCB47E"/>
<path d="M71.0861 162.598C71.0861 162.598 60.6375 147.295 76.8099 136.389L86.0735 110.336L86.0741 110.162C75.2257 110.107 63.5663 116.744 57.2529 126.046C46.6952 141.601 47.7566 160.201 65.433 169.791L71.0861 162.598Z" fill="white"/>
<path d="M76.3849 139.651L75.8242 139.541L77.4021 131.526L77.9627 131.636L76.3849 139.651Z" fill="#3F5A9F"/>
<path d="M69.2893 170.039C61.6717 165.906 56.7015 159.842 54.9149 152.501C52.8773 144.128 55.041 134.674 61.0089 125.883L61.4812 126.204C55.6061 134.861 53.4707 144.152 55.4699 152.366C57.2168 159.546 62.0898 165.483 69.5611 169.537L69.2893 170.039Z" fill="#3F5A9F"/>
<path d="M70.0855 163.854C70.6152 164.279 72.2694 165.7 72.9385 165.815C73.5591 165.92 76.9854 166.064 76.8895 166.788C76.7886 167.546 74.4514 166.957 74.4741 167.568C74.488 167.946 79.0507 169.177 78.5916 169.976C78.2902 170.5 75.6289 169.378 75.5746 169.708C75.5248 170.013 79.0924 170.712 78.685 171.511C78.258 172.348 74.8248 170.237 74.6501 170.635C74.5637 170.831 78.7323 172.329 78.3823 172.973C77.9143 173.834 74.7132 171.714 74.4659 172.088C74.3442 172.272 75.6093 172.819 76.3207 173.24C76.7148 173.473 76.5906 173.829 76.2797 173.815C73.0583 173.671 69.0171 169.753 68.5013 169.569C67.7338 169.294 66.989 169.009 66.2656 168.713L70.0855 163.854Z" fill="#FCB47E"/>
<path d="M70.193 143.531L69.6992 143.244C71.2317 140.611 73.5676 138.224 76.6414 136.151L76.9605 136.625C73.9586 138.649 71.682 140.973 70.193 143.531Z" fill="#3F5A9F"/>
<path d="M410.765 111.608C410.771 111.828 410.777 112.042 410.783 112.262C411.569 139.081 408.817 159.987 404.16 176.276L390.34 184.869L401.707 183.111L402.031 183.061C395.865 200.964 387.34 212.531 379.285 219.969C374.276 224.609 369.446 227.646 365.482 229.613C365.221 229.745 364.964 229.871 364.708 229.992C364.07 230.299 363.451 230.573 362.863 230.824L355.261 231.221C355.157 230.868 355.058 230.518 354.964 230.164C354.899 229.942 354.839 229.72 354.784 229.497C354.699 229.207 354.624 228.91 354.55 228.619C345.566 193.999 356.888 166.385 371.678 146.7C371.718 146.634 371.768 146.572 371.824 146.505C376.971 139.674 382.537 133.798 387.803 128.925L391.163 137.483L391.646 125.495C400.819 117.574 408.447 112.953 410.321 111.862C410.613 111.691 410.765 111.608 410.765 111.608Z" fill="#9AADE5"/>
<path d="M410.997 111.729L410.745 112.257L395.134 144.945L394.852 145.523L390.598 154.436L390.453 154.734L376.881 183.147L376.862 183.186L354.747 229.492L354.413 230.185L353.886 231.286L353.223 231.32L353.744 230.221L354.514 228.614L376.338 182.918L376.745 182.071L410.284 111.857L410.468 111.472L410.997 111.729Z" fill="white"/>
<path d="M409.752 141.316L390.395 154.631L390.684 155.052L410.041 141.737L409.752 141.316Z" fill="white"/>
<path d="M409.884 134.812L394.711 145.249L395 145.669L410.173 135.233L409.884 134.812Z" fill="white"/>
<path d="M372.151 146.453L371.645 146.519L376.407 183.247L376.914 183.182L372.151 146.453Z" fill="white"/>
<path d="M352.188 237.157C352.188 237.157 370.207 245.671 395.842 230.386L387.53 226.441L401.099 226.986C411.104 219.987 422.086 209.318 433.487 193.263L430.315 191.761L434.428 191.923C436.35 189.179 438.284 186.278 440.227 183.214C440.227 183.214 432.699 182.546 421.937 183.791L416.412 191.271L417.978 184.324C395.971 187.663 363.935 199.193 352.188 237.157Z" fill="#BAC8F3"/>
<path d="M440.093 182.981L350.68 235.237L350.971 235.736L440.385 183.479L440.093 182.981Z" fill="white"/>
<path d="M416.926 196.772L416.871 197.304L429.671 198.623L429.726 198.091L416.926 196.772Z" fill="white"/>
<path d="M410.848 200.221L410.754 200.749L425.682 203.409L425.776 202.881L410.848 200.221Z" fill="white"/>
<path d="M373.243 204.292L372.793 203.786C380.298 197.117 389.434 191.916 399.948 188.327L400.167 188.967C389.738 192.526 380.68 197.682 373.243 204.292Z" fill="#2E4882"/>
<path d="M194.195 161.607C194.226 161.825 194.256 162.036 194.287 162.254C197.991 188.828 204.197 208.98 211.509 224.263L226.571 230.427L215.07 230.592L214.741 230.597C223.811 247.219 234.149 257.199 243.333 263.188C249.047 266.926 254.316 269.113 258.552 270.391C258.832 270.477 259.106 270.558 259.379 270.635C260.06 270.831 260.715 270.997 261.337 271.146L268.899 270.268C268.942 269.902 268.981 269.541 269.015 269.176C269.042 268.946 269.064 268.717 269.081 268.488C269.116 268.188 269.14 267.883 269.165 267.584C272.24 231.949 256.464 206.614 238.594 189.676C238.544 189.618 238.484 189.565 238.418 189.508C232.203 183.634 225.732 178.77 219.727 174.845L217.843 183.844L215.364 172.104C204.998 165.827 196.705 162.545 194.675 161.782C194.358 161.664 194.195 161.607 194.195 161.607Z" fill="#9AADE5"/>
<path d="M193.969 161.775L194.305 162.254L215.157 191.875L215.531 192.398L221.215 200.475L221.408 200.745L239.534 226.491L239.56 226.526L269.098 268.488L269.544 269.116L270.247 270.113L270.907 270.036L270.209 269.039L269.182 267.583L240.031 226.175L239.49 225.407L194.692 161.782L194.447 161.433L193.969 161.775Z" fill="white"/>
<path d="M200.16 190.709L199.945 191.172L221.255 201.066L221.47 200.602L200.16 190.709Z" fill="white"/>
<path d="M198.926 184.355L198.711 184.818L215.414 192.573L215.63 192.11L198.926 184.355Z" fill="white"/>
<path d="M238.581 189.484L238.07 189.504L239.511 226.51L240.021 226.49L238.581 189.484Z" fill="white"/>
<path d="M272.941 275.616C272.941 275.616 256.597 287.02 228.768 276.231L236.305 270.954L223.018 273.757C211.984 268.527 199.374 259.843 185.452 245.919L188.329 243.907L184.3 244.755C181.947 242.37 179.556 239.833 177.129 237.136C177.129 237.136 184.439 235.22 195.258 234.65L201.954 241.103L199.25 234.515C221.504 234.131 255.016 240.148 272.941 275.616Z" fill="#BAC8F3"/>
<path d="M177.227 236.865L177.023 237.404L273.904 273.992L274.107 273.453L177.227 236.865Z" fill="white"/>
<path d="M202.27 246.597L189.871 250.037L190.014 250.553L202.414 247.113L202.27 246.597Z" fill="white"/>
<path d="M208.899 249.019L194.625 254.135L194.806 254.639L209.08 249.524L208.899 249.019Z" fill="white"/>
<path d="M246.656 246.729L247.015 246.156C238.502 240.834 228.626 237.231 217.659 235.449L217.551 236.117C228.428 237.884 238.22 241.454 246.656 246.729Z" fill="#2E4882"/>
<path d="M276.495 292.136H258.261C252.325 292.136 247.446 287.517 247.201 281.667L236.916 102.233C236.657 96.0299 241.682 90.8643 247.976 90.8643H269.002L276.495 292.136Z" fill="#446BD0"/>
<path d="M366.552 102.233L361.167 281.667C360.921 287.517 356.043 292.136 350.107 292.136H269.488C263.552 292.136 256.56 287.517 256.314 281.667L250.935 102.233C250.676 96.0299 255.701 90.8643 261.995 90.8643H355.492C361.787 90.8643 366.812 96.0299 366.552 102.233Z" fill="#DCE8FF"/>
<path d="M273.193 103.269H268.874C268.276 103.269 267.74 103.509 267.353 103.903C266.958 104.298 266.719 104.833 266.719 105.432C266.719 106.622 267.684 107.587 268.874 107.587H273.193H343.698H348.017C348.615 107.587 349.151 107.348 349.539 106.953C349.933 106.566 350.172 106.031 350.172 105.432C350.172 104.241 349.207 103.269 348.017 103.269H343.698L273.193 103.269Z" fill="#3F5A9F"/>
<path d="M347.129 173.888H270.359C268.894 173.888 267.69 172.729 267.634 171.264L265.729 121.319C265.669 119.774 266.907 118.488 268.454 118.488H349.035C350.582 118.488 351.819 119.773 351.76 121.319L349.855 171.264C349.799 172.729 348.595 173.888 347.129 173.888Z" fill="white"/>
<path d="M289.497 207.614H277.625C275.539 207.614 273.848 205.923 273.848 203.836V198.441C273.848 196.354 275.539 194.663 277.625 194.663H289.497C291.583 194.663 293.274 196.354 293.274 198.441V203.836C293.274 205.923 291.583 207.614 289.497 207.614Z" fill="#647CE2"/>
<path d="M289.497 228.749H277.625C275.539 228.749 273.848 227.058 273.848 224.972V219.576C273.848 217.49 275.539 215.799 277.625 215.799H289.497C291.583 215.799 293.274 217.49 293.274 219.576V224.972C293.274 227.058 291.583 228.749 289.497 228.749Z" fill="#647CE2"/>
<path d="M289.497 249.884H277.625C275.539 249.884 273.848 248.192 273.848 246.106V240.71C273.848 238.624 275.539 236.933 277.625 236.933H289.497C291.583 236.933 293.274 238.624 293.274 240.71V246.106C293.274 248.192 291.583 249.884 289.497 249.884Z" fill="#647CE2"/>
<path d="M289.497 271.018H277.625C275.539 271.018 273.848 269.326 273.848 267.24V261.844C273.848 259.758 275.539 258.067 277.625 258.067H289.497C291.583 258.067 293.274 259.758 293.274 261.844V267.24C293.274 269.327 291.583 271.018 289.497 271.018Z" fill="#3F5A9F"/>
<path d="M314.153 207.614H302.281C300.195 207.614 298.504 205.923 298.504 203.836V198.441C298.504 196.354 300.195 194.663 302.281 194.663H314.153C316.239 194.663 317.93 196.354 317.93 198.441V203.836C317.93 205.923 316.239 207.614 314.153 207.614Z" fill="#647CE2"/>
<path d="M314.153 228.749H302.281C300.195 228.749 298.504 227.057 298.504 224.971V219.575C298.504 217.489 300.195 215.798 302.281 215.798H314.153C316.239 215.798 317.93 217.49 317.93 219.575V224.971C317.93 227.057 316.239 228.749 314.153 228.749Z" fill="#647CE2"/>
<path d="M314.153 249.884H302.281C300.195 249.884 298.504 248.192 298.504 246.106V240.71C298.504 238.624 300.195 236.933 302.281 236.933H314.153C316.239 236.933 317.93 238.624 317.93 240.71V246.106C317.93 248.192 316.239 249.884 314.153 249.884Z" fill="#647CE2"/>
<path d="M314.153 271.018H302.281C300.195 271.018 298.504 269.326 298.504 267.24V261.844C298.504 259.758 300.195 258.067 302.281 258.067H314.153C316.239 258.067 317.93 259.758 317.93 261.844V267.24C317.93 269.327 316.239 271.018 314.153 271.018Z" fill="#647CE2"/>
<path d="M338.809 207.614H326.938C324.852 207.614 323.16 205.923 323.16 203.836V198.441C323.16 196.354 324.852 194.663 326.938 194.663H338.809C340.895 194.663 342.587 196.354 342.587 198.441V203.836C342.586 205.923 340.895 207.614 338.809 207.614Z" fill="#647CE2"/>
<path d="M338.809 228.749H326.938C324.852 228.749 323.16 227.058 323.16 224.972V219.576C323.16 217.49 324.852 215.799 326.938 215.799H338.809C340.895 215.799 342.587 217.49 342.587 219.576V224.972C342.586 227.058 340.895 228.749 338.809 228.749Z" fill="#647CE2"/>
<path d="M338.809 249.884H326.938C324.852 249.884 323.16 248.192 323.16 246.106V240.71C323.16 238.624 324.852 236.933 326.938 236.933H338.809C340.895 236.933 342.587 238.624 342.587 240.71V246.106C342.586 248.192 340.895 249.884 338.809 249.884Z" fill="#647CE2"/>
<path d="M338.809 271.018H326.938C324.852 271.018 323.16 269.326 323.16 267.24V261.844C323.16 259.758 324.852 258.067 326.938 258.067H338.809C340.895 258.067 342.587 259.758 342.587 261.844V267.24C342.586 269.327 340.895 271.018 338.809 271.018Z" fill="#3F5A9F"/>
<path d="M293.02 207.614H281.149C279.062 207.614 277.371 205.923 277.371 203.836V198.441C277.371 196.354 279.062 194.663 281.149 194.663H293.02C295.106 194.663 296.798 196.354 296.798 198.441V203.836C296.797 205.923 295.106 207.614 293.02 207.614Z" fill="#6D92F0"/>
<path d="M293.02 228.749H281.149C279.062 228.749 277.371 227.058 277.371 224.972V219.576C277.371 217.49 279.062 215.799 281.149 215.799H293.02C295.106 215.799 296.798 217.49 296.798 219.576V224.972C296.797 227.058 295.106 228.749 293.02 228.749Z" fill="#6D92F0"/>
<path d="M293.02 249.884H281.149C279.062 249.884 277.371 248.193 277.371 246.106V240.711C277.371 238.624 279.062 236.933 281.149 236.933H293.02C295.106 236.933 296.798 238.624 296.798 240.711V246.106C296.797 248.193 295.106 249.884 293.02 249.884Z" fill="#6D92F0"/>
<path d="M293.02 271.018H281.149C279.062 271.018 277.371 269.326 277.371 267.24V261.844C277.371 259.758 279.062 258.067 281.149 258.067H293.02C295.106 258.067 296.798 259.758 296.798 261.844V267.24C296.797 269.327 295.106 271.018 293.02 271.018Z" fill="#3F5A9F"/>
<path d="M317.676 207.614H305.805C303.719 207.614 302.027 205.923 302.027 203.836V198.441C302.027 196.354 303.719 194.663 305.805 194.663H317.676C319.762 194.663 321.454 196.354 321.454 198.441V203.836C321.453 205.923 319.762 207.614 317.676 207.614Z" fill="#6D92F0"/>
<path d="M317.676 228.749H305.805C303.719 228.749 302.027 227.057 302.027 224.971V219.575C302.027 217.489 303.719 215.798 305.805 215.798H317.676C319.762 215.798 321.454 217.49 321.454 219.575V224.971C321.453 227.057 319.762 228.749 317.676 228.749Z" fill="#6D92F0"/>
<path d="M317.676 249.885H305.805C303.719 249.885 302.027 248.193 302.027 246.107V240.711C302.027 238.625 303.719 236.934 305.805 236.934H317.676C319.762 236.934 321.454 238.625 321.454 240.711V246.107C321.453 248.193 319.762 249.885 317.676 249.885Z" fill="#6D92F0"/>
<path d="M317.676 271.018H305.805C303.719 271.018 302.027 269.326 302.027 267.24V261.844C302.027 259.758 303.719 258.067 305.805 258.067H317.676C319.762 258.067 321.454 259.758 321.454 261.844V267.24C321.453 269.327 319.762 271.018 317.676 271.018Z" fill="#6D92F0"/>
<path d="M342.34 207.614H330.469C328.383 207.614 326.691 205.923 326.691 203.836V198.441C326.691 196.354 328.383 194.663 330.469 194.663H342.34C344.427 194.663 346.118 196.354 346.118 198.441V203.836C346.118 205.923 344.427 207.614 342.34 207.614Z" fill="#6D92F0"/>
<path d="M342.34 228.749H330.469C328.383 228.749 326.691 227.058 326.691 224.972V219.576C326.691 217.49 328.383 215.799 330.469 215.799H342.34C344.427 215.799 346.118 217.49 346.118 219.576V224.972C346.118 227.058 344.427 228.749 342.34 228.749Z" fill="#6D92F0"/>
<path d="M342.34 249.884H330.469C328.383 249.884 326.691 248.192 326.691 246.106V240.71C326.691 238.624 328.383 236.933 330.469 236.933H342.34C344.427 236.933 346.118 238.624 346.118 240.71V246.106C346.118 248.192 344.427 249.884 342.34 249.884Z" fill="#6D92F0"/>
<path d="M342.34 271.018H330.469C328.383 271.018 326.691 269.327 326.691 267.241V261.845C326.691 259.759 328.383 258.067 330.469 258.067H342.34C344.427 258.067 346.118 259.759 346.118 261.845V267.241C346.118 269.328 344.427 271.018 342.34 271.018Z" fill="#3F5A9F"/>
<path d="M293.033 207.964H281.161C278.883 207.964 277.031 206.112 277.031 203.835V198.438C277.031 196.161 278.883 194.309 281.161 194.309H293.033C295.31 194.309 297.162 196.161 297.162 198.438V203.835C297.161 206.112 295.31 207.964 293.033 207.964ZM281.161 195.014C279.272 195.014 277.736 196.55 277.736 198.438V203.835C277.736 205.723 279.272 207.26 281.161 207.26H293.033C294.921 207.26 296.457 205.723 296.457 203.835V198.438C296.457 196.549 294.921 195.014 293.033 195.014H281.161Z" fill="white"/>
<path d="M293.033 229.101H281.161C278.883 229.101 277.031 227.249 277.031 224.972V219.575C277.031 217.298 278.883 215.446 281.161 215.446H293.033C295.31 215.446 297.162 217.298 297.162 219.575V224.972C297.161 227.25 295.31 229.101 293.033 229.101ZM281.161 216.151C279.272 216.151 277.736 217.687 277.736 219.576V224.972C277.736 226.861 279.272 228.397 281.161 228.397H293.033C294.921 228.397 296.457 226.861 296.457 224.972V219.576C296.457 217.687 294.921 216.151 293.033 216.151H281.161Z" fill="white"/>
<path d="M293.033 250.235H281.161C278.883 250.235 277.031 248.382 277.031 246.105V240.709C277.031 238.431 278.883 236.579 281.161 236.579H293.033C295.31 236.579 297.162 238.431 297.162 240.709V246.105C297.161 248.382 295.31 250.235 293.033 250.235ZM281.161 237.284C279.272 237.284 277.736 238.82 277.736 240.709V246.106C277.736 247.994 279.272 249.53 281.161 249.53H293.033C294.921 249.53 296.457 247.994 296.457 246.106V240.709C296.457 238.82 294.921 237.284 293.033 237.284H281.161Z" fill="white"/>
<path d="M293.033 271.368H281.161C278.883 271.368 277.031 269.516 277.031 267.239V261.842C277.031 259.565 278.883 257.713 281.161 257.713H293.033C295.31 257.713 297.162 259.565 297.162 261.842V267.239C297.161 269.516 295.31 271.368 293.033 271.368ZM281.161 258.417C279.272 258.417 277.736 259.954 277.736 261.842V267.239C277.736 269.128 279.272 270.664 281.161 270.664H293.033C294.921 270.664 296.457 269.128 296.457 267.239V261.842C296.457 259.954 294.921 258.417 293.033 258.417H281.161Z" fill="white"/>
<path d="M317.677 207.964H305.805C303.528 207.964 301.676 206.112 301.676 203.835V198.438C301.676 196.161 303.528 194.309 305.805 194.309H317.677C319.954 194.309 321.807 196.161 321.807 198.438V203.835C321.807 206.112 319.954 207.964 317.677 207.964ZM305.805 195.014C303.916 195.014 302.38 196.55 302.38 198.438V203.835C302.38 205.723 303.916 207.26 305.805 207.26H317.677C319.566 207.26 321.102 205.723 321.102 203.835V198.438C321.102 196.549 319.565 195.014 317.677 195.014H305.805Z" fill="white"/>
<path d="M317.677 229.101H305.805C303.528 229.101 301.676 227.249 301.676 224.972V219.575C301.676 217.298 303.528 215.446 305.805 215.446H317.677C319.954 215.446 321.807 217.298 321.807 219.575V224.972C321.807 227.25 319.954 229.101 317.677 229.101ZM305.805 216.151C303.916 216.151 302.38 217.687 302.38 219.576V224.972C302.38 226.861 303.916 228.397 305.805 228.397H317.677C319.566 228.397 321.102 226.861 321.102 224.972V219.576C321.102 217.687 319.565 216.151 317.677 216.151H305.805Z" fill="white"/>
<path d="M317.677 250.235H305.805C303.528 250.235 301.676 248.382 301.676 246.105V240.709C301.676 238.431 303.528 236.579 305.805 236.579H317.677C319.954 236.579 321.807 238.431 321.807 240.709V246.105C321.807 248.382 319.954 250.235 317.677 250.235ZM305.805 237.284C303.916 237.284 302.38 238.82 302.38 240.709V246.106C302.38 247.994 303.916 249.53 305.805 249.53H317.677C319.566 249.53 321.102 247.994 321.102 246.106V240.709C321.102 238.82 319.565 237.284 317.677 237.284H305.805Z" fill="white"/>
<path d="M317.677 271.368H305.805C303.528 271.368 301.676 269.516 301.676 267.239V261.842C301.676 259.565 303.528 257.713 305.805 257.713H317.677C319.954 257.713 321.807 259.565 321.807 261.842V267.239C321.807 269.516 319.954 271.368 317.677 271.368ZM305.805 258.417C303.916 258.417 302.38 259.954 302.38 261.842V267.239C302.38 269.128 303.916 270.664 305.805 270.664H317.677C319.566 270.664 321.102 269.128 321.102 267.239V261.842C321.102 259.954 319.565 258.417 317.677 258.417H305.805Z" fill="white"/>
<path d="M342.345 207.964H330.473C328.196 207.964 326.344 206.112 326.344 203.835V198.438C326.344 196.161 328.196 194.309 330.473 194.309H342.345C344.622 194.309 346.475 196.161 346.475 198.438V203.835C346.475 206.112 344.622 207.964 342.345 207.964ZM330.473 195.014C328.585 195.014 327.049 196.55 327.049 198.438V203.835C327.049 205.723 328.585 207.26 330.473 207.26H342.345C344.234 207.26 345.77 205.723 345.77 203.835V198.438C345.77 196.549 344.233 195.014 342.345 195.014H330.473Z" fill="white"/>
<path d="M342.345 229.101H330.473C328.196 229.101 326.344 227.249 326.344 224.972V219.575C326.344 217.298 328.196 215.446 330.473 215.446H342.345C344.622 215.446 346.475 217.298 346.475 219.575V224.972C346.475 227.25 344.622 229.101 342.345 229.101ZM330.473 216.151C328.585 216.151 327.049 217.687 327.049 219.576V224.972C327.049 226.861 328.585 228.397 330.473 228.397H342.345C344.234 228.397 345.77 226.861 345.77 224.972V219.576C345.77 217.687 344.233 216.151 342.345 216.151H330.473Z" fill="white"/>
<path d="M342.345 250.235H330.473C328.196 250.235 326.344 248.382 326.344 246.105V240.709C326.344 238.431 328.196 236.579 330.473 236.579H342.345C344.622 236.579 346.475 238.431 346.475 240.709V246.105C346.475 248.382 344.622 250.235 342.345 250.235ZM330.473 237.284C328.585 237.284 327.049 238.82 327.049 240.709V246.106C327.049 247.994 328.585 249.53 330.473 249.53H342.345C344.234 249.53 345.77 247.994 345.77 246.106V240.709C345.77 238.82 344.233 237.284 342.345 237.284H330.473Z" fill="white"/>
<path d="M342.345 271.368H330.473C328.196 271.368 326.344 269.516 326.344 267.239V261.842C326.344 259.565 328.196 257.713 330.473 257.713H342.345C344.622 257.713 346.475 259.565 346.475 261.842V267.239C346.475 269.516 344.622 271.368 342.345 271.368ZM330.473 258.417C328.585 258.417 327.049 259.954 327.049 261.842V267.239C327.049 269.128 328.585 270.664 330.473 270.664H342.345C344.234 270.664 345.77 269.128 345.77 267.239V261.842C345.77 259.954 344.233 258.417 342.345 258.417H330.473Z" fill="white"/>
<path d="M340.318 292.608H269.492C263.394 292.608 256.104 287.838 255.846 281.686L250.467 102.247C250.337 99.1521 251.456 96.2038 253.616 93.9518C255.818 91.6556 258.796 90.3911 261.999 90.3911H355.496C358.701 90.3911 361.678 91.6556 363.879 93.9518C366.04 96.2038 367.158 99.1521 367.028 102.252L366.735 112.043L365.789 112.014L366.083 102.218C366.202 99.3722 365.177 96.6711 363.197 94.6064C361.175 92.4981 358.44 91.3371 355.496 91.3371H261.999C259.055 91.3371 256.32 92.4981 254.298 94.6064C252.318 96.6705 251.293 99.3722 251.412 102.213L256.791 281.652C257.027 287.288 263.812 291.662 269.491 291.662H340.318V292.608Z" fill="#3F5A9F"/>
<path d="M364.957 139.542L361.836 243.878L362.782 243.907L365.903 139.57L364.957 139.542Z" fill="#3F5A9F"/>
<path d="M343.675 68.7538V107.585H273.29V68.7538C273.121 66.0767 271.895 63.6815 270.042 61.9554C268.182 60.2293 265.681 59.1724 262.969 59.1724H333.355C336.074 59.1724 338.568 60.2293 340.428 61.9554C342.288 63.6815 343.506 66.0767 343.675 68.7538Z" fill="white"/>
<path d="M273.281 68.7538H252.633C252.802 66.0767 254.028 63.6815 255.888 61.9554C257.747 60.2293 260.249 59.1724 262.961 59.1724C265.673 59.1724 268.175 60.2293 270.034 61.9554C271.886 63.6815 273.112 66.0767 273.281 68.7538Z" fill="#2E4882"/>
<path d="M343.991 107.9H272.975V68.7532C272.817 66.2691 271.699 63.9294 269.827 62.185C267.953 60.4457 265.517 59.4871 262.969 59.4871V58.8564H333.355C336.062 58.8564 338.65 59.8743 340.642 61.7227C342.632 63.5699 343.821 66.0591 343.991 68.7324L343.991 68.7526V107.9ZM273.605 107.269H343.361V68.7633C343.199 66.2552 342.082 63.9199 340.214 62.1856C338.338 60.4457 335.903 59.4871 333.355 59.4871H266.591C267.936 59.9714 269.183 60.7269 270.256 61.7227C272.247 63.5775 273.436 66.0673 273.605 68.7324L273.605 107.269Z" fill="#2E4882"/>
<path d="M348.016 107.902H268.874C267.511 107.902 266.402 106.794 266.402 105.431C266.402 104.77 266.66 104.148 267.129 103.679C267.588 103.211 268.209 102.953 268.874 102.953H273.193V103.584H268.874C268.379 103.584 267.918 103.775 267.577 104.123C267.226 104.475 267.034 104.938 267.034 105.431C267.034 106.445 267.859 107.271 268.874 107.271H348.017C348.511 107.271 348.972 107.079 349.314 106.731C349.666 106.386 349.858 105.925 349.858 105.43C349.858 104.412 349.032 103.582 348.017 103.582H343.698V102.952H348.017C349.38 102.952 350.489 104.063 350.489 105.43C350.489 106.095 350.23 106.715 349.76 107.177C349.301 107.644 348.681 107.902 348.016 107.902Z" fill="#2E4882"/>
<path d="M351.023 294.867C351.023 296.611 363.836 298.031 379.637 298.031C395.437 298.031 408.25 296.611 408.25 294.867C408.25 294.833 408.243 294.806 408.236 294.772V286.219H351.043V294.752C351.03 294.792 351.023 294.826 351.023 294.867Z" fill="#F49B51"/>
<path d="M379.647 289.462C395.449 289.462 408.259 288.045 408.259 286.298C408.259 284.55 395.449 283.134 379.647 283.134C363.845 283.134 351.035 284.55 351.035 286.298C351.035 288.045 363.845 289.462 379.647 289.462Z" fill="#FCC659"/>
<path d="M344.25 284.549C344.25 286.293 357.062 287.713 372.863 287.713C388.664 287.713 401.476 286.293 401.476 284.549C401.476 284.515 401.469 284.488 401.462 284.454V275.901H344.27V284.434C344.256 284.474 344.25 284.508 344.25 284.549Z" fill="#F49B51"/>
<path d="M372.87 279.144C388.672 279.144 401.482 277.727 401.482 275.98C401.482 274.232 388.672 272.816 372.87 272.816C357.068 272.816 344.258 274.232 344.258 275.98C344.258 277.727 357.068 279.144 372.87 279.144Z" fill="#FCC659"/>
<path d="M351.023 274.23C351.023 275.974 363.836 277.394 379.637 277.394C395.437 277.394 408.25 275.974 408.25 274.23C408.25 274.196 408.243 274.169 408.236 274.135V265.583H351.043V274.115C351.03 274.156 351.023 274.19 351.023 274.23Z" fill="#F49B51"/>
<path d="M379.647 268.824C395.449 268.824 408.259 267.407 408.259 265.66C408.259 263.912 395.449 262.496 379.647 262.496C363.845 262.496 351.035 263.912 351.035 265.66C351.035 267.407 363.845 268.824 379.647 268.824Z" fill="#FCC659"/>
<path d="M379.63 298.368C391.268 298.368 408.581 297.436 408.581 294.866H407.905C407.905 295.852 398.194 297.692 379.63 297.692C378.955 297.692 378.285 297.69 377.622 297.684L377.617 298.36C378.281 298.366 378.954 298.368 379.63 298.368Z" fill="#2E4882"/>
<path d="M368.299 298.112L368.331 297.437C365.434 297.298 362.778 297.108 360.435 296.873L360.367 297.545C362.721 297.781 365.39 297.972 368.299 298.112Z" fill="#2E4882"/>
<path d="M390.939 287.288C401.692 286.309 401.692 284.954 401.692 284.508H401.016C401.016 284.837 399.195 285.858 390.879 286.615L390.939 287.288Z" fill="#2E4882"/>
<path d="M372.739 288.009C375.956 288.009 379.115 287.95 382.128 287.835L382.102 287.159C376.719 287.366 370.769 287.39 365.223 287.222L365.203 287.898C367.659 287.972 370.194 288.009 372.739 288.009Z" fill="#2E4882"/>
<path d="M358.108 287.565L358.153 286.89C355.102 286.69 352.441 286.43 350.244 286.119L350.148 286.789C352.363 287.102 355.041 287.363 358.108 287.565Z" fill="#2E4882"/>
<path d="M398.885 268.354C408.421 267.382 408.421 266.153 408.421 265.691H407.745C407.745 265.702 407.502 266.796 398.816 267.682L398.885 268.354Z" fill="#2E4882"/>
<path d="M379.47 269.195C382.759 269.195 385.977 269.134 389.031 269.014L389.004 268.338C385.958 268.458 382.75 268.519 379.47 268.519C373.598 268.519 367.958 268.323 363.161 267.954L363.109 268.627C367.924 268.999 373.581 269.195 379.47 269.195Z" fill="#2E4882"/>
<path d="M340.883 263.91C340.883 265.655 353.695 267.074 369.496 267.074C385.297 267.074 398.109 265.655 398.109 263.91C398.109 263.876 398.102 263.85 398.096 263.816V255.263H340.903V263.795C340.89 263.836 340.883 263.87 340.883 263.91Z" fill="#F49B51"/>
<path d="M369.495 258.506C385.297 258.506 398.107 257.09 398.107 255.342C398.107 253.595 385.297 252.178 369.495 252.178C353.693 252.178 340.883 253.595 340.883 255.342C340.883 257.09 353.693 258.506 369.495 258.506Z" fill="#FCC659"/>
<path d="M346.184 255.342C346.184 256.517 356.618 257.469 369.489 257.469C382.359 257.469 392.794 256.517 392.794 255.342C392.794 254.166 382.359 253.214 369.489 253.214C356.618 253.214 346.184 254.167 346.184 255.342Z" fill="#F49B51"/>
<path d="M336.16 76.2422H320.863V78.1341H336.16V76.2422Z" fill="#E1EAFF"/>
<path d="M313.778 76.2422H283.023V78.1341H313.778V76.2422Z" fill="#E1EAFF"/>
<path d="M336.158 84.4399H300.734V86.3319H336.158V84.4399Z" fill="#E1EAFF"/>
<path d="M296.388 84.4399H283.023V86.3319H296.388V84.4399Z" fill="#E1EAFF"/>
<path d="M329.562 93.269H315.07V95.161H329.562V93.269Z" fill="#E1EAFF"/>
<path d="M308.947 93.269H283.023V95.161H308.947V93.269Z" fill="#E1EAFF"/>
<path d="M307.868 173.415H288.688V174.361H307.868V173.415Z" fill="#3F5A9F"/>
<path d="M347.136 174.361H315.309V173.415H347.136C348.353 173.415 349.342 172.462 349.389 171.246L351.057 127.53L352.002 127.566L350.334 171.282C350.268 173.008 348.863 174.361 347.136 174.361Z" fill="#3F5A9F"/>
<path d="M169.735 107.628C159.232 105.533 149.02 112.352 146.925 122.86C144.831 133.364 151.649 143.58 162.158 145.671C172.661 147.765 182.878 140.947 184.968 130.438C187.063 119.935 180.243 109.723 169.735 107.628ZM181.258 129.7C180.443 133.789 178.084 137.316 174.614 139.631C171.147 141.947 166.988 142.776 162.895 141.961C154.456 140.277 148.955 132.042 150.639 123.599C151.454 119.51 153.809 115.982 157.28 113.667C160.624 111.433 164.618 110.584 168.57 111.261C168.714 111.285 168.854 111.313 168.997 111.342C177.302 112.994 182.753 120.99 181.334 129.281C181.31 129.421 181.286 129.561 181.258 129.7Z" fill="#FCC659"/>
<path d="M181.343 129.279C181.319 129.419 181.295 129.559 181.267 129.698C180.452 133.787 178.093 137.314 174.622 139.63C171.156 141.946 166.997 142.775 162.904 141.96C154.464 140.276 148.963 132.041 150.647 123.597C151.462 119.508 153.817 115.981 157.288 113.665C160.633 111.431 164.627 110.582 168.579 111.258C168.723 111.283 168.863 111.311 169.006 111.34C177.31 112.991 182.762 120.988 181.343 129.279Z" fill="#F49B51"/>
<path d="M162.955 138.25L163.451 135.355C161.793 135.042 160.162 134.231 159.281 133.343L160.298 131.54C161.212 132.404 162.609 133.204 164.215 133.479C166.251 133.827 167.827 132.888 168.107 131.254C168.377 129.677 167.426 128.511 165.452 127.288C162.723 125.641 161.144 124.013 161.57 121.519C161.977 119.14 163.978 117.623 166.688 117.645L167.184 114.75L168.961 115.053L168.485 117.834C170.195 118.185 171.292 118.846 172.04 119.475L170.999 121.244C170.456 120.797 169.389 119.966 167.554 119.652C165.347 119.274 164.29 120.45 164.093 121.597C163.838 123.088 164.771 124.014 167.089 125.474C169.835 127.183 171.071 128.929 170.634 131.48C170.246 133.745 168.307 135.596 165.271 135.579L164.761 138.56L162.955 138.25Z" fill="#FCC659"/>
<path d="M181.364 125.323C181.354 125.192 181.339 125.062 181.325 124.931C180.826 120.503 178.446 116.522 174.793 113.982L175.035 113.634C178.788 116.244 181.233 120.334 181.742 124.857C181.76 125.018 181.775 125.152 181.786 125.287L181.364 125.323Z" fill="#2E4882"/>
<path d="M174.814 113.983C171.877 111.94 168.297 110.983 164.735 111.287L164.699 110.865C168.36 110.553 172.037 111.537 175.056 113.635L174.814 113.983Z" fill="#2E4882"/>
<path d="M178.108 136.827L177.785 136.554C179.106 134.989 180.086 133.22 180.698 131.295L181.101 131.424C180.472 133.401 179.465 135.219 178.108 136.827Z" fill="#2E4882"/>
<path d="M180.827 114.56C179.572 113.013 178.092 111.678 176.43 110.592L176.678 110.211C178.38 111.323 179.894 112.69 181.179 114.274L180.827 114.56Z" fill="#2E4882"/>
<path d="M173.991 144.55L173.805 144.136C179.449 141.595 183.539 136.458 184.747 130.396C185.498 126.628 185.112 122.772 183.63 119.246L184.048 119.07C185.564 122.68 185.96 126.628 185.192 130.485C183.955 136.69 179.768 141.948 173.991 144.55Z" fill="#2E4882"/>
<path d="M307.915 163.892C317.851 163.496 325.584 155.121 325.189 145.185C324.793 135.25 316.418 127.516 306.482 127.912C296.547 128.308 288.813 136.683 289.209 146.618C289.605 156.554 297.98 164.288 307.915 163.892Z" fill="#6D92F0"/>
<path d="M306.54 155.071L298.281 146.577L299.186 145.697L306.187 152.899L315.195 134.231L316.33 134.779L306.54 155.071Z" fill="white"/>
<path d="M153.406 116.066C155.176 116.965 156.394 118.345 157.227 120.073C158.059 118.345 159.282 116.957 161.052 116.058C159.282 115.159 158.059 113.779 157.227 112.05C156.394 113.778 155.176 115.166 153.406 116.066Z" fill="#FFE6A6"/>
<path d="M168.906 140.74C169.935 141.263 170.642 142.064 171.127 143.069C171.61 142.064 172.321 141.259 173.35 140.736C172.321 140.213 171.61 139.411 171.127 138.407C170.643 139.411 169.935 140.218 168.906 140.74Z" fill="#FFE6A6"/>
</svg>
