<svg width="19" height="19" viewBox="0 0 19 19" fill="none" xmlns="http://www.w3.org/2000/svg">
<path d="M10.8468 1.31745L9.95497 0.402405C9.57734 0.0149536 8.96669 0.0149536 8.59307 0.402405L0.783226 8.41111C0.40559 8.79856 0.40559 9.42508 0.783226 9.8084L8.59307 17.8212C8.97071 18.2087 9.58135 18.2087 9.95497 17.8212L10.8468 16.9062C11.2285 16.5146 11.2205 15.8757 10.8308 15.4924L5.98979 10.7605H17.5358C18.0701 10.7605 18.5 10.3195 18.5 9.77131V8.45232C18.5 7.90412 18.0701 7.46309 17.5358 7.46309H5.98979L10.8308 2.73123C11.2245 2.34791 11.2325 1.70902 10.8468 1.31745Z" fill="white"/>
</svg>
