<svg width="30" height="29" viewBox="0 0 30 29" fill="none" xmlns="http://www.w3.org/2000/svg">
<path d="M23.6277 9.66667C26.2933 9.66667 28.4611 7.49892 28.4611 4.83333C28.4611 2.16775 26.2933 0 23.6277 0C20.9621 0 18.7944 2.16775 18.7944 4.83333C18.7944 7.49892 20.9621 9.66667 23.6277 9.66667ZM23.6277 2.41667C24.9605 2.41667 26.0444 3.50054 26.0444 4.83333C26.0444 6.16612 24.9605 7.25 23.6277 7.25C22.2949 7.25 21.2111 6.16612 21.2111 4.83333C21.2111 3.50054 22.2949 2.41667 23.6277 2.41667ZM25.8849 12.447C25.7314 11.797 25.0693 11.397 24.4325 11.5468C23.7824 11.7003 23.38 12.3504 23.5323 12.9992L24.8095 18.4235C25.0318 19.2185 24.8711 20.0523 24.3684 20.7108C23.8621 21.3718 23.0924 21.75 22.2563 21.75H5.66585C4.85626 21.75 4.10226 21.3911 3.59718 20.7652C3.09331 20.1405 2.9048 19.3357 3.06672 18.6071L5.59697 9.20992C6.49114 5.21033 9.99772 2.41787 14.123 2.41787C14.6426 2.41787 15.1609 2.46379 15.6636 2.55562C16.3294 2.67404 16.9493 2.23662 17.0689 1.58171C17.1885 0.924375 16.7511 0.296042 16.095 0.176417C15.4497 0.0592083 14.7863 0 14.1218 0C8.85706 0 4.38139 3.57062 3.25039 8.63233L0.720139 18.0283C0.384222 19.5315 0.746722 21.0818 1.71581 22.2829C2.68126 23.4803 4.1216 24.1679 5.66585 24.1679H8.04143C8.6033 26.9217 11.0429 29.0012 13.9611 29.0012C16.8792 29.0012 19.3188 26.9217 19.8807 24.1679H22.2551C23.8501 24.1679 25.3206 23.4429 26.2873 22.179C27.2551 20.9126 27.5645 19.3067 27.1488 17.8229L25.8849 12.4482V12.447ZM13.9611 26.5833C12.3878 26.5833 11.0586 25.5695 10.5584 24.1667H17.3625C16.8623 25.5695 15.5331 26.5833 13.9598 26.5833H13.9611Z" fill="#66676A"/>
<rect x="20.7617" y="2" width="5.66667" height="5.66667" rx="2.83334" fill="#7B2CF2"/>
<rect x="20.7617" y="2" width="5.66667" height="5.66667" rx="2.83334" stroke="#7B2CF2" stroke-width="4"/>
</svg>
