<svg width="250" height="120" viewBox="0 0 250 120" fill="none" xmlns="http://www.w3.org/2000/svg">
<g clip-path="url(#clip0_951_5558)">
<path d="M253.61 139.111V26.8786C253.61 24.0156 251.305 21.6956 248.462 21.6956H62.2847C59.4417 21.6956 57.1367 24.0156 57.1367 26.8786V139.11L253.61 139.111Z" fill="#2C295B"/>
<path d="M246.444 28.2305H63.8828V132.23H246.444V28.2305Z" fill="#00B1DE"/>
<g opacity="0.3">
<path d="M223.605 28.2305H202.624L91.0352 132.23H114.271L223.605 28.2305Z" fill="#ABDFF9"/>
<path d="M193.944 28.2305H165.381C165.381 28.2305 63.9878 118.879 63.8828 118.88V132.23H80.2138L193.944 28.2305Z" fill="#ABDFF9"/>
</g>
<path d="M292.199 195.469C292.199 197.205 290.791 198.612 289.056 198.612H177.988C176.252 198.612 174.844 197.205 174.844 195.469V115.672C174.844 113.936 176.252 112.529 177.988 112.529H289.056C290.791 112.529 292.199 113.937 292.199 115.672V195.469Z" fill="#2C295B"/>
<path d="M289.557 117.505H177.484V191.9H289.557V117.505Z" fill="#00B1DE"/>
<path d="M239.546 115.235C239.546 115.646 239.214 115.977 238.804 115.977H228.238C227.829 115.977 227.496 115.646 227.496 115.235C227.496 114.825 227.829 114.493 228.238 114.493H238.804C239.213 114.493 239.546 114.824 239.546 115.235Z" fill="#ABDFF9"/>
<g opacity="0.3">
<path d="M288.504 117.505H274.914L195.074 191.9H210.125L288.504 117.505Z" fill="#ABDFF9"/>
<path d="M269.29 117.505H250.789C250.789 117.505 177.553 183.253 177.484 183.253V191.9H188.062L269.29 117.505Z" fill="#ABDFF9"/>
</g>
<path d="M103.109 63.8024C103.109 64.3444 102.67 64.7844 102.127 64.7844H23.2583C22.7153 64.7844 22.2773 64.3444 22.2773 63.8024V6.20539C22.2773 5.66239 22.7163 5.22339 23.2583 5.22339H102.127C102.67 5.22339 103.109 5.66239 103.109 6.20539V63.8024Z" fill="#ABDFF9"/>
<path d="M103.109 15.0414V6.20539C103.109 5.66239 102.67 5.22339 102.127 5.22339H23.2583C22.7153 5.22339 22.2773 5.66239 22.2773 6.20539V15.0414H103.109Z" fill="#2C295B"/>
<path d="M69.4024 10.4593C69.4024 11.0013 68.9634 11.4413 68.4214 11.4413H28.0044C27.4614 11.4413 27.0234 11.0013 27.0234 10.4593V9.80427C27.0234 9.26227 27.4624 8.82227 28.0044 8.82227H68.4204C68.9624 8.82227 69.4014 9.26227 69.4014 9.80427V10.4593H69.4024Z" fill="#00B1DE"/>
<path d="M88.7914 10.1323C88.7914 11.1263 87.9854 11.9323 86.9914 11.9323C85.9984 11.9323 85.1914 11.1263 85.1914 10.1323C85.1914 9.13828 85.9984 8.33228 86.9914 8.33228C87.9854 8.33228 88.7914 9.13828 88.7914 10.1323Z" fill="#00B1DE"/>
<path d="M93.2513 10.1323C93.2513 11.1263 92.4453 11.9323 91.4513 11.9323C90.4573 11.9323 89.6523 11.1263 89.6523 10.1323C89.6523 9.13828 90.4573 8.33228 91.4513 8.33228C92.4453 8.33228 93.2513 9.13828 93.2513 10.1323Z" fill="#00B1DE"/>
<path d="M97.7094 10.1323C97.7094 11.1263 96.9034 11.9323 95.9104 11.9323C94.9154 11.9323 94.1094 11.1263 94.1094 10.1323C94.1094 9.13828 94.9154 8.33228 95.9104 8.33228C96.9034 8.33228 97.7094 9.13828 97.7094 10.1323Z" fill="#00B1DE"/>
<path d="M34.1107 17.6743H30.5117V43.3663H34.1107V17.6743Z" fill="#2D419A"/>
<path d="M52.2435 17.6743H48.6445V43.3663H52.2435V17.6743Z" fill="#FFD145"/>
<path d="M40.1537 23.5374H36.5547V43.3674H40.1537V23.5374Z" fill="#00B1DE"/>
<path d="M46.2006 26.3623H42.6016V43.3663H46.2006V26.3623Z" fill="#F5825E"/>
<path d="M58.2875 26.3623H54.6875V43.3663H58.2875V26.3623Z" fill="#2C295B"/>
<path d="M64.3334 29.0933H60.7344V43.3663H64.3334V29.0933Z" fill="#0086CB"/>
<path d="M94.8756 22.0044H70.0156V23.5594H94.8756V22.0044Z" fill="#2C295B"/>
<path d="M94.8756 25.8965H70.0156V27.4515H94.8756V25.8965Z" fill="#2C295B"/>
<path d="M94.8756 29.7864H70.0156V31.3414H94.8756V29.7864Z" fill="#2C295B"/>
<path d="M94.8756 33.6775H70.0156V35.2325H94.8756V33.6775Z" fill="#2C295B"/>
<path d="M94.8756 37.5684H70.0156V39.1234H94.8756V37.5684Z" fill="#2C295B"/>
<path d="M94.8756 41.4595H70.0156V43.0145H94.8756V41.4595Z" fill="#2C295B"/>
<path d="M94.8757 47.3264H30.5117V60.7034H94.8757V47.3264Z" fill="#2C295B"/>
<path d="M209.349 122.205C209.349 122.747 208.91 123.187 208.367 123.187H129.498C128.955 123.187 128.516 122.747 128.516 122.205V64.6085C128.516 64.0655 128.955 63.6265 129.498 63.6265H208.367C208.91 63.6265 209.349 64.0655 209.349 64.6085V122.205Z" fill="#ABDFF9"/>
<path d="M209.349 73.4435V64.6075C209.349 64.0645 208.91 63.6255 208.367 63.6255H129.498C128.955 63.6255 128.516 64.0645 128.516 64.6075V73.4435H209.349Z" fill="#2C295B"/>
<path d="M175.642 68.8616C175.642 69.4036 175.203 69.8436 174.66 69.8436H134.244C133.702 69.8436 133.262 69.4036 133.262 68.8616V68.2066C133.262 67.6646 133.701 67.2246 134.244 67.2246H174.66C175.202 67.2246 175.642 67.6646 175.642 68.2066V68.8616Z" fill="#00B1DE"/>
<path d="M195.03 68.5344C195.03 69.5284 194.224 70.3344 193.23 70.3344C192.236 70.3344 191.43 69.5284 191.43 68.5344C191.43 67.5404 192.236 66.7344 193.23 66.7344C194.224 66.7344 195.03 67.5404 195.03 68.5344Z" fill="#00B1DE"/>
<path d="M199.49 68.5344C199.49 69.5284 198.685 70.3344 197.69 70.3344C196.696 70.3344 195.891 69.5284 195.891 68.5344C195.891 67.5404 196.696 66.7344 197.69 66.7344C198.685 66.7344 199.49 67.5404 199.49 68.5344Z" fill="#00B1DE"/>
<path d="M203.948 68.5344C203.948 69.5284 203.142 70.3344 202.149 70.3344C201.155 70.3344 200.348 69.5284 200.348 68.5344C200.348 67.5404 201.155 66.7344 202.149 66.7344C203.142 66.7344 203.948 67.5404 203.948 68.5344Z" fill="#00B1DE"/>
<path d="M177.702 111.41C177.26 111.41 176.825 111.2 176.554 110.81C176.115 110.177 176.272 109.307 176.905 108.868L192.381 98.1315L176.935 87.9975C176.29 87.5745 176.111 86.7095 176.534 86.0645C176.957 85.4205 177.823 85.2405 178.467 85.6635L195.642 96.9315C196.03 97.1855 196.266 97.6165 196.272 98.0805C196.278 98.5435 196.053 98.9805 195.672 99.2455L178.496 111.161C178.254 111.329 177.977 111.41 177.702 111.41Z" fill="#2C295B"/>
<path d="M159.355 111.063C159.08 111.063 158.803 110.982 158.56 110.814L141.385 98.8993C141.004 98.6353 140.779 98.1983 140.785 97.7343C140.791 97.2703 141.027 96.8393 141.415 96.5853L158.59 85.3163C159.235 84.8933 160.1 85.0733 160.523 85.7173C160.946 86.3623 160.766 87.2273 160.122 87.6503L144.676 97.7843L160.152 108.52C160.785 108.959 160.943 109.829 160.503 110.462C160.231 110.853 159.796 111.063 159.355 111.063Z" fill="#2C295B"/>
<path d="M163.342 119.589C163.233 119.589 163.122 119.576 163.011 119.549C162.262 119.367 161.803 118.612 161.985 117.863L171.599 78.3205C171.781 77.5715 172.537 77.1125 173.285 77.2945C174.034 77.4765 174.493 78.2315 174.311 78.9805L164.697 118.523C164.542 119.161 163.971 119.589 163.342 119.589Z" fill="#2C295B"/>
<path d="M-4.90923 91.3886C-4.90923 91.3886 1.53877 91.4606 0.234773 78.3716C0.234773 78.3716 -9.11423 85.1556 -5.56823 91.1276L-4.90923 91.3886Z" fill="#ABDFF9"/>
<path d="M21.1376 60.4955C21.1376 60.4955 15.2206 63.0605 11.3516 50.4895C11.3516 50.4895 22.5976 53.1205 21.6446 60.0005L21.1376 60.4955Z" fill="#00B1DE"/>
<path d="M22.2325 59.6765C22.2325 59.6765 28.0785 62.3995 32.2855 49.9375C32.2855 49.9375 20.9725 52.2655 21.7405 59.1675L22.2325 59.6765Z" fill="#00B1DE"/>
<path d="M20.9812 71.0905C20.9812 71.0905 14.6892 73.8195 10.5742 60.4495C10.5742 60.4495 22.5332 63.2475 21.5202 70.5645L20.9812 71.0905Z" fill="#00B1DE"/>
<path d="M22.141 70.2206C22.141 70.2206 28.358 73.1155 32.832 59.8625C32.832 59.8625 20.8 62.3386 21.618 69.6786L22.141 70.2206Z" fill="#00B1DE"/>
<path d="M20.7775 83.1295C20.7775 83.1295 13.8205 86.1475 9.26953 71.3625C9.26953 71.3625 22.4955 74.4565 21.3735 82.5475L20.7775 83.1295Z" fill="#00B1DE"/>
<path d="M22.0646 82.1666C22.0646 82.1666 28.9376 85.3686 33.8856 70.7136C33.8856 70.7136 20.5806 73.4516 21.4856 81.5686L22.0646 82.1666Z" fill="#00B1DE"/>
<path d="M20.7791 95.8105C20.7791 95.8105 13.8051 98.8355 9.24609 84.0195C9.24609 84.0195 22.5001 87.1205 21.3761 95.2275L20.7791 95.8105Z" fill="#00B1DE"/>
<path d="M22.0656 94.8466C22.0656 94.8466 28.9546 98.0556 33.9126 83.3696C33.9126 83.3696 20.5796 86.1126 21.4856 94.2476L22.0656 94.8466Z" fill="#00B1DE"/>
<path d="M19.6854 105.273C19.6854 105.273 14.6754 107.446 11.3984 96.8005C11.3984 96.8005 20.9214 99.0285 20.1144 104.854L19.6854 105.273Z" fill="#00B1DE"/>
<path d="M20.6539 104.892C20.6539 104.892 25.2539 107.834 30.1849 97.8486C30.1849 97.8486 20.4279 98.5316 20.2969 104.41L20.6539 104.892Z" fill="#00B1DE"/>
<path d="M20.0235 113.02C20.0235 113.02 23.8015 115.437 27.8535 107.234C27.8535 107.234 19.8385 107.795 19.7305 112.624L20.0235 113.02Z" fill="#00B1DE"/>
<path d="M19.873 113.02C19.873 113.02 16.094 115.437 12.043 107.234C12.043 107.234 20.058 107.795 20.165 112.624L19.873 113.02Z" fill="#00B1DE"/>
<path d="M-0.32099 101.394C-0.32099 101.394 7.08901 101.475 5.59001 86.4365C5.59001 86.4365 -5.15099 94.2305 -1.07799 101.094L-0.32099 101.394Z" fill="#ABDFF9"/>
<path d="M3.12409 113.045C3.12409 113.045 -2.44291 119.181 -13.6289 106.516C-13.6289 106.516 0.928094 103.64 3.45409 112.197L3.12409 113.045Z" fill="#ABDFF9"/>
<path d="M3.73737 112.177C3.73737 112.177 12.0204 112.267 10.3444 95.4546C10.3444 95.4546 -1.66363 104.169 2.89037 111.842L3.73737 112.177Z" fill="#ABDFF9"/>
<path d="M6.63712 125.639C6.63712 125.639 0.602125 131.315 -9.54688 117.806C-9.54688 117.806 5.19113 116.091 7.03313 124.82L6.63712 125.639Z" fill="#ABDFF9"/>
<path d="M7.31781 124.82C7.31781 124.82 15.5678 125.566 15.2268 108.674C15.2268 108.674 2.56682 116.412 6.49982 124.42L7.31781 124.82Z" fill="#ABDFF9"/>
<path d="M44.7889 94.4336C44.7889 94.4336 49.3189 99.0236 57.6049 88.8076C57.6049 88.8076 46.1899 87.0476 44.5039 93.7846L44.7889 94.4336Z" fill="#2C295B"/>
<path d="M44.2833 93.7778C44.2833 93.7778 37.8442 94.1198 38.5962 80.9888C38.5962 80.9888 48.2212 87.3738 44.9292 93.4898L44.2833 93.7778Z" fill="#2C295B"/>
<path d="M40.702 104.721C40.702 104.721 45.908 109.995 55.429 98.2557C55.429 98.2557 42.312 96.2327 40.375 103.975L40.702 104.721Z" fill="#2C295B"/>
<path d="M40.1201 103.966C40.1201 103.966 32.7201 104.359 33.5861 89.2695C33.5861 89.2695 44.6451 96.6065 40.8641 103.635L40.1201 103.966Z" fill="#2C295B"/>
<path d="M37.1658 115.754C37.1658 115.754 42.9858 121.65 53.6298 108.527C53.6298 108.527 38.9658 106.265 36.8008 114.92L37.1658 115.754Z" fill="#2C295B"/>
<path d="M36.5195 114.91C36.5195 114.91 28.2475 115.349 29.2155 98.4797C29.2155 98.4797 41.5785 106.683 37.3515 114.539L36.5195 114.91Z" fill="#2C295B"/>
<path d="M34.1878 128.482C34.1878 128.482 40.4558 133.9 50.0288 119.975C50.0288 119.975 35.2318 118.881 33.7578 127.68L34.1878 128.482Z" fill="#2C295B"/>
<path d="M33.4716 127.693C33.4716 127.693 25.2596 128.785 24.8906 111.893C24.8906 111.893 37.8636 119.093 34.2716 127.257L33.4716 127.693Z" fill="#2C295B"/>
<path d="M30 146.653C30 146.653 32.321 121.78 47.855 85.9536" stroke="#2D419A" stroke-miterlimit="10"/>
<path d="M47.0779 86.2546C47.0779 86.2546 42.8669 81.3716 53.7139 73.9316C53.7139 73.9316 54.5529 85.4516 47.7019 86.5916L47.0779 86.2546Z" fill="#2C295B"/>
<path d="M17.3867 144.737C17.3867 144.737 23.7057 72.2776 21.0487 51.5496" stroke="#2D419A" stroke-miterlimit="10"/>
<path d="M21.1609 52.0536C21.1609 52.0536 26.8909 49.0976 19.6089 38.1436C19.6089 38.1436 14.5269 48.5155 20.4569 52.1315L21.1609 52.0536Z" fill="#00B1DE"/>
<path d="M11.5843 143.618C11.5843 143.618 8.22131 118.865 -8.80469 83.7227" stroke="#2D419A" stroke-miterlimit="10"/>
<path d="M290.434 55.2775C290.434 55.8435 289.976 56.3035 289.409 56.3035H207.033C206.467 56.3035 206.008 55.8435 206.008 55.2775V-4.88052C206.008 -5.44752 206.467 -5.90552 207.033 -5.90552H289.409C289.976 -5.90552 290.434 -5.44652 290.434 -4.88052V55.2775Z" fill="#ABDFF9"/>
<path d="M290.434 4.34748V-4.88052C290.434 -5.44752 289.976 -5.90552 289.409 -5.90552H207.033C206.467 -5.90552 206.008 -5.44652 206.008 -4.88052V4.34848L290.434 4.34748Z" fill="#2C295B"/>
<path d="M255.228 -0.437485C255.228 0.128515 254.77 0.587517 254.203 0.587517H211.99C211.423 0.587517 210.965 0.128515 210.965 -0.437485V-1.12149C210.965 -1.68749 211.423 -2.14648 211.99 -2.14648H254.203C254.77 -2.14648 255.228 -1.68749 255.228 -1.12149V-0.437485Z" fill="#00B1DE"/>
<path d="M285.362 10.3755H211.188V34.6445H285.362V10.3755Z" fill="#2C295B"/>
<path d="M224.166 22.5056C224.299 22.6516 214.59 22.5206 214.59 22.5206C214.587 19.9186 215.638 17.3246 217.712 15.4326L224.166 22.5056Z" fill="#ABDFF9"/>
<path d="M231.238 16.0506C231.238 16.0506 228.071 18.9406 224.165 22.5056L217.711 15.4326C221.617 11.8686 227.674 12.1456 231.238 16.0506Z" fill="#F5825E"/>
<path d="M217.102 28.9667C217.102 28.9667 220.269 26.0767 224.174 22.5127L230.629 29.5857C226.722 33.1507 220.666 32.8737 217.102 28.9667Z" fill="#00B1DE"/>
<path d="M224.165 22.5056L217.092 28.9596C215.42 27.1276 214.593 24.8196 214.59 22.5206L224.165 22.5056Z" fill="#2D419A"/>
<path d="M224.173 22.5146C224.039 22.3686 233.748 22.4986 233.748 22.4986C233.751 25.1006 232.701 27.6946 230.627 29.5866L224.173 22.5146Z" fill="#FFD145"/>
<path d="M224.172 22.5146L231.245 16.0596C232.917 17.8926 233.744 20.1986 233.747 22.4986L224.172 22.5146Z" fill="#0086CB"/>
<path d="M248.276 22.5054C248.129 22.6384 248.311 12.9304 248.311 12.9304C250.913 12.9404 253.501 14.0044 255.382 16.0884L248.276 22.5054Z" fill="#ABDFF9"/>
<path d="M254.694 29.6124C254.694 29.6124 251.821 26.4304 248.277 22.5064L255.383 16.0894C258.927 20.0134 258.619 26.0684 254.694 29.6124Z" fill="#F5825E"/>
<path d="M241.853 15.4055C241.853 15.4055 244.725 18.5875 248.27 22.5115L241.163 28.9285C237.62 25.0045 237.928 18.9495 241.853 15.4055Z" fill="#00B1DE"/>
<path d="M248.276 22.5055L241.859 15.3995C243.7 13.7365 246.011 12.9215 248.311 12.9315L248.276 22.5055Z" fill="#2D419A"/>
<path d="M248.271 22.5135C248.418 22.3815 248.236 32.0885 248.236 32.0885C245.634 32.0775 243.046 31.0145 241.164 28.9305L248.271 22.5135Z" fill="#FFD145"/>
<path d="M248.269 22.5134L254.686 29.6194C252.844 31.2824 250.534 32.0974 248.234 32.0884L248.269 22.5134Z" fill="#0086CB"/>
<path d="M284.154 38.8054H212.395V40.4284H284.154V38.8054Z" fill="#2C295B"/>
<path d="M284.154 42.8694H212.395V44.4934H284.154V42.8694Z" fill="#2C295B"/>
<path d="M284.154 46.9333H212.395V48.5574H284.154V46.9333Z" fill="#2C295B"/>
<path d="M40.6836 133.492L58.5996 155.789L73.3676 133.446L87.3746 159.316L103.812 105.573L117.962 144.309L134.544 151.167L137.544 172.464L154.982 149.738" stroke="white" stroke-width="1.8216" stroke-miterlimit="10" stroke-linecap="round" stroke-linejoin="round"/>
<path d="M107.017 106.91C107.017 108.805 105.481 110.339 103.587 110.339C101.693 110.339 100.156 108.805 100.156 106.91C100.156 105.016 101.694 103.48 103.587 103.48C105.481 103.48 107.017 105.016 107.017 106.91Z" fill="#FFFEFE"/>
<rect x="33" y="34" width="31" height="31" rx="9" transform="rotate(-180 33 34)" fill="#8A3FFC"/>
<path d="M17.712 16.588L17.194 19.01H19.042V20.41H16.9L16.34 23H14.814L15.374 20.41H12.63L12.07 23H10.544L11.104 20.41H8.934V19.01H11.398L11.916 16.588H9.76V15.188H12.21L12.756 12.64H14.282L13.736 15.188H16.48L17.026 12.64H18.552L18.006 15.188H19.868V16.588H17.712ZM16.186 16.588H13.442L12.924 19.01H15.668L16.186 16.588ZM21.339 14.25V12.794H24.251V23H22.641V14.25H21.339Z" fill="white"/>
</g>
<defs>
<clipPath id="clip0_951_5558">
<rect width="250" height="120" rx="10" fill="white"/>
</clipPath>
</defs>
</svg>
