<svg width="29" height="27" viewBox="0 0 29 27" fill="none" xmlns="http://www.w3.org/2000/svg">
<path d="M23.0913 0.5H6.54581C4.9792 0.501877 3.47729 1.12504 2.36952 2.23281C1.26176 3.34057 0.638595 4.84248 0.636719 6.40909L0.636719 20.5909C0.638595 22.1575 1.26176 23.6594 2.36952 24.7672C3.47729 25.875 4.9792 26.4981 6.54581 26.5H23.0913C24.6579 26.4981 26.1598 25.875 27.2676 24.7672C28.3753 23.6594 28.9985 22.1575 29.0004 20.5909V6.40909C28.9985 4.84248 28.3753 3.34057 27.2676 2.23281C26.1598 1.12504 24.6579 0.501877 23.0913 0.5ZM6.54581 2.86364H23.0913C23.7989 2.86503 24.49 3.07815 25.0755 3.47559C25.661 3.87302 26.1142 4.43657 26.3767 5.09373L17.3264 14.1453C16.6603 14.8086 15.7586 15.1811 14.8185 15.1811C13.8785 15.1811 12.9768 14.8086 12.3107 14.1453L3.26036 5.09373C3.52289 4.43657 3.97608 3.87302 4.56159 3.47559C5.14711 3.07815 5.83816 2.86503 6.54581 2.86364ZM23.0913 24.1364H6.54581C5.6055 24.1364 4.7037 23.7628 4.0388 23.0979C3.37389 22.433 3.00036 21.5312 3.00036 20.5909V8.18182L10.6396 15.8164C11.7489 16.9228 13.2518 17.5442 14.8185 17.5442C16.3853 17.5442 17.8882 16.9228 18.9974 15.8164L26.6367 8.18182V20.5909C26.6367 21.5312 26.2632 22.433 25.5983 23.0979C24.9334 23.7628 24.0316 24.1364 23.0913 24.1364Z" fill="#66676A"/>
</svg>
