<svg width="518" height="327" viewBox="0 0 518 327" fill="none" xmlns="http://www.w3.org/2000/svg">
<path d="M175.079 293.056C101.191 257.188 38.1572 183.687 115.547 122.334C192.938 60.9806 320.932 23.6353 377.486 71.6508C434.041 119.666 404.275 146.342 471.249 166.348C538.222 186.354 527.803 290.388 408.74 303.726C289.677 317.063 210.798 310.395 175.079 293.056Z" fill="#EDEBFC"/>
<path d="M361.93 84.0878C361.495 83.4411 361.049 82.8072 360.594 82.1875" stroke="#ACA9FF" stroke-width="1.8745" stroke-miterlimit="10" stroke-linecap="round"/>
<path d="M357.672 78.5911C355.669 76.3577 353.484 74.3806 351.099 72.7285C337.33 63.19 322.015 62.1763 310.333 65.4438C298.651 68.7113 290.601 76.2592 291.363 83.8431C292.199 92.1543 311.829 90.7699 321.149 78.8423C330.234 67.2163 338.66 31.311 278.297 17.1372" stroke="#ACA9FF" stroke-width="1.8745" stroke-miterlimit="10" stroke-linecap="round" stroke-dasharray="5.91 5.91"/>
<path d="M275.896 16.5935C275.095 16.4183 274.282 16.2468 273.457 16.0791" stroke="#ACA9FF" stroke-width="1.8745" stroke-miterlimit="10" stroke-linecap="round"/>
<path d="M233.52 10.5188L253.638 21.0823L258.264 16.007L266.115 16.9094L264.668 8.98023L270.58 2.49268L233.52 10.5188Z" fill="#514FF1"/>
<path d="M258.266 16.007L266.117 16.9094L261.167 12.9546L258.266 16.007Z" fill="#ACA9FF"/>
<path d="M261.165 12.9543L258.264 16.0067L253.638 21.082L233.52 10.5186L261.165 12.9543Z" fill="#ACA9FF"/>
<path d="M359.897 18.1569H344.75V12.3394C344.75 6.9844 349.594 2.64307 355.57 2.64307C361.545 2.64307 366.389 6.9844 366.389 12.3394C366.389 15.552 363.482 18.1569 359.897 18.1569Z" fill="#ACA9FF"/>
<path d="M348.36 18.1568H337.055V13.8147C337.055 9.81776 340.67 6.57812 345.13 6.57812C349.59 6.57812 353.205 9.81776 353.205 13.8147C353.205 16.2128 351.036 18.1568 348.36 18.1568Z" fill="#ACA9FF"/>
<path d="M358.265 18.1568H336.302C333.644 18.1568 331.488 16.2257 331.488 13.8426C331.488 11.4602 333.643 9.52832 336.302 9.52832H358.265V18.1568Z" fill="#ACA9FF"/>
<path d="M429.581 102.274H414.434V96.4561C414.434 91.1011 419.278 86.7598 425.252 86.7598C431.228 86.7598 436.072 91.1011 436.072 96.4561C436.072 99.6687 433.165 102.274 429.581 102.274Z" fill="#ACA9FF"/>
<path d="M418.044 102.273H406.738V97.9314C406.738 93.9345 410.353 90.6948 414.813 90.6948C419.273 90.6948 422.888 93.9352 422.888 97.9314C422.889 100.33 420.72 102.273 418.044 102.273Z" fill="#ACA9FF"/>
<path d="M427.948 102.274H405.986C403.328 102.274 401.172 100.343 401.172 97.9598C401.172 95.5774 403.327 93.6455 405.986 93.6455H427.948V102.274Z" fill="#ACA9FF"/>
<path d="M202.119 59.4824H138.602V97.3429H202.119V59.4824Z" fill="white"/>
<path d="M201.333 60.1869V96.6373H139.389V60.1869H201.333ZM202.907 58.7769H137.816V98.0466H202.907V58.7769Z" fill="#ACA9FF"/>
<path d="M202.907 57.9048H137.816V68.1494H202.907V57.9048Z" fill="#514FF1"/>
<path d="M151.202 73.8989H146.652V77.9763H151.202V73.8989Z" fill="#ACA9FF"/>
<path d="M159.776 73.8989H155.227V77.9763H159.776V73.8989Z" fill="#FF6700"/>
<path d="M168.347 73.8989H163.797V77.9763H168.347V73.8989Z" fill="#ACA9FF"/>
<path d="M176.925 73.8989H172.375V77.9763H176.925V73.8989Z" fill="#ACA9FF"/>
<path d="M185.495 73.8989H180.945V77.9763H185.495V73.8989Z" fill="#ACA9FF"/>
<path d="M194.069 73.8989H189.52V77.9763H194.069V73.8989Z" fill="#FF6700"/>
<path d="M151.202 80.7993H146.652V84.8767H151.202V80.7993Z" fill="#ACA9FF"/>
<path d="M159.776 80.7993H155.227V84.8767H159.776V80.7993Z" fill="#ACA9FF"/>
<path d="M168.347 80.7993H163.797V84.8767H168.347V80.7993Z" fill="#ACA9FF"/>
<path d="M176.925 80.7993H172.375V84.8767H176.925V80.7993Z" fill="#FF6700"/>
<path d="M185.495 80.7993H180.945V84.8767H185.495V80.7993Z" fill="#ACA9FF"/>
<path d="M194.069 80.7993H189.52V84.8767H194.069V80.7993Z" fill="#ACA9FF"/>
<path d="M151.202 87.6978H146.652V91.7751H151.202V87.6978Z" fill="#ACA9FF"/>
<path d="M159.776 87.6978H155.227V91.7751H159.776V87.6978Z" fill="#FF6700"/>
<path d="M168.347 87.6978H163.797V91.7751H168.347V87.6978Z" fill="#ACA9FF"/>
<path d="M176.925 87.6978H172.375V91.7751H176.925V87.6978Z" fill="#ACA9FF"/>
<path d="M185.495 87.6978H180.945V91.7751H185.495V87.6978Z" fill="#ACA9FF"/>
<path d="M194.069 87.6978H189.52V91.7751H194.069V87.6978Z" fill="#ACA9FF"/>
<path d="M152.688 61.9811C151.335 61.9811 150.238 60.9983 150.238 59.786V56.0223C150.238 54.81 151.335 53.8271 152.688 53.8271C154.04 53.8271 155.137 54.81 155.137 56.0223V59.786C155.137 60.9983 154.04 61.9811 152.688 61.9811Z" fill="#ACA9FF"/>
<path d="M188.031 61.9811C186.679 61.9811 185.582 60.9983 185.582 59.786V56.0223C185.582 54.81 186.679 53.8271 188.031 53.8271C189.384 53.8271 190.481 54.81 190.481 56.0223V59.786C190.481 60.9983 189.384 61.9811 188.031 61.9811Z" fill="#ACA9FF"/>
<path d="M435.372 53.3969C450.802 53.3969 463.311 42.187 463.311 28.3588C463.311 14.5307 450.802 3.3208 435.372 3.3208C419.942 3.3208 407.434 14.5307 407.434 28.3588C407.434 42.187 419.942 53.3969 435.372 53.3969Z" fill="#ACA9FF"/>
<path d="M437.16 28.8912H433.594V17.9706C433.594 17.0877 434.392 16.3726 435.377 16.3726C436.362 16.3726 437.16 17.0877 437.16 17.9706V28.8912Z" fill="#211380"/>
<path d="M436.812 29.9568V26.7607H443.301C444.287 26.7607 445.085 27.4759 445.085 28.3588C445.085 29.2416 444.286 29.9568 443.301 29.9568H436.812Z" fill="#211380"/>
<path d="M434.086 6.25049V10.2459" stroke="#211380" stroke-width="1.4168" stroke-miterlimit="10" stroke-linecap="round"/>
<path d="M451.789 12.1606L448.637 14.9859" stroke="#211380" stroke-width="1.4168" stroke-miterlimit="10" stroke-linecap="round"/>
<path d="M459.646 27.5591H455.188" stroke="#211380" stroke-width="1.4168" stroke-miterlimit="10" stroke-linecap="round"/>
<path d="M453.051 43.4259L449.898 40.6006" stroke="#211380" stroke-width="1.4168" stroke-miterlimit="10" stroke-linecap="round"/>
<path d="M435.871 50.4661V46.4707" stroke="#211380" stroke-width="1.4168" stroke-miterlimit="10" stroke-linecap="round"/>
<path d="M418.164 44.5562L421.316 41.731" stroke="#211380" stroke-width="1.4168" stroke-miterlimit="10" stroke-linecap="round"/>
<path d="M410.309 29.1572H414.766" stroke="#211380" stroke-width="1.4168" stroke-miterlimit="10" stroke-linecap="round"/>
<path d="M416.902 13.2905L420.055 16.1158" stroke="#211380" stroke-width="1.4168" stroke-miterlimit="10" stroke-linecap="round"/>
<path d="M435.376 32.0873C433.082 32.0873 431.215 30.4148 431.215 28.3581C431.215 26.3021 433.082 24.6289 435.376 24.6289C437.67 24.6289 439.537 26.3014 439.537 28.3581C439.537 30.4148 437.67 32.0873 435.376 32.0873Z" fill="#514FF1"/>
<path d="M150.914 1.76904V5.35536" stroke="#FF6700" stroke-width="1.9061" stroke-miterlimit="10" stroke-linecap="round"/>
<path d="M165.564 7.07373L162.734 9.60949" stroke="#FF6700" stroke-width="1.9061" stroke-miterlimit="10" stroke-linecap="round"/>
<path d="M172.619 20.8955H168.617" stroke="#FF6700" stroke-width="1.9061" stroke-miterlimit="10" stroke-linecap="round"/>
<path d="M166.701 35.1378L163.871 32.6021" stroke="#FF6700" stroke-width="1.9061" stroke-miterlimit="10" stroke-linecap="round"/>
<path d="M151.277 41.4569V37.8706" stroke="#FF6700" stroke-width="1.9061" stroke-miterlimit="10" stroke-linecap="round"/>
<path d="M136.621 36.1522L139.451 33.6157" stroke="#FF6700" stroke-width="1.9061" stroke-miterlimit="10" stroke-linecap="round"/>
<path d="M129.57 22.3301H133.572" stroke="#FF6700" stroke-width="1.9061" stroke-miterlimit="10" stroke-linecap="round"/>
<path d="M135.488 8.08789L138.318 10.6237" stroke="#FF6700" stroke-width="1.9061" stroke-miterlimit="10" stroke-linecap="round"/>
<path d="M156.227 23.9013H146.281V14.8343C146.281 12.373 148.507 10.3779 151.254 10.3779C154 10.3779 156.227 12.373 156.227 14.8343V23.9013Z" fill="#FDA702"/>
<path d="M148.915 29.1021H153.588V30.7535C153.588 31.91 152.542 32.8478 151.251 32.8478C149.96 32.8478 148.914 31.91 148.914 30.7535V29.1021H148.915Z" fill="#FDA702"/>
<path d="M158.596 26.0525H143.91V21.5683C143.91 17.9339 147.198 14.9883 151.253 14.9883C155.308 14.9883 158.595 17.9346 158.595 21.5683L158.596 26.0525Z" fill="#FDA702"/>
<path d="M159.093 28.526H143.413C142.303 28.526 141.402 27.7191 141.402 26.7242C141.402 25.7293 142.303 24.9224 143.413 24.9224H159.093C160.203 24.9224 161.103 25.7293 161.103 26.7242C161.103 27.7191 160.203 28.526 159.093 28.526Z" fill="#FDA702"/>
<path d="M256.721 60.083H228.016V77.8371H256.721V60.083Z" fill="white" stroke="#ACA9FF" stroke-width="1.8745" stroke-miterlimit="10" stroke-linecap="round" stroke-linejoin="round"/>
<path d="M256.721 77.8371H242.368H228.016L242.368 60.083L256.721 77.8371Z" fill="white" stroke="#ACA9FF" stroke-width="1.8745" stroke-miterlimit="10" stroke-linecap="round" stroke-linejoin="round"/>
<path d="M228.016 60.083H242.368H256.721L242.368 72.4024L228.016 60.083Z" fill="white" stroke="#ACA9FF" stroke-width="1.8745" stroke-miterlimit="10" stroke-linecap="round" stroke-linejoin="round"/>
<path d="M217.669 49.0265V28.7825C217.669 27.565 216.567 26.5776 215.208 26.5776H190.07C188.711 26.5776 187.609 27.565 187.609 28.7825V41.9727C187.609 43.1902 188.711 44.1776 190.07 44.1776H212.458L217.669 49.0265Z" fill="#211380"/>
<path d="M208.855 35.5574C208.855 36.3508 209.573 36.9938 210.459 36.9938C211.344 36.9938 212.062 36.3508 212.062 35.5574C212.062 34.7641 211.344 34.1211 210.459 34.1211C209.573 34.1203 208.855 34.7633 208.855 35.5574Z" fill="white"/>
<path d="M202.639 36.9943C203.524 36.9943 204.242 36.3509 204.242 35.5572C204.242 34.7635 203.524 34.1201 202.639 34.1201C201.753 34.1201 201.035 34.7635 201.035 35.5572C201.035 36.3509 201.753 36.9943 202.639 36.9943Z" fill="white"/>
<path d="M194.826 36.9943C195.712 36.9943 196.43 36.3509 196.43 35.5572C196.43 34.7635 195.712 34.1201 194.826 34.1201C193.941 34.1201 193.223 34.7635 193.223 35.5572C193.223 36.3509 193.941 36.9943 194.826 36.9943Z" fill="white"/>
<path d="M259.2 326.231C402.13 326.231 517.998 320.807 517.998 314.117C517.998 307.426 402.13 302.002 259.2 302.002C116.27 302.002 0.402344 307.426 0.402344 314.117C0.402344 320.807 116.27 326.231 259.2 326.231Z" fill="#211380"/>
<path d="M324.979 133.012C324.979 133.012 315.471 197.417 294.278 187.899C277.377 180.309 294.794 152.522 298.449 146.959C303.41 139.411 311.934 134.16 321.644 133.159C322.788 133.041 323.909 132.985 324.979 133.012Z" fill="#211380"/>
<path d="M317.946 146.959C314.857 151.661 301.939 172.239 308.219 183.079C316.369 172.939 321.397 151.944 323.625 140.629C321.441 142.485 319.502 144.592 317.946 146.959Z" fill="#0D0666"/>
<path d="M367.069 138.894C373.686 148.536 388.172 172.853 392.163 205.861C383.794 211.413 320.418 204.502 315.328 203.314C310.238 202.127 312.081 135.727 322.949 133.096C333.039 130.653 345.593 129.828 357.465 132.538C361.47 133.454 364.905 135.74 367.069 138.894Z" fill="#211380"/>
<path d="M366.988 138.673C364.823 135.518 361.388 133.232 357.385 132.319C350.492 130.745 343.372 130.365 336.637 130.8C340.26 131.833 343.357 133.993 345.36 136.912C351.978 146.553 366.464 170.872 370.454 203.88C366.949 206.205 355.579 206.393 343.179 205.744C361.058 207.641 386.507 209.341 392.082 205.641C388.091 172.633 373.605 148.315 366.988 138.673Z" fill="#0D0666"/>
<path d="M357.203 133.012C357.203 133.012 366.71 197.417 387.903 187.899C404.804 180.309 387.387 152.522 383.732 146.959C378.772 139.411 370.247 134.16 360.538 133.159C359.394 133.041 358.273 132.985 357.203 133.012Z" fill="#211380"/>
<path d="M357.203 133.012C357.203 133.012 366.71 197.417 387.903 187.899C404.804 180.309 387.387 152.522 383.732 146.959C378.772 139.411 370.247 134.16 360.538 133.159C359.394 133.041 358.273 132.985 357.203 133.012Z" fill="#0D0666"/>
<path d="M380.945 146.13C383.148 148.835 389.684 157.163 393.242 165.816C390.475 157.532 385.498 149.648 383.731 146.959C378.772 139.411 370.247 134.16 360.537 133.159C359.394 133.041 358.273 132.985 357.203 133.012C357.203 133.012 357.281 133.542 357.437 134.486C366.79 134.931 375.395 139.32 380.945 146.13Z" fill="#211380"/>
<path d="M390.073 176.203C390.065 170.143 388.215 164.201 384.955 158.891C382.128 154.283 378.138 147.738 375.867 143.822C375.603 143.368 375.212 143.01 374.741 142.719L374.395 141.119C374.534 140.96 374.688 140.823 374.821 140.656C374.927 140.524 375 140.386 375.099 140.253C375.264 140.114 375.442 139.986 375.568 139.805L376.124 139.101C372.348 136.375 367.91 134.455 363.106 133.569C360.308 137.266 359.963 141.53 362.142 143.818C361.159 144.356 360.4 145.372 359.844 146.731C363.219 161.692 369.898 184.058 380.289 188.185C388.14 188.506 390.082 182.363 390.073 176.203Z" fill="#0D0666"/>
<path d="M343.198 146.477C349.351 147.854 355.584 144.502 357.12 138.988L361.552 123.089L339.273 118.102L334.841 134.001C333.304 139.514 337.046 145.1 343.198 146.477Z" fill="#F8AD7D"/>
<path d="M339.271 118.101L339.148 118.541L356.021 122.318L351.589 138.216C350.376 142.571 346.231 145.566 341.511 145.96C342.053 146.164 342.61 146.345 343.197 146.477C349.35 147.854 355.583 144.501 357.119 138.987L361.551 123.088L339.271 118.101Z" fill="#F56449"/>
<path d="M356.689 140.182C356.854 139.795 357.003 139.4 357.118 138.988L361.549 123.089L339.269 118.102L335.637 131.134C337.074 134.502 339.826 137.432 343.681 139.218H343.682C347.867 141.156 352.533 141.382 356.689 140.182Z" fill="#F56449"/>
<path d="M336.203 109.97C332.884 117.949 334.514 125.174 343.579 129.373C352.644 133.572 360.807 130.885 367.097 124.28C374.885 116.105 382.3 107.706 363.573 99.031C344.846 90.3559 340.313 100.089 336.203 109.97Z" fill="#2C0107"/>
<path d="M342.362 115.264C340.758 118.045 336.943 119.134 333.84 117.696C330.736 116.259 329.521 112.839 331.126 110.059C332.729 107.278 336.545 106.189 339.648 107.627C342.75 109.064 343.965 112.483 342.362 115.264Z" fill="#F8AD7D"/>
<path d="M339.873 134.922C348.206 138.782 358.454 135.857 362.761 128.389L368.923 117.707C372.108 112.185 369.695 105.395 363.533 102.54L358.054 100.002C350.575 96.5379 341.378 99.1624 337.513 105.865L332.584 114.41C328.276 121.878 331.54 131.062 339.873 134.922Z" fill="#F8AD7D"/>
<path d="M363.532 102.542L358.053 100.004C357.367 99.6855 356.664 99.4366 355.955 99.2192L358.371 100.339C364.533 103.194 366.946 109.983 363.761 115.505L357.599 126.188C353.836 132.713 345.539 135.768 337.945 133.861C338.557 134.244 339.192 134.607 339.873 134.923H339.874C348.206 138.783 358.454 135.858 362.761 128.39L368.923 117.708C372.106 112.186 369.694 105.395 363.532 102.542Z" fill="#F56449"/>
<path d="M360.443 122.804C358.775 125.696 360.038 129.253 363.266 130.748C366.493 132.243 370.462 131.11 372.13 128.218C373.798 125.326 372.535 121.769 369.307 120.274C366.08 118.779 362.11 119.911 360.443 122.804Z" fill="#F56449"/>
<path d="M338.407 127.289L341.032 128.785C343.319 130.089 346.352 129.485 347.807 127.435L336.9 121.217C335.445 123.267 336.12 125.985 338.407 127.289Z" fill="white"/>
<path opacity="0.5" d="M343.045 114.509C343.71 113.572 345.095 113.296 346.139 113.892C347.184 114.487 347.492 115.729 346.827 116.665C346.827 116.665 346.091 121.505 345.806 121.906C344.129 124.269 336.503 119.921 338.181 117.559C338.466 117.159 343.045 114.509 343.045 114.509Z" fill="#F8AD7D"/>
<path d="M352.305 118C351.919 117.78 351.806 117.322 352.051 116.978L353.185 115.381C353.43 115.036 353.941 114.934 354.325 115.154C354.71 115.374 354.824 115.832 354.579 116.176L353.445 117.772C353.2 118.118 352.69 118.219 352.305 118Z" fill="#2C0107"/>
<path d="M352.197 116.592L356.02 118.771C356.965 119.309 358.218 119.06 358.819 118.213C359.42 117.366 359.141 116.243 358.196 115.705L354.373 113.526C353.428 112.987 352.175 113.237 351.575 114.084C350.974 114.93 351.253 116.052 352.197 116.592Z" fill="#2C0107"/>
<path d="M338.5 110.112C338.115 109.892 338.002 109.435 338.247 109.09L339.38 107.493C339.625 107.148 340.135 107.047 340.521 107.266C340.906 107.486 341.019 107.943 340.774 108.288L339.64 109.885C339.396 110.23 338.885 110.331 338.5 110.112Z" fill="#2C0107"/>
<path d="M338.01 108.502L341.833 110.681C342.778 111.22 344.031 110.97 344.631 110.123C345.232 109.276 344.954 108.154 344.009 107.615L340.186 105.436C339.241 104.897 337.988 105.147 337.387 105.994C336.786 106.841 337.065 107.963 338.01 108.502Z" fill="#2C0107"/>
<path d="M343.876 91.6741C347.549 85.3062 373.674 97.4082 370.001 103.776C366.328 110.144 357.502 112.597 350.288 109.255C343.074 105.913 340.203 98.0414 343.876 91.6741Z" fill="#2C0107"/>
<path d="M365.256 170.824L353.489 142.379C352.243 139.354 363.237 135.717 364.483 138.742L376.25 167.187L365.256 170.824Z" fill="#F8AD7D"/>
<path d="M362.29 139.81L367.169 130.789C367.727 129.575 369.279 128.996 370.634 129.496C371.989 129.996 372.635 131.386 372.077 132.601L367.198 141.622C366.64 142.836 365.089 143.415 363.734 142.915C362.379 142.414 361.732 141.025 362.29 139.81Z" fill="#F8AD7D"/>
<path d="M366.62 142.569C364.072 147.198 359.165 149.696 355.66 148.146C352.155 146.597 351.378 141.588 353.925 136.958C356.473 132.329 361.38 129.832 364.885 131.381C368.391 132.931 369.167 137.94 366.62 142.569Z" fill="#F8AD7D"/>
<path d="M362.94 138.757L362.817 125.675C362.792 124.518 363.82 123.561 365.113 123.54C366.404 123.519 367.471 124.44 367.495 125.598L367.618 138.679C367.643 139.837 366.615 140.793 365.322 140.814C364.031 140.836 362.965 139.915 362.94 138.757Z" fill="#F8AD7D"/>
<path d="M360.34 135.752L358.368 125.813C358.143 124.673 358.99 123.585 360.262 123.382C361.534 123.179 362.749 123.939 362.975 125.079L364.946 135.018C365.172 136.158 364.325 137.246 363.052 137.45C361.78 137.653 360.566 136.892 360.34 135.752Z" fill="#F8AD7D"/>
<path d="M359.275 138.452L351.939 130.792C351.097 129.913 351.211 128.589 352.191 127.836C353.172 127.081 354.649 127.183 355.489 128.061L362.825 135.722C363.667 136.601 363.553 137.925 362.573 138.678C361.593 139.432 360.116 139.331 359.275 138.452Z" fill="#F8AD7D"/>
<path d="M378.683 188.766C360.497 188.605 346.773 151.43 355.221 147.175C358.343 144.884 365.804 142.647 368.224 145.541C371.176 149.073 376.303 154.947 379.931 159.081C384.112 163.844 387.018 169.436 388.129 175.415C389.345 181.971 388.335 188.852 378.683 188.766Z" fill="#211380"/>
<path d="M345.289 182.512L355.514 185.263C356.827 185.695 358.282 185.092 358.764 183.915C359.247 182.739 358.574 181.435 357.261 181.002L347.036 178.251C345.723 177.819 344.268 178.422 343.785 179.599C343.303 180.776 343.976 182.08 345.289 182.512Z" fill="#F8AD7D"/>
<path d="M361.88 186.67L354.99 182.208C353.625 179.926 350.128 178.217 345.937 178.067C343.5 177.98 341.273 178.455 339.503 179.277L311.153 178.255L310.719 188.27L341.049 189.364C342.357 189.809 343.818 190.106 345.397 190.162C347.975 190.255 350.33 189.726 352.141 188.81C352.141 188.81 361.763 190.179 362.349 189.468C363.083 188.578 362.872 187.326 361.88 186.67Z" fill="#F56449"/>
<path d="M339.137 181.283C340.828 180.337 343.006 179.705 345.442 179.617C349.632 179.468 354.985 182.207 354.985 182.207C353.62 179.925 350.122 178.216 345.932 178.066C343.495 177.979 341.268 178.454 339.498 179.276L311.147 178.254L310.973 182.283L339.137 181.283Z" fill="#F8AD7D"/>
<path d="M333.162 179.048C333.099 180.625 332.784 182.16 332.3 183.274C331.641 186.23 325.702 188.081 318.152 188.538L338.751 189.281C339.887 186.496 340.052 181.365 337.864 179.218L333.162 179.048Z" fill="#F56449"/>
<path d="M310.883 184.387L310.715 188.27L311.061 188.282L310.883 184.387Z" fill="#F8AD7D"/>
<path d="M288.583 182.652C294.121 197.393 335.817 197.568 337.629 189.44C339.027 186.224 339.087 179.496 335.442 178.384C330.993 177.027 323.53 174.594 318.272 172.864C312.214 170.872 305.693 170.161 299.311 171.025C292.312 171.972 285.644 174.828 288.583 182.652Z" fill="#211380"/>
<path d="M335.443 178.385C334.454 178.083 333.3 177.722 332.069 177.333C332.255 179.457 331.901 181.755 331.24 183.274C329.78 189.824 302.427 190.975 288.961 183.462C295.708 197.387 335.852 197.415 337.63 189.441C339.028 186.225 339.089 179.496 335.443 178.385Z" fill="#0D0666"/>
<path d="M349.429 278.876C346.168 278.876 343.523 276.506 343.523 273.583V232.843H355.336V273.583C355.336 276.506 352.692 278.876 349.429 278.876Z" fill="#ACA9FF"/>
<path d="M353.084 241.653H345.781C342.94 241.653 340.637 239.589 340.637 237.042V221.369H358.23V237.042C358.229 239.588 355.926 241.653 353.084 241.653Z" fill="#ACA9FF"/>
<path d="M331.117 303.324V287.025C331.117 277.961 339.316 270.613 349.431 270.613C359.546 270.613 367.745 277.961 367.745 287.025V303.324" stroke="#ACA9FF" stroke-width="7.0293" stroke-miterlimit="10" stroke-linecap="round"/>
<path d="M379.434 231.689H319.429C315.713 231.689 312.699 228.989 312.699 225.658C312.699 222.327 315.713 219.627 319.429 219.627H379.434C383.151 219.627 386.164 222.327 386.164 225.658C386.164 228.989 383.151 231.689 379.434 231.689Z" fill="#211380"/>
<path d="M298.686 290.943C297.319 293.868 297.319 298.788 297.319 298.788C297.319 298.788 281.434 298.971 286.729 310.286C286.719 310.498 286.71 310.699 286.701 310.89C286.617 312.851 288.367 314.464 290.556 314.44C295.442 314.386 303.627 314.301 306.686 314.301C311.166 314.301 321.756 305.905 322.978 302.985C322.367 300.613 321.756 299.518 321.756 299.518C321.756 299.518 322.571 298.423 321.96 294.59C321.349 290.758 319.719 287.472 316.258 287.472C313.549 287.472 305.23 288.478 301.739 288.915C300.4 289.084 299.208 289.826 298.686 290.943Z" fill="#514FF1"/>
<path d="M306.688 310.651C302.208 310.651 286.73 310.834 286.73 310.834C286.73 310.834 286.72 310.831 286.707 310.788C286.706 310.825 286.704 310.862 286.702 310.898C286.617 312.853 288.374 314.465 290.557 314.44C295.443 314.386 303.628 314.301 306.687 314.301C311.167 314.301 321.757 305.906 322.979 302.986C322.7 301.905 322.425 301.103 322.205 300.535C319.408 304.069 310.657 310.651 306.688 310.651Z" fill="#211380"/>
<path d="M294.953 272.004C296.38 278.609 299.724 289.074 300.437 291.205C301.15 293.336 317.436 294.828 316.485 287.796C315.534 280.765 313.022 268.916 311.12 267.424L294.953 272.004Z" fill="#ACA9FF"/>
<path d="M403.261 290.943C404.628 293.868 404.628 298.788 404.628 298.788C404.628 298.788 420.512 298.971 415.217 310.286C415.227 310.498 415.237 310.699 415.245 310.89C415.33 312.851 413.579 314.464 411.39 314.44C406.505 314.386 398.319 314.301 395.26 314.301C390.78 314.301 380.191 305.905 378.969 302.985C379.58 300.613 380.191 299.518 380.191 299.518C380.191 299.518 379.376 298.423 379.987 294.59C380.598 290.757 382.227 287.472 385.688 287.472C388.397 287.472 396.716 288.478 400.208 288.915C401.546 289.084 402.739 289.826 403.261 290.943Z" fill="#514FF1"/>
<path d="M395.263 310.651C399.744 310.651 415.221 310.834 415.221 310.834C415.221 310.834 415.231 310.831 415.244 310.788C415.246 310.825 415.247 310.862 415.249 310.898C415.334 312.853 413.577 314.465 411.394 314.44C406.509 314.386 398.323 314.301 395.264 314.301C390.784 314.301 380.194 305.906 378.973 302.986C379.251 301.905 379.526 301.103 379.746 300.535C382.543 304.069 391.294 310.651 395.263 310.651Z" fill="#211380"/>
<path d="M406.994 272.004C405.567 278.609 402.223 289.074 401.51 291.205C400.797 293.336 384.511 294.828 385.462 287.796C386.413 280.765 388.925 268.916 390.827 267.424L406.994 272.004Z" fill="#ACA9FF"/>
<path d="M351.049 205.93C351.049 205.93 309.062 191.739 288.909 197.329C268.756 202.92 277.393 220.12 280.272 233.451C283.151 246.782 290.828 273.013 292.268 277.313C293.708 281.613 326.576 284.623 324.657 270.433C322.738 256.242 316.74 227.215 312.901 224.205C317.22 226.785 317.699 223.345 317.699 223.345H352.248L351.049 205.93Z" fill="#D18100"/>
<path d="M296.563 279.115C295.091 274.72 287.243 247.907 284.301 234.281C281.358 220.654 272.529 203.072 293.129 197.358C295.952 196.575 299.202 196.182 302.694 196.069C297.587 195.909 292.833 196.24 288.909 197.329C268.755 202.92 277.393 220.12 280.272 233.451C283.151 246.782 290.828 273.013 292.268 277.314C292.585 278.259 294.419 279.141 297.067 279.793C296.824 279.571 296.64 279.345 296.563 279.115Z" fill="#FDA702"/>
<path d="M380.442 201.119C380.447 198.561 321.024 199.07 321.02 201.628L327.709 216.307L379.167 213.994L380.442 201.119Z" fill="#D18100"/>
<path d="M358.003 202.007C364.821 201.448 396.675 192.245 415.003 197.328C435.156 202.919 426.519 220.119 423.64 233.45C420.761 246.781 413.084 273.012 411.644 277.312C410.204 281.612 377.335 284.623 379.254 270.432C380.781 259.142 384.891 238.459 388.44 228.961C389.016 227.421 388.333 225.835 386.992 224.742C386.934 224.695 386.879 224.645 386.83 224.593C386.044 223.783 384.887 223.344 383.69 223.344H344.745C330.191 223.987 342.222 203.299 358.003 202.007Z" fill="#FDA702"/>
<path d="M417.505 198.151C425.531 206.861 419.078 221.178 416.557 232.852C413.59 246.585 406.092 272.503 403.629 280.404C407.936 279.776 411.21 278.605 411.643 277.314C413.082 273.013 420.76 246.782 423.639 233.451C426.39 220.713 434.379 204.45 417.505 198.151Z" fill="#D18100"/>
<path d="M375.421 223.078C375.356 223.024 375.295 222.969 375.239 222.91C374.356 222.001 373.059 221.508 371.715 221.508H339.051C340.022 222.748 341.85 223.473 344.745 223.345H375.714C375.617 223.255 375.525 223.163 375.421 223.078Z" fill="#D18100"/>
<path d="M154.157 232.909H85.3828V301.125H154.157V232.909Z" fill="#211380"/>
<path d="M93.2043 312.799C88.8845 312.799 85.3828 309.661 85.3828 305.79V291.251H106.082L100.713 307.752C99.7403 310.743 96.6808 312.799 93.2043 312.799Z" fill="#211380"/>
<path d="M146.338 312.799C150.658 312.799 154.16 309.661 154.16 305.79V291.251H133.461L138.83 307.752C139.802 310.743 142.862 312.799 146.338 312.799Z" fill="#211380"/>
<path d="M125.973 232.909H57.1992V301.125H125.973V232.909Z" fill="#514FF1"/>
<path d="M65.0207 312.799C60.7009 312.799 57.1992 309.661 57.1992 305.79V291.251H77.898L72.5292 307.752C71.5559 310.743 68.4972 312.799 65.0207 312.799Z" fill="#514FF1"/>
<path d="M118.151 312.799C122.471 312.799 125.972 309.661 125.972 305.79V291.251H105.273L110.642 307.752C111.615 310.743 114.674 312.799 118.151 312.799Z" fill="#514FF1"/>
<path d="M136.52 199.497H98.8633V213.558H136.52V199.497Z" fill="#514FF1"/>
<path d="M143.036 213.558H105.379V219.739H143.036V213.558Z" fill="#514FF1"/>
<path d="M137.606 219.74H99.9492V233.144H137.606V219.74Z" fill="#514FF1"/>
<path d="M114.399 199.497H76.7422V213.558H114.399V199.497Z" fill="#ACA9FF"/>
<path d="M120.918 213.558H83.2617V219.739H120.918V213.558Z" fill="#ACA9FF"/>
<path d="M115.485 219.74H77.8281V233.144H115.485V219.74Z" fill="#ACA9FF"/>
<path d="M76.7422 202.36H114.399" stroke="#514FF1" stroke-width="0.5858" stroke-miterlimit="10"/>
<path d="M76.7422 205.223H114.399" stroke="#514FF1" stroke-width="0.5858" stroke-miterlimit="10"/>
<path d="M76.7422 208.086H114.399" stroke="#514FF1" stroke-width="0.5858" stroke-miterlimit="10"/>
<path d="M76.7422 210.95H114.399" stroke="#514FF1" stroke-width="0.5858" stroke-miterlimit="10"/>
<path d="M131.812 210.95H136.932" stroke="#514FF1" stroke-width="0.5858" stroke-miterlimit="10" stroke-linecap="round"/>
<path d="M76.7422 201.112H115.26" stroke="#ACA9FF" stroke-width="0.5858" stroke-miterlimit="10" stroke-linecap="round"/>
<path d="M128.043 201.112H136.727" stroke="#514FF1" stroke-width="0.5858" stroke-miterlimit="10" stroke-linecap="round"/>
<path d="M76.7422 203.976H114.399" stroke="#ACA9FF" stroke-width="0.5858" stroke-miterlimit="10" stroke-linecap="round"/>
<path d="M81.5898 206.838H120.176" stroke="#ACA9FF" stroke-width="0.5858" stroke-miterlimit="10" stroke-linecap="round"/>
<path d="M76.7422 209.702H111.819" stroke="#ACA9FF" stroke-width="0.5858" stroke-miterlimit="10" stroke-linecap="round"/>
<path d="M120.426 209.702H132.059" stroke="#ACA9FF" stroke-width="0.5858" stroke-miterlimit="10" stroke-linecap="round"/>
<path d="M83.2617 216.676H120.918" stroke="#514FF1" stroke-width="0.5858" stroke-miterlimit="10"/>
<path d="M82.5312 217.558H117.062" stroke="#ACA9FF" stroke-width="0.5858" stroke-miterlimit="10" stroke-linecap="round"/>
<path d="M139.961 216.676H143.323" stroke="#514FF1" stroke-width="0.5858" stroke-miterlimit="10" stroke-linecap="round"/>
<path d="M77.8281 219.54H133.038" stroke="#514FF1" stroke-width="0.5858" stroke-miterlimit="10"/>
<path d="M77.8281 222.403H111.901" stroke="#514FF1" stroke-width="0.5858" stroke-miterlimit="10" stroke-linecap="round"/>
<path d="M83.1484 225.267H115.488" stroke="#514FF1" stroke-width="0.5858" stroke-miterlimit="10" stroke-linecap="round"/>
<path d="M134.145 225.267H138.466" stroke="#514FF1" stroke-width="0.5858" stroke-miterlimit="10" stroke-linecap="round"/>
<path d="M77.8281 228.13H115.485" stroke="#514FF1" stroke-width="0.5858" stroke-miterlimit="10"/>
<path d="M77.8281 230.993H115.485" stroke="#514FF1" stroke-width="0.5858" stroke-miterlimit="10"/>
<path d="M77.457 221.302H114.404" stroke="#ACA9FF" stroke-width="0.5858" stroke-miterlimit="10" stroke-linecap="round"/>
<path d="M77.4961 227.028H114.402" stroke="#ACA9FF" stroke-width="0.5858" stroke-miterlimit="10" stroke-linecap="round"/>
<path d="M76.4727 229.892H114.402" stroke="#ACA9FF" stroke-width="0.5858" stroke-miterlimit="10" stroke-linecap="round"/>
<path d="M77.2109 232.755H114.404" stroke="#ACA9FF" stroke-width="0.5858" stroke-miterlimit="10" stroke-linecap="round"/>
<path d="M125.051 221.302H135.905" stroke="#ACA9FF" stroke-width="0.5858" stroke-miterlimit="10" stroke-linecap="round"/>
<path d="M131.195 229.892H135.905" stroke="#ACA9FF" stroke-width="0.5858" stroke-miterlimit="10" stroke-linecap="round"/>
<path d="M378.065 312.662C375.705 312.095 374.304 309.921 374.937 307.807L407.949 197.465C408.582 195.35 411.008 194.095 413.367 194.662C415.727 195.229 417.128 197.403 416.495 199.519L383.483 309.86C382.85 311.974 380.424 313.229 378.065 312.662Z" fill="#211380"/>
<path d="M457.934 312.662C460.294 312.095 461.694 309.921 461.061 307.807L428.049 197.465C427.417 195.35 424.991 194.095 422.631 194.662C420.271 195.229 418.871 197.403 419.504 199.519L452.515 309.86C453.148 311.974 455.574 313.229 457.934 312.662Z" fill="#211380"/>
<path d="M350.537 312.662C348.178 312.095 346.777 309.921 347.41 307.807L380.422 197.465C381.055 195.35 383.481 194.095 385.84 194.662C388.2 195.229 389.6 197.403 388.968 199.519L355.955 309.86C355.323 311.974 352.897 313.229 350.537 312.662Z" fill="#514FF1"/>
<path d="M430.407 312.662C432.767 312.095 434.168 309.921 433.535 307.807L400.523 197.465C399.89 195.35 397.464 194.095 395.104 194.662C392.744 195.229 391.343 197.403 391.976 199.519L424.988 309.86C425.621 311.974 428.047 313.229 430.407 312.662Z" fill="#514FF1"/>
<path d="M188.986 312.662C186.627 312.095 185.226 309.921 185.859 307.807L218.87 197.465C219.503 195.35 221.929 194.095 224.289 194.662C226.648 195.229 228.049 197.403 227.416 199.519L194.405 309.86C193.772 311.974 191.346 313.229 188.986 312.662Z" fill="#211380"/>
<path d="M268.856 312.662C271.215 312.095 272.616 309.921 271.983 307.807L238.971 197.465C238.338 195.35 235.912 194.095 233.553 194.662C231.193 195.229 229.793 197.403 230.425 199.519L263.438 309.86C264.069 311.974 266.495 313.229 268.856 312.662Z" fill="#211380"/>
<path d="M161.459 312.662C159.099 312.095 157.699 309.921 158.332 307.807L191.344 197.465C191.977 195.35 194.402 194.095 196.762 194.662C199.122 195.229 200.522 197.403 199.889 199.519L166.877 309.86C166.245 311.974 163.82 313.229 161.459 312.662Z" fill="#514FF1"/>
<path d="M241.328 312.662C243.688 312.095 245.089 309.921 244.456 307.807L211.444 197.465C210.811 195.35 208.385 194.095 206.025 194.662C203.666 195.229 202.265 197.403 202.898 199.519L235.91 309.86C236.543 311.974 238.969 313.229 241.328 312.662Z" fill="#514FF1"/>
<path d="M440.705 189.879H203.863V203.094H440.705V189.879Z" fill="#211380"/>
<path d="M413.506 189.879H176.664V203.094H413.506V189.879Z" fill="#514FF1"/>
<path d="M457.622 188.411H186.945V200.158H457.622V188.411Z" fill="#514FF1"/>
<path d="M430.423 188.411H159.746V200.158H430.423V188.411Z" fill="#ACA9FF"/>
<path d="M349.974 188.631C350.789 188.631 351.449 188.039 351.449 187.31V185.694C351.449 184.964 350.788 184.373 349.974 184.373C349.16 184.373 348.5 184.965 348.5 185.694V187.31C348.499 188.039 349.16 188.631 349.974 188.631Z" fill="#514FF1"/>
<path d="M340.727 188.998H358.422C358.422 187.052 356.662 185.474 354.49 185.474H342.083C341.334 185.474 340.727 186.019 340.727 186.69V188.998Z" fill="#F2F1F6"/>
<path d="M348.281 188.998H358.423C358.423 187.052 356.662 185.474 354.491 185.474H349.521C348.837 185.474 348.282 185.971 348.282 186.585V188.998H348.281Z" fill="#ACA9FF"/>
<path d="M179.157 118.337L178.486 118.938L177.117 118.337L178.486 117.734L179.157 118.337Z" fill="#514FF1"/>
<path d="M179.892 116.745H178.942L178.449 115.452L179.892 115.894V116.745Z" fill="#514FF1"/>
<path d="M181.667 116.086L180.996 115.484L181.667 114.258L182.339 115.484L181.667 116.086Z" fill="#514FF1"/>
<path d="M183.441 116.745V115.894L184.884 115.452L184.391 116.745H183.441Z" fill="#514FF1"/>
<path d="M184.18 118.337L184.851 117.734L186.22 118.337L184.851 118.938L184.18 118.337Z" fill="#514FF1"/>
<path d="M179.157 120.227L178.486 120.829L177.117 120.227L178.486 119.625L179.157 120.227Z" fill="#514FF1"/>
<path d="M179.157 122.118L178.486 122.719L177.117 122.118L178.486 121.516L179.157 122.118Z" fill="#514FF1"/>
<path d="M179.157 124.008L178.486 124.61L177.117 124.008L178.486 123.407L179.157 124.008Z" fill="#514FF1"/>
<path d="M179.157 125.899L178.486 126.501L177.117 125.899L178.486 125.297L179.157 125.899Z" fill="#514FF1"/>
<path d="M179.157 127.789L178.486 128.391L177.117 127.789L178.486 127.188L179.157 127.789Z" fill="#514FF1"/>
<path d="M179.157 129.68L178.486 130.281L177.117 129.68L178.486 129.078L179.157 129.68Z" fill="#514FF1"/>
<path d="M184.18 120.227L184.851 120.829L186.22 120.227L184.851 119.625L184.18 120.227Z" fill="#514FF1"/>
<path d="M184.18 122.118L184.851 122.719L186.22 122.118L184.851 121.516L184.18 122.118Z" fill="#514FF1"/>
<path d="M184.18 124.008L184.851 124.61L186.22 124.008L184.851 123.407L184.18 124.008Z" fill="#514FF1"/>
<path d="M184.18 125.899L184.851 126.501L186.22 125.899L184.851 125.297L184.18 125.899Z" fill="#514FF1"/>
<path d="M184.18 127.789L184.851 128.391L186.22 127.789L184.851 127.188L184.18 127.789Z" fill="#514FF1"/>
<path d="M184.18 129.68L184.851 130.281L186.22 129.68L184.851 129.078L184.18 129.68Z" fill="#514FF1"/>
<path d="M185.094 132.968H178.137V118.495C178.137 116.773 179.694 115.377 181.615 115.377C183.536 115.377 185.093 116.773 185.093 118.495V132.968H185.094Z" fill="#514FF1"/>
<path d="M182.927 132.967H180.305V116.552C180.305 115.903 180.892 115.376 181.616 115.376C182.34 115.376 182.928 115.903 182.928 116.552V132.967H182.927Z" fill="#ACA9FF"/>
<path d="M185.468 140.77H177.763L176.461 131.734H186.771L185.468 140.77Z" fill="#211380"/>
<path d="M186.155 134.611H177.075C175.936 134.611 175.012 133.783 175.012 132.762C175.012 131.741 175.936 130.913 177.075 130.913H186.155C187.295 130.913 188.219 131.741 188.219 132.762C188.219 133.783 187.295 134.611 186.155 134.611Z" fill="#211380"/>
<path d="M181.602 118.939C181.511 118.738 181.505 118.538 181.492 118.337C181.505 118.136 181.511 117.936 181.602 117.735C181.694 117.936 181.699 118.136 181.712 118.337C181.699 118.537 181.693 118.738 181.602 118.939Z" fill="#514FF1"/>
<path d="M181.602 120.829C181.511 120.628 181.505 120.428 181.492 120.228C181.505 120.027 181.511 119.827 181.602 119.626C181.694 119.827 181.699 120.027 181.712 120.228C181.699 120.428 181.693 120.628 181.602 120.829Z" fill="#514FF1"/>
<path d="M181.602 122.72C181.511 122.519 181.505 122.319 181.492 122.118C181.505 121.917 181.511 121.717 181.602 121.517C181.694 121.717 181.699 121.917 181.712 122.118C181.699 122.318 181.693 122.519 181.602 122.72Z" fill="#514FF1"/>
<path d="M181.602 124.61C181.511 124.409 181.505 124.209 181.492 124.008C181.505 123.808 181.511 123.608 181.602 123.407C181.694 123.608 181.699 123.808 181.712 124.008C181.699 124.208 181.693 124.409 181.602 124.61Z" fill="#514FF1"/>
<path d="M181.602 126.501C181.511 126.3 181.505 126.1 181.492 125.899C181.505 125.698 181.511 125.498 181.602 125.297C181.694 125.498 181.699 125.698 181.712 125.899C181.699 126.099 181.693 126.3 181.602 126.501Z" fill="#514FF1"/>
<path d="M181.602 128.391C181.511 128.19 181.505 127.99 181.492 127.79C181.505 127.589 181.511 127.389 181.602 127.188C181.694 127.389 181.699 127.589 181.712 127.79C181.699 127.99 181.693 128.19 181.602 128.391Z" fill="#514FF1"/>
<path d="M181.602 130.282C181.511 130.081 181.505 129.881 181.492 129.68C181.505 129.479 181.511 129.279 181.602 129.079C181.694 129.279 181.699 129.479 181.712 129.68C181.699 129.881 181.693 130.081 181.602 130.282Z" fill="#514FF1"/>
<path d="M177.91 188.997H200.164C202.352 188.997 204.082 187.335 203.928 185.378L200.646 143.555C200.507 141.783 198.863 140.41 196.882 140.41H177.91V188.997Z" fill="#514FF1"/>
<path d="M171.271 188.997H187.766C189.421 188.997 190.763 187.795 190.763 186.311V143.097C190.763 141.614 189.421 140.411 187.766 140.411H171.271C169.615 140.411 168.273 141.614 168.273 143.097V186.311C168.273 187.795 169.615 188.997 171.271 188.997Z" fill="#ACA9FF"/>
<path d="M173.594 187.107C174.315 187.107 174.899 186.584 174.899 185.938C174.899 185.292 174.315 184.769 173.594 184.769C172.873 184.769 172.289 185.292 172.289 185.938C172.289 186.584 172.873 187.107 173.594 187.107Z" fill="#514FF1"/>
<path d="M409.555 188.997H431.808C433.997 188.997 435.726 187.335 435.573 185.378L432.291 143.555C432.152 141.783 430.508 140.41 428.527 140.41H409.555V188.997Z" fill="#514FF1"/>
<path d="M402.915 188.997H419.41C421.066 188.997 422.407 187.795 422.407 186.311V143.097C422.407 141.614 421.066 140.411 419.41 140.411H402.915C401.26 140.411 399.918 141.614 399.918 143.097V186.311C399.918 187.795 401.261 188.997 402.915 188.997Z" fill="#ACA9FF"/>
<path d="M405.238 187.107C405.959 187.107 406.543 186.584 406.543 185.938C406.543 185.292 405.959 184.769 405.238 184.769C404.518 184.769 403.934 185.292 403.934 185.938C403.934 186.584 404.518 187.107 405.238 187.107Z" fill="#514FF1"/>
<path d="M261.833 188.998H328.683C328.683 185.916 325.895 183.418 322.456 183.418H263.981C262.794 183.418 261.832 184.28 261.832 185.343L261.833 188.998Z" fill="#ACA9FF"/>
<path d="M312.626 188.998H328.683C328.683 185.916 325.895 183.418 322.456 183.418H314.588C313.504 183.418 312.625 184.205 312.625 185.177V188.998H312.626Z" fill="#514FF1"/>
<path d="M205.984 162.342H289.432C293.654 162.342 297.077 159.275 297.077 155.492V112.072C297.077 108.289 293.655 105.222 289.432 105.222H205.984V162.342Z" fill="#514FF1"/>
<path d="M203.121 162.341H286.128C288.36 162.341 290.17 160.719 290.17 158.718V108.844C290.17 106.843 288.36 105.221 286.128 105.221H203.121C200.888 105.221 199.078 106.843 199.078 108.844V158.718C199.078 160.719 200.888 162.341 203.121 162.341Z" fill="#ACA9FF"/>
<path d="M226.695 188.998H246.879L252.884 147.118C252.938 146.734 252.606 146.395 252.175 146.395H232.803L226.695 188.998Z" fill="#514FF1"/>
<path d="M220.324 188.998H258.301C258.301 186.5 256.043 184.476 253.256 184.476H225.37C222.583 184.476 220.324 186.5 220.324 188.998Z" fill="#ACA9FF"/>
<path d="M245.289 188.998H258.302C258.302 186.5 256.043 184.476 253.257 184.476H250.336C247.548 184.476 245.289 186.5 245.289 188.998Z" fill="#514FF1"/>
<path d="M223.777 188.998H243.961L249.961 147.08C250.078 146.262 249.367 145.538 248.447 145.538H231.597C230.683 145.538 229.911 146.146 229.795 146.959L223.777 188.998Z" fill="#ACA9FF"/>
<path d="M221.885 160.111C222.6 160.111 223.179 159.591 223.179 158.95C223.179 158.31 222.6 157.79 221.885 157.79C221.17 157.79 220.59 158.31 220.59 158.95C220.59 159.591 221.17 160.111 221.885 160.111Z" fill="#514FF1"/>
<path d="M395.036 184.056H380.578V186.936H395.036V184.056Z" fill="#ACA9FF"/>
<path d="M395.957 188.704H379.657C379.128 188.704 378.699 188.32 378.699 187.846V185.935C378.699 185.461 379.128 185.077 379.657 185.077H395.957C396.485 185.077 396.914 185.461 396.914 185.935V187.846C396.915 188.32 396.486 188.704 395.957 188.704Z" fill="#FF6700"/>
<path d="M393.708 184.056H379.25V186.936H393.708V184.056Z" fill="white"/>
<path d="M394.629 188.704H378.329C377.8 188.704 377.371 188.32 377.371 187.846V185.935C377.371 185.461 377.8 185.077 378.329 185.077H394.629C395.157 185.077 395.586 185.461 395.586 185.935V187.846C395.586 188.32 395.157 188.704 394.629 188.704Z" fill="#FDA702"/>
<path d="M361.773 174.956V180.774H388.441L390.991 182.645V180.774V174.956H361.773Z" fill="#FF6700"/>
<path d="M375.355 176.828H364.92C364.749 176.828 364.609 176.704 364.609 176.55C364.609 176.397 364.749 176.272 364.92 176.272H375.355C375.527 176.272 375.666 176.397 375.666 176.55C375.666 176.704 375.526 176.828 375.355 176.828Z" fill="white"/>
<path d="M386.25 178.19H364.92C364.749 178.19 364.609 178.065 364.609 177.912C364.609 177.758 364.749 177.633 364.92 177.633H386.25C386.422 177.633 386.561 177.758 386.561 177.912C386.561 178.065 386.422 178.19 386.25 178.19Z" fill="white"/>
<path d="M386.25 179.551H364.92C364.749 179.551 364.609 179.426 364.609 179.272C364.609 179.119 364.749 178.994 364.92 178.994H386.25C386.422 178.994 386.561 179.119 386.561 179.272C386.561 179.426 386.422 179.551 386.25 179.551Z" fill="white"/>
<path d="M381.252 164.404V171.838H364.324L361.773 173.709V171.838V164.404H381.252Z" fill="white"/>
<path d="M371.308 166.438H364.92C364.749 166.438 364.609 166.313 364.609 166.16C364.609 166.006 364.749 165.881 364.92 165.881H371.308C371.479 165.881 371.619 166.006 371.619 166.16C371.619 166.313 371.48 166.438 371.308 166.438Z" fill="#FF6700"/>
<path d="M378.832 167.799H364.92C364.749 167.799 364.609 167.674 364.609 167.521C364.609 167.368 364.749 167.243 364.92 167.243H378.832C379.004 167.243 379.142 167.368 379.142 167.521C379.142 167.674 379.003 167.799 378.832 167.799Z" fill="#FF6700"/>
<path d="M378.832 169.16H364.92C364.749 169.16 364.609 169.035 364.609 168.882C364.609 168.728 364.749 168.604 364.92 168.604H378.832C379.004 168.604 379.142 168.728 379.142 168.882C379.142 169.035 379.003 169.16 378.832 169.16Z" fill="#FF6700"/>
<path d="M378.832 170.545H364.92C364.749 170.545 364.609 170.42 364.609 170.267C364.609 170.114 364.749 169.989 364.92 169.989H378.832C379.004 169.989 379.142 170.114 379.142 170.267C379.142 170.42 379.003 170.545 378.832 170.545Z" fill="#FF6700"/>
</svg>
