<svg width="337" height="298" viewBox="0 0 337 298" fill="none" xmlns="http://www.w3.org/2000/svg">
<path d="M278.348 154.795C278.348 156.177 277.106 157.302 275.579 157.302C274.051 157.302 272.809 156.177 272.809 154.795C272.809 153.412 274.051 152.287 275.579 152.287C277.106 152.287 278.348 153.412 278.348 154.795ZM276.976 154.795C276.976 154.097 276.349 153.53 275.58 153.53C274.809 153.53 274.182 154.098 274.182 154.795C274.182 155.492 274.809 156.059 275.58 156.059C276.349 156.059 276.976 155.492 276.976 154.795Z" fill="#ACD9EA"/>
<path d="M285.288 68.4033C284.909 68.4033 284.602 68.6817 284.602 69.0248V70.4664C284.602 70.8095 284.909 71.0879 285.288 71.0879C285.667 71.0879 285.974 70.8095 285.974 70.4664V69.0248C285.974 68.6817 285.667 68.4033 285.288 68.4033Z" fill="#ACD9EA"/>
<path d="M283.489 66.959H281.897C281.518 66.959 281.211 67.2374 281.211 67.5804C281.211 67.9235 281.518 68.2019 281.897 68.2019H283.489C283.868 68.2019 284.175 67.9235 284.175 67.5804C284.175 67.2374 283.868 66.959 283.489 66.959Z" fill="#ACD9EA"/>
<path d="M285.288 63.9727C284.909 63.9727 284.602 64.2511 284.602 64.5941V66.0344C284.602 66.3775 284.909 66.6559 285.288 66.6559C285.667 66.6559 285.974 66.3775 285.974 66.0344V64.5941C285.974 64.2511 285.667 63.9727 285.288 63.9727Z" fill="#ACD9EA"/>
<path d="M288.672 66.8594H287.081C286.702 66.8594 286.395 67.1378 286.395 67.4808C286.395 67.8239 286.702 68.1023 287.081 68.1023H288.672C289.051 68.1023 289.359 67.8239 289.359 67.4808C289.359 67.1378 289.051 66.8594 288.672 66.8594Z" fill="#ACD9EA"/>
<path d="M136.311 53.436C135.932 53.436 135.625 53.7144 135.625 54.0575V55.4985C135.625 55.8415 135.932 56.1199 136.311 56.1199C136.69 56.1199 136.998 55.8415 136.998 55.4985V54.0575C136.998 53.7138 136.69 53.436 136.311 53.436Z" fill="#ACD9EA"/>
<path d="M134.517 51.9902H132.925C132.546 51.9902 132.238 52.2686 132.238 52.6117C132.238 52.9547 132.546 53.2331 132.925 53.2331H134.517C134.896 53.2331 135.203 52.9547 135.203 52.6117C135.202 52.268 134.896 51.9902 134.517 51.9902Z" fill="#ACD9EA"/>
<path d="M136.311 49.0049C135.932 49.0049 135.625 49.2833 135.625 49.6263V51.0666C135.625 51.4097 135.932 51.6881 136.311 51.6881C136.69 51.6881 136.998 51.4097 136.998 51.0666V49.6263C136.998 49.2826 136.69 49.0049 136.311 49.0049Z" fill="#ACD9EA"/>
<path d="M139.7 51.8906H138.107C137.729 51.8906 137.422 52.169 137.422 52.5121C137.422 52.8551 137.729 53.1335 138.107 53.1335H139.7C140.079 53.1335 140.386 52.8551 140.386 52.5121C140.385 52.169 140.079 51.8906 139.7 51.8906Z" fill="#ACD9EA"/>
<path d="M45.2645 183.839C44.8856 183.839 44.5781 184.117 44.5781 184.46V185.901C44.5781 186.244 44.8856 186.523 45.2645 186.523C45.6434 186.523 45.9508 186.244 45.9508 185.901V184.46C45.9501 184.117 45.6434 183.839 45.2645 183.839Z" fill="#ACD9EA"/>
<path d="M43.4661 182.394H41.8739C41.495 182.394 41.1875 182.672 41.1875 183.015C41.1875 183.359 41.495 183.637 41.8739 183.637H43.4661C43.845 183.637 44.1525 183.359 44.1525 183.015C44.1525 182.672 43.845 182.394 43.4661 182.394Z" fill="#ACD9EA"/>
<path d="M45.2645 179.407C44.8856 179.407 44.5781 179.686 44.5781 180.029V181.469C44.5781 181.812 44.8856 182.09 45.2645 182.09C45.6434 182.09 45.9508 181.812 45.9508 181.469V180.029C45.9501 179.686 45.6434 179.407 45.2645 179.407Z" fill="#ACD9EA"/>
<path d="M48.6489 182.294H47.0567C46.6778 182.294 46.3711 182.573 46.3711 182.916C46.3711 183.259 46.6786 183.537 47.0567 183.537H48.6489C49.0278 183.537 49.3353 183.259 49.3353 182.916C49.3353 182.573 49.0278 182.294 48.6489 182.294Z" fill="#ACD9EA"/>
<path d="M220.357 0.136719H204.671C204.292 0.136719 203.984 0.414432 203.984 0.757491C203.984 1.10055 204.292 1.37895 204.671 1.37895H220.357C220.736 1.37895 221.043 1.10055 221.043 0.757491C221.043 0.414432 220.736 0.136719 220.357 0.136719Z" fill="#ACD9EA"/>
<path d="M199.677 0.133789H196.612C196.233 0.133789 195.926 0.412184 195.926 0.755243C195.926 1.0983 196.233 1.3767 196.612 1.3767H199.677C200.056 1.3767 200.363 1.0983 200.363 0.755243C200.363 0.412184 200.056 0.133789 199.677 0.133789Z" fill="#ACD9EA"/>
<path d="M212.985 5.08435C212.985 5.4274 212.677 5.70512 212.298 5.70512H210.336C209.957 5.70512 209.65 5.4274 209.65 5.08435C209.65 4.74129 209.957 4.46289 210.336 4.46289H212.298C212.678 4.46289 212.985 4.74129 212.985 5.08435ZM207.592 5.08435C207.592 5.4274 207.284 5.70512 206.905 5.70512H203.474C203.095 5.70512 202.787 5.4274 202.787 5.08435C202.787 4.74129 203.095 4.46289 203.474 4.46289H206.905C207.284 4.46289 207.592 4.74129 207.592 5.08435ZM200.729 5.08435C200.729 5.4274 200.422 5.70512 200.044 5.70512H196.612C196.233 5.70512 195.926 5.4274 195.926 5.08435C195.926 4.74129 196.233 4.46289 196.612 4.46289H200.044C200.423 4.46289 200.729 4.74129 200.729 5.08435Z" fill="#ACD9EA"/>
<path d="M209.393 28.9277C209.014 28.9277 208.707 29.2055 208.707 29.5492V30.9909C208.707 31.3339 209.014 31.6123 209.393 31.6123C209.772 31.6123 210.079 31.3339 210.079 30.9909V29.5485C210.08 29.2055 209.772 28.9277 209.393 28.9277Z" fill="#ACD9EA"/>
<path d="M207.598 27.4824H206.007C205.628 27.4824 205.32 27.7601 205.32 28.1039C205.32 28.4469 205.627 28.7253 206.007 28.7253H207.598C207.977 28.7253 208.285 28.4469 208.285 28.1039C208.284 27.7608 207.977 27.4824 207.598 27.4824Z" fill="#ACD9EA"/>
<path d="M209.393 24.4966C209.014 24.4966 208.707 24.775 208.707 25.118V26.5583C208.707 26.9014 209.014 27.1798 209.393 27.1798C209.772 27.1798 210.079 26.9014 210.079 26.5583V25.1174C210.08 24.7743 209.772 24.4966 209.393 24.4966Z" fill="#ACD9EA"/>
<path d="M212.782 27.3828H211.19C210.811 27.3828 210.504 27.6612 210.504 28.0043C210.504 28.3473 210.811 28.6257 211.19 28.6257H212.782C213.161 28.6257 213.468 28.3473 213.468 28.0043C213.467 27.6612 213.161 27.3828 212.782 27.3828Z" fill="#ACD9EA"/>
<path d="M71.5898 72.538C71.5898 73.7496 72.6746 74.7319 74.0128 74.7319C75.3509 74.7319 76.4357 73.7496 76.4357 72.538C76.4357 71.3265 75.3509 70.3442 74.0128 70.3442C72.6746 70.3442 71.5898 71.3265 71.5898 72.538Z" fill="#ACD9EA"/>
<path d="M248.694 244.991H264.38C264.759 244.991 265.067 244.713 265.067 244.37C265.067 244.027 264.759 243.749 264.38 243.749H248.694C248.315 243.749 248.008 244.027 248.008 244.37C248.009 244.713 248.315 244.991 248.694 244.991Z" fill="#ACD9EA"/>
<path d="M269.374 244.993H272.439C272.818 244.993 273.125 244.715 273.125 244.372C273.125 244.029 272.818 243.75 272.439 243.75H269.374C268.995 243.75 268.688 244.029 268.688 244.372C268.688 244.715 268.995 244.993 269.374 244.993Z" fill="#ACD9EA"/>
<path d="M256.062 240.043C256.062 239.7 256.37 239.421 256.749 239.421H258.711C259.09 239.421 259.398 239.699 259.398 240.043C259.398 240.386 259.09 240.664 258.711 240.664H256.749C256.369 240.664 256.062 240.386 256.062 240.043ZM261.456 240.043C261.456 239.7 261.763 239.421 262.142 239.421H265.574C265.953 239.421 266.26 239.699 266.26 240.043C266.26 240.386 265.953 240.664 265.574 240.664H262.142C261.762 240.664 261.456 240.386 261.456 240.043ZM268.317 240.043C268.317 239.7 268.625 239.421 269.004 239.421H272.434C272.813 239.421 273.121 239.699 273.121 240.043C273.121 240.386 272.813 240.664 272.434 240.664H269.004C268.625 240.664 268.317 240.386 268.317 240.043Z" fill="#ACD9EA"/>
<path d="M280.796 125.095H296.482C296.861 125.095 297.168 124.818 297.168 124.474C297.168 124.131 296.86 123.853 296.482 123.853H280.796C280.417 123.853 280.109 124.131 280.109 124.474C280.109 124.817 280.417 125.095 280.796 125.095Z" fill="#ACD9EA"/>
<path d="M301.475 125.098H304.54C304.919 125.098 305.227 124.819 305.227 124.476C305.227 124.133 304.919 123.855 304.54 123.855H301.475C301.097 123.855 300.789 124.133 300.789 124.476C300.789 124.819 301.097 125.098 301.475 125.098Z" fill="#ACD9EA"/>
<path d="M288.168 120.148C288.168 119.805 288.475 119.526 288.854 119.526H290.817C291.196 119.526 291.503 119.805 291.503 120.148C291.503 120.491 291.196 120.769 290.817 120.769H288.854C288.475 120.769 288.168 120.491 288.168 120.148ZM293.561 120.148C293.561 119.805 293.869 119.526 294.248 119.526H297.679C298.058 119.526 298.366 119.805 298.366 120.148C298.366 120.491 298.058 120.769 297.679 120.769H294.248C293.869 120.769 293.561 120.491 293.561 120.148ZM300.423 120.148C300.423 119.805 300.731 119.526 301.109 119.526H304.54C304.919 119.526 305.226 119.805 305.226 120.148C305.226 120.491 304.919 120.769 304.54 120.769H301.109C300.731 120.769 300.423 120.491 300.423 120.148Z" fill="#ACD9EA"/>
<path d="M332.343 127.729C332.721 127.729 333.029 127.451 333.029 127.108V125.666C333.029 125.323 332.721 125.045 332.343 125.045C331.964 125.045 331.656 125.323 331.656 125.666V127.108C331.656 127.452 331.964 127.729 332.343 127.729Z" fill="#ACD9EA"/>
<path d="M334.136 129.175H335.727C336.106 129.175 336.413 128.897 336.413 128.554C336.413 128.211 336.106 127.932 335.727 127.932H334.136C333.757 127.932 333.449 128.21 333.449 128.554C333.449 128.897 333.757 129.175 334.136 129.175Z" fill="#ACD9EA"/>
<path d="M332.343 132.161C332.721 132.161 333.029 131.882 333.029 131.539V130.099C333.029 129.756 332.721 129.478 332.343 129.478C331.964 129.478 331.656 129.756 331.656 130.099V131.539C331.656 131.883 331.964 132.161 332.343 132.161Z" fill="#ACD9EA"/>
<path d="M328.952 129.275H330.543C330.922 129.275 331.23 128.996 331.23 128.653C331.23 128.31 330.922 128.032 330.543 128.032H328.952C328.573 128.032 328.266 128.31 328.266 128.653C328.266 128.996 328.573 129.275 328.952 129.275Z" fill="#ACD9EA"/>
<path d="M41.2164 112.384H25.5302C25.1513 112.384 24.8438 112.663 24.8438 113.006C24.8438 113.349 25.1513 113.627 25.5302 113.627H41.2164C41.5953 113.627 41.9028 113.349 41.9028 113.006C41.9021 112.663 41.5953 112.384 41.2164 112.384Z" fill="#ACD9EA"/>
<path d="M20.5404 112.381H17.4754C17.0965 112.381 16.7891 112.66 16.7891 113.003C16.7891 113.346 17.0965 113.624 17.4754 113.624H20.5404C20.9193 113.624 21.2267 113.346 21.2267 113.003C21.226 112.66 20.9193 112.381 20.5404 112.381Z" fill="#ACD9EA"/>
<path d="M33.8481 117.332C33.8481 117.675 33.5406 117.953 33.1617 117.953H31.1993C30.8204 117.953 30.5129 117.675 30.5129 117.332C30.5129 116.989 30.8204 116.71 31.1993 116.71H33.1617C33.5406 116.711 33.8481 116.989 33.8481 117.332ZM28.455 117.332C28.455 117.675 28.1475 117.953 27.7686 117.953H24.3378C23.9589 117.953 23.6513 117.675 23.6513 117.332C23.6513 116.989 23.9589 116.71 24.3378 116.71H27.7686C28.1475 116.711 28.455 116.989 28.455 117.332ZM21.5927 117.332C21.5927 117.675 21.2852 117.953 20.9063 117.953H17.4755C17.0966 117.953 16.7891 117.675 16.7891 117.332C16.7891 116.989 17.0966 116.71 17.4755 116.71H20.9063C21.2852 116.711 21.5927 116.989 21.5927 117.332Z" fill="#ACD9EA"/>
<path d="M63.495 126.688C63.1161 126.688 62.8086 126.967 62.8086 127.31V128.752C62.8086 129.095 63.1161 129.373 63.495 129.373C63.8738 129.373 64.1813 129.095 64.1813 128.752V127.31C64.1813 126.966 63.8738 126.688 63.495 126.688Z" fill="#ACD9EA"/>
<path d="M61.6997 125.244H60.1082C59.7293 125.244 59.4219 125.521 59.4219 125.864C59.4219 126.207 59.7293 126.486 60.1082 126.486H61.6997C62.0786 126.486 62.3853 126.208 62.3853 125.864C62.3853 125.521 62.0786 125.244 61.6997 125.244Z" fill="#ACD9EA"/>
<path d="M63.495 122.257C63.1161 122.257 62.8086 122.536 62.8086 122.879V124.319C62.8086 124.662 63.1161 124.941 63.495 124.941C63.8738 124.941 64.1813 124.662 64.1813 124.319V122.879C64.1813 122.535 63.8738 122.257 63.495 122.257Z" fill="#ACD9EA"/>
<path d="M66.8833 125.144H65.2918C64.9129 125.144 64.6055 125.422 64.6055 125.765C64.6055 126.108 64.9129 126.386 65.2918 126.386H66.8833C67.2622 126.386 67.5697 126.108 67.5697 125.765C67.5689 125.422 67.2622 125.144 66.8833 125.144Z" fill="#ACD9EA"/>
<path d="M33.1838 9.93799C33.1838 9.93799 34.1206 15.9892 26.3125 15.8496C26.3125 15.8496 33.0199 15.9116 32.8432 21.5904C32.8432 21.5904 33.4462 17.1238 39.601 16.1253C39.601 16.1253 34.4003 17.2048 33.1838 9.93799Z" fill="#3F8BC9"/>
<path d="M162.254 12.2046C162.254 12.2046 163.191 18.2558 155.383 18.1162C155.383 18.1162 162.09 18.1782 161.914 23.857C161.914 23.857 162.517 19.3904 168.671 18.3919C168.671 18.3919 163.471 19.4721 162.254 12.2046Z" fill="#3F8BC9"/>
<path d="M2.49984 84.375C2.49984 84.375 2.82611 86.4837 0.105469 86.4354C0.105469 86.4354 2.44346 86.4572 2.38106 88.4366C2.38106 88.4366 2.59155 86.8792 4.73634 86.5314C4.73634 86.5314 2.92384 86.9078 2.49984 84.375Z" fill="#ACD9EA"/>
<path d="M166.437 49.9067C166.437 49.9067 166.764 52.0161 164.043 51.9678C164.043 51.9678 166.381 51.9896 166.318 53.969C166.318 53.969 166.528 52.4116 168.673 52.0638C168.673 52.0638 166.861 52.4395 166.437 49.9067Z" fill="#ACD9EA"/>
<path d="M182.832 70.4907C182.832 70.4907 183.158 72.5995 180.438 72.5511C180.438 72.5511 182.775 72.5729 182.712 74.5523C182.712 74.5523 182.923 72.9949 185.068 72.6471C185.068 72.6471 183.255 73.0235 182.832 70.4907Z" fill="#ACD9EA"/>
<path d="M70.285 156.1C70.285 156.1 70.6113 158.209 67.8906 158.16C67.8906 158.16 70.2286 158.182 70.1662 160.161C70.1662 160.161 70.3767 158.604 72.5215 158.256C72.5215 158.256 70.709 158.632 70.285 156.1Z" fill="#ACD9EA"/>
<path d="M265.258 221.326C265.258 221.326 265.584 223.434 262.863 223.387C262.863 223.387 265.201 223.409 265.138 225.388C265.138 225.388 265.349 223.831 267.493 223.483C267.493 223.483 265.681 223.858 265.258 221.326Z" fill="#ACD9EA"/>
<path d="M294.808 189.093C294.808 189.093 295.135 191.202 292.414 191.153C292.414 191.153 294.752 191.175 294.69 193.154C294.69 193.154 294.9 191.597 297.045 191.249C297.045 191.249 295.232 191.626 294.808 189.093Z" fill="#ACD9EA"/>
<path d="M73.1795 40.1045C73.1795 40.1045 73.5058 42.2132 70.7852 42.1656C70.7852 42.1656 73.1231 42.1874 73.06 44.1667C73.06 44.1667 73.2705 42.6094 75.4153 42.2615C75.4153 42.2615 73.6035 42.6373 73.1795 40.1045Z" fill="#ACD9EA"/>
<path d="M109.105 26.9042H93.8736C91.9248 26.9042 90.3398 25.4693 90.3398 23.7057C90.3398 21.9761 91.8646 20.5624 93.7608 20.5079C93.8112 17.8165 96.245 15.6411 99.2299 15.6411C101.082 15.6411 102.804 16.494 103.81 17.8887C105.863 17.6232 107.694 18.7919 108.215 20.5066H109.105C111.054 20.5066 112.639 21.9421 112.639 23.7057C112.639 25.4693 111.053 26.9042 109.105 26.9042ZM93.8736 21.4534C92.5015 21.4534 91.3857 22.4642 91.3857 23.7057C91.3857 24.9473 92.5015 25.9581 93.8736 25.9581H109.105C110.477 25.9581 111.593 24.9479 111.593 23.7057C111.593 22.4635 110.476 21.4534 109.105 21.4534H107.347L107.277 21.0545C107.012 19.5482 105.434 18.4945 103.672 18.8757L103.287 18.9587L103.094 18.6463C102.312 17.3768 100.831 16.5886 99.2291 16.5886C96.7893 16.5886 94.8052 18.3849 94.8052 20.5937C94.8052 20.7108 94.8142 20.8258 94.8247 20.9401L94.8736 21.4541L93.8736 21.4534Z" fill="#ACD9EA"/>
<path d="M309.874 164.871H325.56C325.939 164.871 326.247 164.593 326.247 164.249C326.247 163.906 325.939 163.628 325.56 163.628H309.874C309.495 163.628 309.188 163.906 309.188 164.249C309.188 164.592 309.495 164.871 309.874 164.871Z" fill="#ACD9EA"/>
<path d="M301.815 164.873H304.88C305.259 164.873 305.567 164.594 305.567 164.251C305.567 163.908 305.259 163.63 304.88 163.63H301.815C301.436 163.63 301.129 163.908 301.129 164.251C301.129 164.595 301.436 164.873 301.815 164.873Z" fill="#ACD9EA"/>
<path d="M262.339 49.3035H278.025C278.404 49.3035 278.711 49.0251 278.711 48.682C278.711 48.3389 278.404 48.0605 278.025 48.0605H262.339C261.96 48.0605 261.652 48.3389 261.652 48.682C261.652 49.0251 261.96 49.3035 262.339 49.3035Z" fill="#ACD9EA"/>
<path d="M254.28 49.3057H257.345C257.724 49.3057 258.031 49.0273 258.031 48.6843C258.031 48.3412 257.724 48.0635 257.345 48.0635H254.28C253.901 48.0635 253.594 48.3412 253.594 48.6843C253.594 49.028 253.901 49.3057 254.28 49.3057Z" fill="#ACD9EA"/>
<path d="M326.956 230.9H311.725C309.776 230.9 308.191 229.465 308.191 227.702C308.191 225.972 309.715 224.558 311.612 224.504C311.663 221.813 314.097 219.637 317.081 219.637C318.934 219.637 320.656 220.49 321.661 221.885C323.714 221.619 325.546 222.788 326.066 224.503H326.956C328.905 224.503 330.489 225.938 330.489 227.702C330.489 229.465 328.905 230.9 326.956 230.9ZM311.725 225.449C310.353 225.449 309.237 226.46 309.237 227.701C309.237 228.943 310.353 229.953 311.725 229.953H326.956C328.329 229.953 329.444 228.943 329.444 227.701C329.444 226.459 328.328 225.449 326.956 225.449H325.199L325.129 225.05C324.864 223.544 323.285 222.49 321.523 222.871L321.139 222.954L320.945 222.641C320.163 221.372 318.682 220.583 317.081 220.583C314.641 220.583 312.657 222.38 312.657 224.588C312.657 224.706 312.666 224.821 312.676 224.935L312.725 225.449H311.725Z" fill="#ACD9EA"/>
<path d="M266.218 183.807H250.987C249.039 183.807 247.453 182.372 247.453 180.608C247.453 178.878 248.978 177.465 250.874 177.41C250.925 174.719 253.358 172.543 256.343 172.543C258.196 172.543 259.918 173.396 260.924 174.791C262.975 174.526 264.808 175.694 265.328 177.409H266.219C268.167 177.409 269.753 178.844 269.753 180.608C269.752 182.372 268.166 183.807 266.218 183.807ZM250.987 178.356C249.615 178.356 248.499 179.367 248.499 180.608C248.499 181.85 249.615 182.86 250.987 182.86H266.218C267.59 182.86 268.706 181.85 268.706 180.608C268.706 179.366 267.59 178.356 266.218 178.356H264.46L264.39 177.957C264.126 176.45 262.545 175.399 260.785 175.778L260.4 175.861L260.207 175.549C259.424 174.278 257.944 173.49 256.342 173.49C253.903 173.49 251.918 175.287 251.918 177.495C251.918 177.612 251.927 177.727 251.938 177.842L251.987 178.356H250.987Z" fill="#ACD9EA"/>
<path d="M45.1479 63.2052H29.9166C27.9685 63.2052 26.3828 61.7696 26.3828 60.006C26.3828 58.2757 27.9076 56.8627 29.8038 56.8082C29.8542 54.1168 32.288 51.9414 35.2721 51.9414C37.1247 51.9414 38.8465 52.7943 39.8525 54.189C41.9141 53.9222 43.7374 55.0922 44.2569 56.8062H45.1479C47.096 56.8062 48.6816 58.2417 48.6816 60.0053C48.6816 61.769 47.0967 63.2052 45.1479 63.2052ZM29.9166 57.753C28.5444 57.753 27.4287 58.7638 27.4287 60.0053C27.4287 61.2469 28.5444 62.2577 29.9166 62.2577H45.1479C46.52 62.2577 47.6358 61.2469 47.6358 60.0053C47.6358 58.7638 46.52 57.753 45.1479 57.753H43.39L43.3201 57.3541C43.0554 55.8485 41.4916 54.7934 39.7149 55.1753L39.3299 55.2583L39.1367 54.9459C38.354 53.6764 36.8736 52.8875 35.2721 52.8875C32.8331 52.8875 30.8481 54.6838 30.8481 56.8926C30.8481 57.009 30.8572 57.1247 30.8677 57.2391L30.9166 57.753H29.9166Z" fill="#ACD9EA"/>
<path d="M79.4572 246.511C79.4572 246.511 80.3941 252.562 72.5859 252.423C72.5859 252.423 79.2926 252.485 79.1166 258.164C79.1166 258.164 79.7196 253.697 85.8744 252.699C85.8744 252.699 80.6738 253.779 79.4572 246.511Z" fill="#3F8BC9"/>
<path d="M9.35177 158.619C9.35177 158.619 10.2886 164.67 2.48047 164.531C2.48047 164.531 9.18711 164.593 9.01117 170.272C9.01117 170.272 9.61417 165.805 15.7689 164.806C15.7689 164.806 10.5683 165.887 9.35177 158.619Z" fill="#3F8BC9"/>
<path d="M330.481 193.464C330.481 193.464 331.417 199.515 323.609 199.376C323.609 199.376 330.317 199.437 330.14 205.116C330.14 205.116 330.743 200.65 336.898 199.651C336.898 199.651 331.696 200.731 330.481 193.464Z" fill="#3F8BC9"/>
<path d="M322.875 77.8428C322.875 77.8428 323.812 83.8939 316.004 83.7544C316.004 83.7544 322.711 83.8163 322.535 89.4952C322.535 89.4952 323.138 85.0286 329.292 84.0301C329.292 84.0301 324.092 85.1103 322.875 77.8428Z" fill="#3F8BC9"/>
<path d="M38.3748 210.721C38.3748 210.721 38.7011 212.831 35.9805 212.782C35.9805 212.782 38.3185 212.804 38.2553 214.783C38.2553 214.783 38.4658 213.226 40.6106 212.878C40.6106 212.878 38.7981 213.254 38.3748 210.721Z" fill="#ACD9EA"/>
<path d="M28.2729 249.847H13.0416C11.0927 249.847 9.50781 248.412 9.50781 246.648C9.50781 244.919 11.0326 243.505 12.9288 243.45C12.9792 240.759 15.413 238.583 18.3979 238.583C20.2505 238.583 21.9722 239.436 22.9775 240.831C25.0301 240.566 26.8624 241.734 27.3827 243.449H28.2729C30.2217 243.449 31.8066 244.884 31.8066 246.648C31.8066 248.411 30.2217 249.847 28.2729 249.847ZM13.0416 244.395C11.6694 244.395 10.5537 245.406 10.5537 246.647C10.5537 247.89 11.6702 248.9 13.0416 248.9H28.2729C29.645 248.9 30.7608 247.89 30.7608 246.647C30.7608 245.405 29.645 244.395 28.2729 244.395H26.515L26.4451 243.996C26.1804 242.49 24.6015 241.434 22.8399 241.817L22.4549 241.9L22.2617 241.588C21.4798 240.319 19.9986 239.53 18.3971 239.53C15.9573 239.53 13.9731 241.327 13.9731 243.535C13.9731 243.652 13.9822 243.768 13.9927 243.882L14.0416 244.396L13.0416 244.395Z" fill="#ACD9EA"/>
<path d="M278.348 9.21561C278.348 10.5981 277.106 11.7232 275.579 11.7232C274.051 11.7232 272.809 10.5981 272.809 9.21561C272.809 7.83316 274.051 6.70801 275.579 6.70801C277.106 6.70801 278.348 7.83316 278.348 9.21561ZM276.976 9.21561C276.976 8.51792 276.349 7.95092 275.58 7.95092C274.809 7.95092 274.182 8.5186 274.182 9.21561C274.182 9.91261 274.809 10.4803 275.58 10.4803C276.349 10.4803 276.976 9.91329 276.976 9.21561Z" fill="#ACD9EA"/>
<path d="M202.695 98.8118C202.695 100.194 201.453 101.319 199.927 101.319C198.399 101.319 197.156 100.194 197.156 98.8118C197.156 97.4294 198.399 96.3042 199.927 96.3042C201.453 96.3049 202.695 97.4294 202.695 98.8118ZM201.322 98.8118C201.322 98.1141 200.696 97.5471 199.926 97.5471C199.155 97.5471 198.528 98.1148 198.528 98.8118C198.528 99.5095 199.155 100.076 199.926 100.076C200.696 100.077 201.322 99.5095 201.322 98.8118Z" fill="#ACD9EA"/>
<path d="M317.183 33.7335H301.952C300.003 33.7335 298.418 32.2986 298.418 30.5343C298.418 28.8047 299.942 27.391 301.839 27.3365C301.889 24.6452 304.323 22.4697 307.308 22.4697C309.161 22.4697 310.882 23.3226 311.888 24.7173C313.94 24.4518 315.773 25.6206 316.293 27.3352H317.183C319.132 27.3352 320.717 28.7707 320.717 30.5343C320.718 32.2986 319.132 33.7335 317.183 33.7335ZM301.952 28.282C300.58 28.282 299.464 29.2928 299.464 30.5343C299.464 31.7766 300.58 32.7867 301.952 32.7867H317.183C318.555 32.7867 319.671 31.7766 319.671 30.5343C319.671 29.2921 318.555 28.282 317.183 28.282H315.425L315.355 27.8831C315.091 26.3768 313.512 25.3211 311.75 25.7043L311.365 25.7873L311.172 25.4749C310.39 24.2054 308.909 23.4172 307.307 23.4172C304.868 23.4172 302.883 25.2135 302.883 27.4223C302.883 27.5394 302.892 27.6544 302.903 27.7688L302.952 28.2827L301.952 28.282Z" fill="#ACD9EA"/>
<path d="M163.286 297.866C220.579 297.866 267.024 293.561 267.024 288.25C267.024 282.939 220.579 278.633 163.286 278.633C105.992 278.633 59.5469 282.939 59.5469 288.25C59.5469 293.561 105.992 297.866 163.286 297.866Z" fill="#EAF4FE"/>
<path d="M217.341 99.4697L205.42 126.247C203.397 130.791 205.826 135.959 210.845 137.79C215.863 139.621 221.571 137.423 223.595 132.879L235.516 106.102C237.538 101.558 235.109 96.3897 230.091 94.5587C225.071 92.727 219.363 94.9262 217.341 99.4697Z" fill="#E57F8B"/>
<path d="M223.511 88.9972C220.806 89.017 218.631 91.0188 218.653 93.4679C218.674 95.9169 220.886 97.8861 223.591 97.8664C226.296 97.8466 228.471 95.8448 228.449 93.3957C228.428 90.9467 226.216 88.9775 223.511 88.9972Z" fill="#E57F8B"/>
<path d="M242.168 99.1943L247.44 93.9245C248.594 92.6537 248.392 90.7771 246.989 89.7322C245.586 88.6874 243.513 88.8705 242.358 90.1406L237.085 95.4104C235.931 96.6812 236.133 98.5578 237.536 99.6027C238.94 100.647 241.013 100.465 242.168 99.1943Z" fill="#D36C7B"/>
<path d="M232.207 101.179L239.998 100.286C241.788 100.001 242.985 98.4575 242.67 96.8375C242.356 95.2175 240.651 94.1339 238.861 94.4184L231.07 95.3114C229.28 95.596 228.083 97.1397 228.398 98.7597C228.711 100.38 230.417 101.463 232.207 101.179Z" fill="#D36C7B"/>
<path d="M232.037 97.0766L246.161 93.5773C248.096 93.1627 249.293 91.4059 248.834 89.6546C248.377 87.9032 246.436 86.8189 244.501 87.2341L230.377 90.7334C228.442 91.1479 227.245 92.9048 227.703 94.6561C228.163 96.4075 230.103 97.4911 232.037 97.0766Z" fill="#E57F8B"/>
<path d="M246.011 85.0878L242.794 88.0582C241.362 89.3073 241.319 91.3704 242.699 92.6671C244.079 93.9637 246.358 94.0019 247.79 92.7528L251.007 89.7831C252.44 88.534 252.482 86.4709 251.102 85.1742C249.722 83.8775 247.443 83.8387 246.011 85.0878Z" fill="#E57F8B"/>
<path d="M239.811 99.1999C240.236 93.6567 235.617 88.8509 229.494 88.4658C223.371 88.0807 218.063 92.2622 217.637 97.8054C217.212 103.349 221.831 108.154 227.954 108.54C234.077 108.925 239.385 104.743 239.811 99.1999Z" fill="#E57F8B"/>
<path d="M239.115 82.3258H225.896C224.763 82.3258 223.844 81.4941 223.844 80.4676V64.7754H241.168V80.4676C241.167 81.4941 240.249 82.3258 239.115 82.3258Z" fill="#102752"/>
<path d="M244.581 66.9995H240.791C240.134 66.9995 239.602 67.4814 239.602 68.0763V74.8361C239.602 75.431 240.134 75.9129 240.791 75.9129H244.581C247.3 75.9129 249.504 73.9172 249.504 71.4559C249.504 68.9946 247.3 66.9995 244.581 66.9995ZM244.101 73.2018H242.617C242.359 73.2018 242.15 73.0132 242.15 72.7798V70.1313C242.15 69.8985 242.359 69.7093 242.617 69.7093H244.101C245.167 69.7093 246.03 70.4907 246.03 71.4552C246.03 72.4204 245.167 73.2018 244.101 73.2018Z" fill="#102752"/>
<path d="M237.74 29.6636C237.617 30.5784 237.398 31.4061 237.148 32.2059C236.903 33.0104 236.606 33.7667 236.295 34.5113C236.137 34.8816 235.962 35.2356 235.796 35.599C235.714 35.7815 235.623 35.9557 235.534 36.1313L235.4 36.3947C235.351 36.4839 235.303 36.5704 235.298 36.6275C235.162 37.1421 235.047 37.5934 235.025 38.0406C234.942 38.9132 235.045 39.6674 235.216 40.3399C235.37 41.0138 235.632 41.5971 235.921 42.1444C236.057 42.4248 236.236 42.6828 236.413 42.9578C236.465 43.0224 236.514 43.0892 236.562 43.1593L236.632 43.2661L236.824 43.4744C237.078 43.7576 237.34 44.0332 237.584 44.3259L238.552 45.4613C238.987 45.9943 239.356 46.5749 239.648 47.178C240.237 48.3827 240.526 49.6787 240.497 50.9339C240.473 53.4476 239.125 55.7803 237.167 57.0811C236.926 57.2465 236.675 57.3928 236.413 57.5208L236.031 57.7127C235.91 57.7713 235.817 57.7862 235.705 57.8223C235.273 57.9448 234.854 58.0782 234.404 58.1837C233.519 58.4084 232.603 58.6058 231.59 58.714C231.709 57.7964 231.927 56.9674 232.175 56.1662C232.292 55.7585 232.439 55.3794 232.575 54.9887C232.602 54.8947 232.656 54.7858 232.67 54.7103L232.691 54.4986C232.709 54.3652 232.71 54.2304 232.696 54.0963C232.654 53.0685 232.145 52.381 231.678 52.0203C231.569 51.9399 231.229 51.7704 230.882 51.6057C230.237 51.2994 229.63 50.9325 229.064 50.5166C229.061 50.5146 229.058 50.5119 229.055 50.5098L228.823 50.3335L228.49 50.0368L227.833 49.431C227.422 49.0035 227.035 48.5495 226.673 48.0826C226.349 47.5925 225.994 47.1153 225.739 46.5898C223.479 42.4623 224.196 37.2354 227.368 33.9906C228.12 33.165 229.041 32.4918 229.992 31.9452C230.118 31.8649 230.212 31.8233 230.306 31.7852L230.597 31.6634C230.79 31.5824 230.983 31.5 231.184 31.4258C231.585 31.2761 231.977 31.1175 232.386 30.9746C233.208 30.6928 234.044 30.4232 234.933 30.202C235.815 29.9733 236.729 29.7745 237.74 29.6636Z" fill="#EAF4FE"/>
<path d="M265.259 86.8581H206.073C203.502 86.8581 201.418 84.9713 201.418 82.644H269.914C269.914 84.9713 267.83 86.8581 265.259 86.8581Z" fill="#BFCFDD"/>
<path d="M276.348 84.3878H194.986C194.232 84.3878 193.621 83.8344 193.621 83.1524C193.621 82.4704 194.232 81.917 194.986 81.917H276.348C277.101 81.917 277.713 82.4704 277.713 83.1524C277.713 83.8344 277.101 84.3878 276.348 84.3878Z" fill="#EAF4FE"/>
<path d="M221.113 92.5748L219.108 88.0837C218.41 86.5856 219.187 84.8587 220.842 84.227C222.496 83.5954 224.404 84.2985 225.102 85.7967L227.107 90.2877C227.805 91.7859 227.028 93.5128 225.373 94.1444C223.717 94.7754 221.811 94.0729 221.113 92.5748Z" fill="#E57F8B"/>
<path d="M240.031 80.3693H224.984C223.671 80.3693 222.605 79.4048 222.605 78.2156V64.6961C222.605 63.5063 223.671 62.5425 224.984 62.5425H240.031C241.345 62.5425 242.41 63.507 242.41 64.6961V78.2156C242.41 79.4055 241.345 80.3693 240.031 80.3693Z" fill="#1C3763"/>
<path d="M183.979 153.154C184.086 153.261 184.187 153.373 184.293 153.481C186.056 153.061 187.905 153.032 189.68 153.395C191.62 153.651 193.482 154.445 195.031 155.6C195.703 156.147 196.357 156.696 197.007 157.246C197.106 157.163 197.211 157.087 197.307 156.999L219.857 136.584C223.683 133.121 223.683 127.504 219.857 124.04C216.031 120.576 209.827 120.576 206.001 124.04L183.451 144.455C181.749 145.996 180.808 147.964 180.621 149.979C181.841 150.953 182.966 152.016 183.979 153.154Z" fill="#E57F8B"/>
<path d="M183.98 153.154C184.087 153.261 184.188 153.373 184.294 153.481C186.057 153.061 187.906 153.032 189.681 153.395C191.621 153.651 193.483 154.445 195.032 155.6C196.088 156.461 197.106 157.325 198.121 158.193L207.535 149.671C214.341 143.509 214.341 133.52 207.535 127.358L206.359 126.294C204.985 125.049 202.755 125.049 201.381 126.294L177.85 147.596C177.755 147.682 177.673 147.776 177.582 147.865C180.002 149.337 182.171 151.123 183.98 153.154Z" fill="#AAD5F4"/>
<path d="M81.7528 106.55L95.2082 132.725C97.4909 137.166 103.319 139.091 108.225 137.024C113.131 134.957 115.257 129.681 112.975 125.239L99.5194 99.0642C97.2367 94.6228 91.4083 92.6978 86.5023 94.765C81.5964 96.8322 79.4701 102.108 81.7528 106.55Z" fill="#E57F8B"/>
<path d="M104.927 97.7322C106.598 99.6585 106.228 102.447 104.1 103.959C101.972 105.471 98.8925 105.137 97.2219 103.21C95.5512 101.284 95.9212 98.4959 98.0489 96.9835C100.176 95.4703 103.256 95.8059 104.927 97.7322Z" fill="#E57F8B"/>
<path d="M84.4862 90.8993L85.7448 83.8809C86.1215 82.2718 87.8673 81.2433 89.6455 81.5836C91.4229 81.9246 92.559 83.5052 92.183 85.115L90.9244 92.1334C90.5477 93.7425 88.8019 94.771 87.0237 94.4306C85.2456 94.0896 84.1095 92.5091 84.4862 90.8993Z" fill="#D36C7B"/>
<path d="M88.9876 99.1846L84.8959 93.1151C84.0245 91.6714 84.6102 89.8614 86.2049 89.0725C87.7996 88.2836 89.7981 88.8139 90.6703 90.2576L94.7619 96.3271C95.6333 97.7709 95.0476 99.5808 93.4529 100.37C91.8582 101.159 89.8598 100.628 88.9876 99.1846Z" fill="#D36C7B"/>
<path d="M88.3438 105.269C88.6167 105.093 88.8806 104.879 89.1302 104.62C91.0926 102.58 89.6339 82.0628 89.737 73.6565C89.8415 65.0998 89.9009 60.2296 89.9309 57.7472C89.961 55.2525 91.0226 52.6932 93.5098 53.4249C95.8895 54.1253 124.057 55.3172 123.924 58.1365C123.809 60.6006 123.406 89.1378 123.206 93.9045C122.998 97.1438 106.688 96.6245 88.3438 105.269Z" fill="#C4E1F5"/>
<path d="M124.254 60.0623L98.1145 59.5198C97.7566 59.5124 97.4295 59.1189 97.41 58.7194C97.2559 55.5611 95.7145 54.0758 93.5078 53.4258L123.709 55.6965C123.709 55.6965 124.84 56.4344 125.443 57.9019C126.032 59.3374 125.51 60.1297 125.51 60.1297L124.254 60.0623Z" fill="#EAF4FE"/>
<path d="M92.6359 96.7456L86.842 84.5704C85.9924 82.943 86.7616 81.0003 88.5593 80.2312C90.357 79.462 92.5028 80.1583 93.3525 81.7858L99.1456 93.961C99.9952 95.5885 99.226 97.5311 97.4283 98.3003C95.6314 99.0694 93.4855 98.3731 92.6359 96.7456Z" fill="#E57F8B"/>
<path d="M94.2607 79.3778L93.705 83.5074C93.5208 85.2997 91.766 86.6174 89.7863 86.4507C87.8067 86.2839 86.351 84.6952 86.5353 82.903L87.0909 78.7734C87.2751 76.9812 89.0299 75.6634 91.0096 75.8302C92.9893 75.9969 94.4449 77.5849 94.2607 79.3778Z" fill="#E57F8B"/>
<path d="M99.6572 108.339C104.757 105.247 106.124 98.9986 102.709 94.3809C99.2941 89.7633 92.392 88.5265 87.2913 91.6181C82.1906 94.7097 80.8245 100.958 84.2395 105.576C87.6545 110.194 94.5566 111.43 99.6572 108.339Z" fill="#E57F8B"/>
<path d="M103.331 101.662L108.459 100.278C110.187 99.8365 111.193 98.2104 110.705 96.6448C110.217 95.08 108.421 94.1692 106.693 94.611L101.565 95.9955C99.8365 96.4372 98.8305 98.0633 99.3184 99.6289C99.8064 101.192 101.603 102.103 103.331 101.662Z" fill="#E57F8B"/>
<path d="M118.966 67.3881L95.0156 66.7476" stroke="#1C3763" stroke-width="1.769" stroke-miterlimit="10" stroke-linecap="round" stroke-linejoin="round"/>
<path d="M120.194 71.5677L94.7734 71.1089" stroke="#1C3763" stroke-width="1.769" stroke-miterlimit="10" stroke-linecap="round" stroke-linejoin="round"/>
<path d="M119.902 75.8027L94.6172 76.2336" stroke="#1C3763" stroke-width="1.769" stroke-miterlimit="10" stroke-linecap="round" stroke-linejoin="round"/>
<path d="M119.778 80.4766L108.793 81.2818" stroke="#1C3763" stroke-width="1.769" stroke-miterlimit="10" stroke-linecap="round" stroke-linejoin="round"/>
<path d="M125.444 157.316L126.086 156.766C126.815 156.162 127.535 155.492 128.395 154.962C130.101 153.917 132.094 153.278 134.104 153.207C135.222 153.091 136.355 153.122 137.464 153.308C137.593 153.177 137.725 153.05 137.857 152.922L137.855 152.923C139.328 151.306 141.033 149.852 142.907 148.59C142.332 147.429 141.488 146.357 140.346 145.478L111.314 123.493C107.192 120.319 101.009 120.771 97.5028 124.502C93.9969 128.234 94.4961 133.831 98.6178 137.005L125.444 157.316Z" fill="#E57F8B"/>
<path d="M112.066 149.152L124.327 158.275L126.088 156.766C126.817 156.163 127.536 155.493 128.397 154.962C130.103 153.917 132.096 153.279 134.106 153.207C135.224 153.091 136.357 153.123 137.466 153.308C137.595 153.178 137.727 153.05 137.859 152.922L137.857 152.923C139.865 150.718 142.3 148.807 145.02 147.292L116.122 125.403C114.642 124.263 112.42 124.425 111.16 125.766L110.083 126.913C103.847 133.549 104.735 143.506 112.066 149.152Z" fill="#AAD5F4"/>
<path d="M129.461 186.94V172.239C129.461 156.572 143.49 143.872 160.796 143.872C178.101 143.872 192.13 156.572 192.13 172.239V186.94C192.13 193.379 186.365 198.598 179.253 198.598H142.338C135.226 198.598 129.461 193.378 129.461 186.94Z" fill="#C4E1F5"/>
<path d="M183.98 153.155C180.882 150.419 177.258 148.246 173.344 146.752C169.423 145.273 165.203 144.475 160.97 144.478C156.739 144.446 152.509 145.189 148.572 146.632C144.64 148.086 140.99 150.222 137.855 152.924C140.609 149.9 144.16 147.419 148.159 145.769C152.148 144.096 156.568 143.26 160.978 143.274C165.388 143.295 169.796 144.187 173.765 145.897C177.743 147.588 181.264 150.104 183.98 153.155Z" fill="white"/>
<path d="M137.791 173.746L115.241 194.161C111.415 197.625 105.212 197.625 101.385 194.161C97.5591 190.697 97.5591 185.081 101.385 181.617L123.935 161.202C127.762 157.738 133.965 157.738 137.791 161.202C141.617 164.666 141.617 170.282 137.791 173.746Z" fill="#FC9AA1"/>
<path d="M131.319 209.658L103.569 195.43C98.8605 193.016 97.2049 187.604 99.8718 183.341C102.539 179.078 108.517 177.579 113.226 179.994L140.976 194.221C145.684 196.636 147.339 202.048 144.672 206.311C142.006 210.574 136.027 212.072 131.319 209.658Z" fill="#FC9AA1"/>
<path d="M103.875 177.434L127.405 156.131C131.82 152.135 138.978 152.135 143.393 156.131C147.808 160.128 147.808 166.608 143.393 170.605L129.696 183.005C122.89 189.167 111.856 189.167 105.05 183.005L103.874 181.941C102.5 180.696 102.5 178.679 103.875 177.434Z" fill="#C4E1F5"/>
<path d="M134.107 153.208C132.139 153.548 130.279 154.287 128.789 155.431C128.035 155.979 127.397 156.655 126.702 157.322L124.638 159.298C121.881 161.93 119.07 164.511 116.247 167.082C113.408 169.638 110.557 172.183 107.65 174.679L105.468 176.548L104.368 177.475C103.985 177.785 103.709 178.058 103.488 178.433C103.048 179.151 102.951 180.07 103.29 180.878C103.453 181.285 103.721 181.648 104.058 181.979L105.049 183.005L103.916 182.108C103.536 181.807 103.193 181.432 102.966 181.003C102.495 180.147 102.469 179.089 102.9 178.177C103.1 177.725 103.487 177.3 103.827 176.985L104.851 175.99L106.916 174.014C109.672 171.383 112.484 168.801 115.308 166.23C118.148 163.676 121 161.13 123.907 158.635L126.089 156.765C126.818 156.162 127.538 155.492 128.398 154.961C130.104 153.917 132.098 153.279 134.107 153.208Z" fill="white"/>
<path d="M142.308 194.221L122.223 183.923C122.239 184.057 122.252 184.191 122.273 184.326L126.469 204.954C126.563 205.555 126.715 206.136 126.895 206.706L132.652 209.657C137.36 212.071 143.339 210.573 146.006 206.31C148.672 202.048 147.016 196.635 142.308 194.221Z" fill="#E57F8B"/>
<path d="M184.795 173.746L207.345 194.161C211.172 197.625 217.375 197.625 221.202 194.161C225.028 190.697 225.028 185.081 221.202 181.617L198.652 161.202C194.825 157.738 188.622 157.738 184.795 161.202C180.969 164.666 180.969 170.282 184.795 173.746Z" fill="#FC9AA1"/>
<path d="M191.265 209.658L219.015 195.43C223.723 193.016 225.378 187.604 222.712 183.341C220.045 179.078 214.067 177.579 209.358 179.994L181.608 194.221C176.9 196.636 175.244 202.048 177.911 206.311C180.578 210.574 186.556 212.072 191.265 209.658Z" fill="#FC9AA1"/>
<path d="M196.742 204.954L200.938 184.326C200.977 184.077 201.007 183.829 201.03 183.582L180.28 194.221C175.571 196.635 173.916 202.047 176.583 206.31C179.25 210.573 185.228 212.072 189.937 209.657L196.436 206.325C196.562 205.876 196.67 205.421 196.742 204.954Z" fill="#E57F8B"/>
<path d="M218.708 177.434L195.178 156.131C190.763 152.135 183.605 152.135 179.19 156.131C174.775 160.128 174.775 166.608 179.19 170.605L192.887 183.005C199.693 189.167 210.727 189.167 217.533 183.005L218.709 181.941C220.083 180.696 220.083 178.679 218.708 177.434Z" fill="#C4E1F5"/>
<path d="M217.532 183.004L218.496 182.004C218.825 181.68 219.094 181.333 219.261 180.938C219.603 180.157 219.557 179.263 219.154 178.547C218.957 178.181 218.694 177.878 218.351 177.597L217.278 176.694L215.15 174.874C212.316 172.444 209.537 169.964 206.769 167.475C204.018 164.97 201.279 162.454 198.595 159.888L194.595 156.035C193.27 154.797 191.55 153.916 189.684 153.395C191.623 153.65 193.486 154.444 195.035 155.599C196.507 156.801 197.909 158.003 199.329 159.223C202.162 161.653 204.941 164.133 207.709 166.623C210.458 169.13 213.197 171.645 215.882 174.212L217.892 176.138L218.889 177.108C219.242 177.445 219.567 177.865 219.751 178.314C220.134 179.219 220.054 180.244 219.582 181.067C219.352 181.481 219.008 181.84 218.638 182.13L217.532 183.004Z" fill="white"/>
<path d="M188.037 169.499H135.167C126.432 169.499 119.719 176.496 120.941 184.326L121.519 187.168C124.417 186.527 127.169 185.208 129.464 183.204V185.735C129.464 192.174 135.229 197.393 142.341 197.393H179.256C186.368 197.393 192.133 192.174 192.133 185.735V182.323L192.886 183.004C195.381 185.263 198.445 186.69 201.66 187.293L202.264 184.326C203.486 176.496 196.772 169.499 188.037 169.499Z" fill="#AAD5F4"/>
<path d="M124.042 104.309C122.093 91.873 132.996 80.2042 148.392 78.2493C163.785 76.2951 177.845 84.794 179.793 97.2305L181.327 107.019C184.944 120.286 179.371 134.864 159.786 134.728L156.732 135.983C141.81 141.81 127.654 127.587 125.576 114.097L124.042 104.309Z" fill="#081C3D"/>
<path d="M181.18 102.443C182.631 111.756 171.895 120.83 157.201 122.706C142.51 124.582 129.423 118.551 127.972 109.238L126.83 101.908C123.82 92.0114 132.195 82.0572 150.802 81.6441C165.171 76.8644 178.497 85.0086 180.037 95.1125L181.18 102.443Z" fill="#081C3D"/>
<path d="M146.107 130.738L140.956 131.401C137.035 131.992 133.326 129.594 132.673 126.042C132.02 122.492 134.67 119.134 138.592 118.544L143.743 117.88L146.107 130.738Z" fill="#FC9AA1"/>
<path d="M142.858 127.66L140.504 128.049C138.698 128.321 136.991 127.217 136.69 125.582C136.389 123.948 137.61 122.402 139.415 122.13L141.77 121.741L142.858 127.66Z" fill="#E57F8B"/>
<path d="M167.859 144.607C168.554 149.349 164.874 153.702 159.635 154.333C154.399 154.962 149.59 151.63 148.894 146.887L145.651 124.356C144.955 119.616 148.636 115.263 153.873 114.633C159.111 114.003 163.92 117.336 164.615 122.077L167.859 144.607Z" fill="#FC9AA1"/>
<path d="M164.61 122.077C163.915 117.336 159.108 114.003 153.869 114.633C148.633 115.263 144.951 119.616 145.647 124.356L147.187 134.853C150.456 138.75 155.048 141.329 160.319 141.742C162.754 141.933 165.133 141.644 167.38 140.952L164.61 122.077Z" fill="#E57F8B"/>
<path d="M179.903 115.653C182.058 127.034 175.033 137.622 164.213 139.302C153.396 140.98 142.879 133.113 140.725 121.732L139.029 112.775C136.874 101.394 147.406 97.9793 158.223 96.3007C169.042 94.6222 176.052 95.3144 178.206 106.696L179.903 115.653Z" fill="#FC9AA1"/>
<path d="M158.872 155.944C166.283 155.944 172.29 153.446 172.29 150.364C172.29 147.282 166.283 144.784 158.872 144.784C151.461 144.784 145.453 147.282 145.453 150.364C145.453 153.446 151.461 155.944 158.872 155.944Z" fill="#FC9AA1"/>
<path d="M167.077 122.27C167.29 123.344 166.501 124.37 165.316 124.562C164.13 124.755 162.997 124.041 162.785 122.967C162.572 121.893 163.361 120.867 164.546 120.675C165.732 120.483 166.865 121.197 167.077 122.27Z" fill="#E57F8B"/>
<path d="M167.19 123.506L163.153 124.161C162.536 124.261 161.945 123.89 161.834 123.33C161.724 122.771 162.134 122.236 162.752 122.136L166.789 121.481C167.406 121.381 167.997 121.752 168.108 122.312C168.218 122.871 167.807 123.406 167.19 123.506Z" fill="#E57F8B"/>
<path d="M149.859 114.592C151.019 114.445 152.143 114.431 153.183 114.531C154.222 114.632 155.178 114.847 156.001 115.158" stroke="#081C3D" stroke-width="1.1783" stroke-miterlimit="10" stroke-linecap="round"/>
<path d="M175.2 111.663C174.037 111.784 172.946 112.027 171.967 112.361C170.989 112.694 170.124 113.12 169.414 113.608" stroke="#081C3D" stroke-width="1.1783" stroke-miterlimit="10" stroke-linecap="round"/>
<path d="M158.191 128.63C159.911 129.855 162.938 130.267 164.839 129.798" stroke="#E57F8B" stroke-width="3.9231" stroke-miterlimit="10" stroke-linecap="round"/>
<path d="M176.175 94.1158C177.114 100.137 168.724 106.187 157.44 107.628C146.157 109.069 136.249 105.355 135.311 99.3338L134.572 94.595C132.452 88.2198 139.049 81.6336 153.304 81.0829C164.393 77.7633 174.445 82.8445 175.437 89.3769L176.175 94.1158Z" fill="#081C3D"/>
<path d="M154.215 122.671C153.243 122.815 152.327 122.219 152.168 121.341L151.828 119.474C151.669 118.595 152.327 117.765 153.297 117.621C154.269 117.476 155.185 118.072 155.344 118.951L155.684 120.817C155.844 121.697 155.186 122.526 154.215 122.671Z" fill="#081C3D"/>
<path d="M173.801 120.095C172.829 120.239 171.913 119.644 171.753 118.765L171.414 116.898C171.255 116.019 171.913 115.189 172.883 115.045C173.855 114.901 174.771 115.496 174.93 116.375L175.269 118.241C175.43 119.121 174.772 119.951 173.801 120.095Z" fill="#081C3D"/>
<path d="M238.325 123.42L219.377 152.309C216.612 156.52 218.141 161.963 222.793 164.466C227.444 166.968 233.457 165.584 236.221 161.373L255.169 132.485C257.934 128.274 256.405 122.831 251.754 120.328C247.102 117.825 241.09 119.21 238.325 123.42Z" fill="#E57F8B"/>
<path d="M247.878 115.073C241.757 115.96 237.588 121.172 238.569 126.715C239.549 132.257 245.306 136.031 251.428 135.143C257.55 134.255 261.718 129.044 260.737 123.501C259.757 117.958 254 114.185 247.878 115.073Z" fill="#E57F8B"/>
<path d="M253.578 129.318C253.565 130.755 254.841 131.929 256.427 131.942L264.181 131.799C265.768 131.811 267.065 130.656 267.079 129.22C267.092 127.783 265.817 126.608 264.23 126.596L256.476 126.739C254.889 126.726 253.592 127.881 253.578 129.318Z" fill="#E57F8B"/>
<path d="M246.836 122.605C248.354 123.026 249.961 122.254 250.426 120.881L252.487 114.111C252.952 112.738 252.099 111.283 250.582 110.861C249.065 110.44 247.457 111.212 246.992 112.585L244.932 119.355C244.466 120.728 245.319 122.183 246.836 122.605Z" fill="#E57F8B"/>
<path d="M252.543 122.811C254.061 123.233 255.668 122.461 256.133 121.087L258.194 114.318C258.659 112.944 257.806 111.489 256.289 111.068C254.772 110.646 253.164 111.418 252.699 112.792L250.639 119.561C250.173 120.935 251.026 122.39 252.543 122.811Z" fill="#E57F8B"/>
<path d="M254.998 124.192C256.255 125.069 258.06 124.857 259.029 123.72L263.584 118.038C264.554 116.899 264.32 115.266 263.063 114.388C261.806 113.511 260.001 113.723 259.033 114.86L254.477 120.542C253.508 121.681 253.741 123.314 254.998 124.192Z" fill="#E57F8B"/>
<path d="M232.233 136.551L246.169 144.05C246.986 144.49 248.042 144.247 248.527 143.507L251.016 139.716C251.502 138.976 251.234 138.021 250.416 137.581L236.481 130.081C235.105 129.342 233.328 129.751 232.511 130.996L231.223 132.957C230.406 134.202 230.859 135.811 232.233 136.551Z" fill="#081C3D"/>
<path d="M229.576 135.862C230.372 138.823 233.669 140.64 236.94 139.92C240.211 139.2 242.219 136.215 241.423 133.254C240.627 130.292 237.33 128.475 234.059 129.195C230.788 129.916 228.781 132.9 229.576 135.862Z" fill="#C4E1F5"/>
<path d="M236.31 137.58C238.151 137.175 239.285 135.489 238.837 133.822C238.39 132.155 236.528 131.13 234.687 131.535C232.847 131.94 231.713 133.626 232.16 135.292C232.607 136.959 234.47 137.985 236.31 137.58Z" fill="#1C3763"/>
<path d="M229.576 135.862C230.372 138.823 233.669 140.64 236.94 139.92C240.211 139.2 242.219 136.215 241.423 133.254C240.627 130.292 237.33 128.475 234.059 129.195C230.788 129.916 228.781 132.9 229.576 135.862Z" stroke="#1C3763" stroke-width="0.8845" stroke-miterlimit="10"/>
<path d="M235.677 135.24C236.093 135.149 236.349 134.768 236.248 134.392C236.147 134.016 235.726 133.784 235.311 133.875C234.896 133.967 234.64 134.348 234.741 134.724C234.841 135.1 235.262 135.331 235.677 135.24Z" fill="#EAF4FE"/>
<path d="M235.524 134.655C235.791 134.595 235.955 134.352 235.891 134.109L235.007 130.819C234.942 130.577 234.672 130.428 234.404 130.487C234.137 130.546 233.973 130.79 234.038 131.032L234.921 134.322C234.986 134.565 235.256 134.714 235.524 134.655Z" fill="#EAF4FE"/>
<path d="M235.611 134.597C235.376 134.467 235.069 134.535 234.926 134.748L233.94 136.243C233.797 136.456 233.871 136.734 234.107 136.864C234.342 136.994 234.649 136.926 234.792 136.713L235.779 135.218C235.921 135.005 235.846 134.727 235.611 134.597Z" fill="#EAF4FE"/>
<path d="M236.73 155.898C236.022 151.042 231.1 147.624 225.735 148.265L194.118 152.04C192.583 152.223 191.184 152.728 189.977 153.456C191.806 153.754 193.555 154.518 195.022 155.613C196.493 156.815 197.894 158.019 199.312 159.241C202.144 161.673 204.921 164.154 207.686 166.646C208.223 167.136 208.756 167.63 209.291 168.122L228.297 165.852C233.662 165.212 237.437 160.755 236.73 155.898Z" fill="#E57F8B"/>
<path d="M225.782 165.527L223.326 148.672C223.187 147.723 222.225 147.054 221.176 147.18L186.594 151.31C185.172 151.48 183.853 151.891 182.664 152.479C182.88 152.705 183.099 152.928 183.306 153.16C183.414 153.267 183.514 153.379 183.62 153.487C185.383 153.068 187.232 153.041 189.007 153.406C190.946 153.663 192.808 154.458 194.356 155.614C195.828 156.816 197.228 158.019 198.647 159.241C201.479 161.673 204.256 164.155 207.021 166.647C207.946 167.491 208.865 168.34 209.786 169.188L224.134 167.475C225.182 167.349 225.92 166.477 225.782 165.527Z" fill="#C4E1F5"/>
<path d="M114.617 166.866C114.849 166.655 115.078 166.442 115.31 166.231C118.15 163.677 121.002 161.131 123.909 158.636L126.091 156.767C126.82 156.163 127.54 155.493 128.401 154.962C130.106 153.917 132.1 153.279 134.11 153.207C134.428 153.175 134.747 153.157 135.067 153.148L106.8 145.575C101.416 144.133 95.7606 146.915 94.1666 151.789C92.5734 156.663 95.6463 161.783 101.03 163.226L114.617 166.866Z" fill="#E57F8B"/>
<path d="M136.853 144.274L109.901 161.653C105.328 164.602 98.9803 163.637 95.7224 159.496C92.4654 155.356 93.5315 149.61 98.1051 146.66L125.057 129.281C129.63 126.332 135.978 127.297 139.236 131.438C142.493 135.578 141.426 141.324 136.853 144.274Z" fill="#E57F8B"/>
<path d="M95.7246 159.496C95.0885 158.769 94.5577 157.958 94.1772 157.078C93.8194 156.193 93.5953 155.258 93.5194 154.305C93.4209 152.399 93.9524 150.436 95.1216 148.799C95.6802 147.966 96.4133 147.231 97.2433 146.608C97.6651 146.286 98.0772 146.014 98.4877 145.743L99.723 144.921L104.696 141.674C111.366 137.393 118.095 133.188 125.059 129.281C118.705 133.964 112.115 138.346 105.467 142.654L100.452 145.847L99.1892 146.636C98.7636 146.898 98.3426 147.16 97.9749 147.427C97.2208 147.967 96.5283 148.593 95.9825 149.319C93.7178 152.178 93.4998 156.343 95.7246 159.496Z" fill="#FC9AA1"/>
<path d="M148.202 134.499C148.575 134.37 148.76 133.992 148.618 133.655L141.842 117.685C141.7 117.348 141.282 117.18 140.91 117.309L148.202 134.499Z" fill="white"/>
<path d="M138.222 117.624C137.685 117.81 137.083 117.568 136.877 117.082L136.765 116.817C136.559 116.331 136.826 115.786 137.363 115.6C137.9 115.413 138.502 115.655 138.708 116.141L138.82 116.406C139.026 116.892 138.758 117.437 138.222 117.624Z" fill="#EAF4FE"/>
<path d="M146.6 137.378C145.2 137.865 143.63 137.232 143.093 135.965L136.029 119.315C135.491 118.048 136.19 116.626 137.59 116.14C138.989 115.653 140.56 116.286 141.097 117.553L148.161 134.203C148.699 135.47 147.999 136.891 146.6 137.378Z" fill="#BFCFDD"/>
<path d="M140.51 123.023C139.974 123.209 139.372 122.967 139.166 122.481L137.851 119.382C137.645 118.896 137.912 118.35 138.449 118.164C138.986 117.977 139.588 118.22 139.794 118.706L141.109 121.805C141.315 122.291 141.046 122.836 140.51 123.023Z" fill="#EAF4FE"/>
<path d="M141.741 125.923C141.204 126.11 140.602 125.867 140.396 125.381L140.284 125.117C140.078 124.631 140.346 124.085 140.883 123.899C141.419 123.712 142.022 123.955 142.228 124.441L142.34 124.705C142.546 125.191 142.278 125.737 141.741 125.923Z" fill="#EAF4FE"/>
<path d="M142.279 129.162C144.19 135.682 142.196 141.817 137.828 142.866C133.46 143.914 128.37 139.48 126.46 132.961C124.549 126.442 126.543 120.307 130.911 119.258C135.279 118.208 140.369 122.643 142.279 129.162Z" fill="#E57F8B"/>
<path d="M137.351 115.076L135.698 124.777C135.417 126.422 133.716 127.551 131.898 127.297C130.08 127.043 128.833 125.503 129.114 123.857L130.767 114.157C131.047 112.511 132.749 111.382 134.567 111.636C136.385 111.89 137.632 113.431 137.351 115.076Z" fill="#E57F8B"/>
<path d="M133.946 111.432L137.115 111.299C138.952 111.207 140.524 112.479 140.626 114.142C140.728 115.805 139.323 117.228 137.486 117.32L134.317 117.453C132.481 117.546 130.908 116.274 130.806 114.611C130.703 112.948 132.109 111.524 133.946 111.432Z" fill="#E57F8B"/>
<path d="M145.169 124.294L135.906 129.393C134.333 130.258 132.285 129.806 131.329 128.383C130.373 126.959 130.873 125.105 132.445 124.239L141.709 119.14C143.281 118.275 145.33 118.727 146.285 120.151C147.241 121.574 146.741 123.429 145.169 124.294Z" fill="#E57F8B"/>
<path d="M148.731 131.775L138.145 133.897C136.349 134.257 134.571 133.23 134.173 131.604C133.775 129.978 134.909 128.368 136.706 128.008L147.29 125.886C149.086 125.526 150.865 126.553 151.262 128.179C151.661 129.805 150.527 131.415 148.731 131.775Z" fill="#E57F8B"/>
<path d="M106.818 165.852L113.707 167.698C114.241 167.21 114.772 166.718 115.307 166.231C118.148 163.677 121 161.131 123.906 158.635L126.088 156.766C126.818 156.163 127.537 155.493 128.398 154.962C130.103 153.917 132.097 153.279 134.107 153.207C135.225 153.091 136.357 153.123 137.466 153.309C137.595 153.179 137.727 153.051 137.859 152.923C137.884 152.895 137.912 152.87 137.938 152.842L108.214 144.878L103.284 159.96C102.462 162.471 104.044 165.109 106.818 165.852Z" fill="#C4E1F5"/>
<path d="M183.328 196.17H138.608C133.988 196.17 130.242 199.561 130.242 203.744V207.425C130.242 222.788 143.999 235.242 160.969 235.242C177.938 235.242 191.695 222.788 191.695 207.425V203.744C191.694 199.561 187.949 196.17 183.328 196.17Z" fill="#102752"/>
<path d="M135.137 234.347L79.0878 222.755C71.7451 221.236 67.152 214.616 68.8301 207.969C70.5075 201.321 77.8202 197.163 85.1629 198.682L141.212 210.275C148.555 211.793 153.148 218.413 151.47 225.061C149.793 231.708 142.48 235.866 135.137 234.347Z" fill="#102752"/>
<path d="M183.609 234.347L239.658 222.755C247.001 221.236 251.594 214.616 249.916 207.969C248.238 201.321 240.926 197.163 233.583 198.682L177.534 210.275C170.191 211.793 165.598 218.413 167.275 225.061C168.953 231.708 176.266 235.866 183.609 234.347Z" fill="#102752"/>
<path d="M181.178 216.929H142.01C135.706 216.929 130.364 212.728 129.482 207.078L125.787 188.913C124.711 182.017 130.623 175.856 138.314 175.856H184.873C192.565 175.856 198.477 182.018 197.401 188.913L193.705 207.078C192.824 212.728 187.482 216.929 181.178 216.929Z" fill="#BFCFDD"/>
<path d="M181.178 216.929H142.01C135.706 216.929 130.364 213.04 129.482 207.808L125.787 190.989C124.711 184.605 130.623 178.899 138.314 178.899H184.873C192.565 178.899 198.477 184.605 197.401 190.989L193.705 207.808C192.824 213.039 187.482 216.929 181.178 216.929Z" fill="#EAF4FE"/>
<path d="M136.819 224.338L186.342 224.464C189.012 224.471 191.184 222.516 191.191 220.098C191.199 217.681 189.039 215.715 186.369 215.708L136.846 215.582C134.175 215.575 132.004 217.53 131.996 219.948C131.989 222.366 134.148 224.331 136.819 224.338Z" fill="#BFCFDD"/>
<path d="M177.419 221.547C173.314 219.101 168.773 218.315 164.796 219.779C164.643 219.836 164.501 219.91 164.366 219.991C164.137 220.043 163.911 220.104 163.689 220.186C163.47 220.267 163.279 220.391 163.111 220.548C162.816 220.562 162.531 220.612 162.261 220.712C161.467 221.004 161.316 222.366 161.628 224.401L186.348 224.464C189.018 224.47 191.19 222.515 191.197 220.098C191.203 218.139 189.787 216.477 187.829 215.914L179.865 219.953C178.966 220.409 178.154 220.949 177.419 221.547Z" fill="#ABBFCE"/>
<path d="M156.477 220.712C156.205 220.612 155.92 220.562 155.626 220.548C155.458 220.391 155.267 220.267 155.048 220.186C154.826 220.104 154.599 220.043 154.371 219.991C154.236 219.91 154.094 219.836 153.941 219.779C149.964 218.315 145.423 219.101 141.318 221.547C140.582 220.949 139.771 220.409 138.873 219.954L133.2 217.076C132.456 217.844 131.999 218.847 131.996 219.949C131.989 222.366 134.148 224.332 136.819 224.339L157.111 224.391C157.421 222.361 157.269 221.004 156.477 220.712Z" fill="#ABBFCE"/>
<path d="M141.57 220.019C141.568 220.732 142.223 221.311 143.033 221.313C143.842 221.315 144.501 220.74 144.503 220.027C144.505 219.314 143.85 218.736 143.041 218.733C142.23 218.731 141.572 219.307 141.57 220.019Z" fill="#8EAABC"/>
<path d="M152.347 221.084H147.797C147.15 221.084 146.625 220.609 146.625 220.023C146.625 219.437 147.15 218.962 147.797 218.962H152.347C152.995 218.962 153.52 219.437 153.52 220.023C153.52 220.609 152.995 221.084 152.347 221.084Z" fill="#8EAABC"/>
<path d="M161.592 205.987C164.676 205.987 167.176 203.723 167.176 200.931C167.176 198.139 164.676 195.876 161.592 195.876C158.508 195.876 156.008 198.139 156.008 200.931C156.008 203.723 158.508 205.987 161.592 205.987Z" fill="white"/>
<path d="M193.198 246.833L243.354 221.39C249.925 218.057 252.267 210.532 248.585 204.583C244.903 198.635 236.591 196.515 230.02 199.848L179.864 225.291C173.294 228.625 170.952 236.149 174.634 242.098C178.315 248.046 186.627 250.167 193.198 246.833Z" fill="#1C3763"/>
<path d="M230.024 199.848C227.233 201.426 224.397 202.935 221.585 204.48L213.074 208.998C207.4 212.009 201.671 214.933 195.944 217.856L187.321 222.193L182.994 224.337C181.57 225.068 180.053 225.726 178.771 226.517C176.16 228.14 174.287 230.703 173.551 233.524C172.751 236.345 173.174 239.428 174.638 242.098C172.895 239.561 172.273 236.392 172.886 233.394C173.521 230.402 175.396 227.594 178.14 225.738C179.536 224.8 180.979 224.131 182.4 223.376L186.678 221.155L195.266 216.761C201.011 213.865 206.756 210.968 212.555 208.159L221.254 203.946C224.178 202.581 227.079 201.179 230.024 199.848Z" fill="#2E4972"/>
<path d="M175.617 229.382C168.943 231.84 179.056 254.349 185.73 251.891C192.405 249.434 195.552 242.402 192.759 236.186C189.967 229.97 182.292 226.924 175.617 229.382Z" fill="#102752"/>
<path d="M164.798 225.117C156.949 228.007 173.422 264.673 181.271 261.782C189.121 258.892 191.796 248.341 187.247 238.217C182.698 228.091 172.647 222.227 164.798 225.117Z" fill="#102752"/>
<path d="M181.271 261.782C183.481 260.794 185.272 259.212 186.451 257.325C187.666 255.454 188.345 253.335 188.651 251.192C189.232 246.882 188.358 242.481 186.584 238.459C185.672 236.451 184.518 234.534 183.127 232.771C181.751 230.997 180.107 229.395 178.245 228.037C176.374 226.696 174.253 225.609 171.943 225.036C169.644 224.43 167.141 224.428 164.797 225.117C167.026 224.149 169.645 223.992 172.104 224.418C174.573 224.868 176.892 225.891 178.92 227.232C183.003 229.929 185.973 233.797 187.908 237.972C189.739 242.184 190.594 246.831 189.75 251.342C189.332 253.583 188.46 255.781 187.039 257.663C185.609 259.523 183.612 261.065 181.271 261.782Z" fill="#1C3763"/>
<path d="M163.689 225.524C157.239 227.9 173.712 264.564 180.163 262.189C185.545 260.207 185.478 250.667 180.929 240.542C176.379 230.417 169.072 223.543 163.689 225.524Z" fill="#1C3763"/>
<path d="M162.262 226.05C157.716 227.724 174.19 264.389 178.735 262.716C182.529 261.319 181.392 252.172 176.843 242.047C172.293 231.922 166.055 224.654 162.262 226.05Z" fill="#081C3D"/>
<path d="M125.548 246.833L75.3916 221.39C68.821 218.057 66.479 210.532 70.1609 204.583C73.8428 198.635 82.1539 196.515 88.7252 199.848L138.881 225.291C145.452 228.625 147.794 236.149 144.112 242.098C140.43 248.046 132.118 250.167 125.548 246.833Z" fill="#1C3763"/>
<path d="M88.7227 199.848C91.6677 201.179 94.5684 202.581 97.4932 203.946L106.192 208.159C111.991 210.968 117.736 213.865 123.481 216.761L132.068 221.155L136.347 223.376C137.768 224.131 139.21 224.8 140.607 225.738C143.351 227.594 145.226 230.402 145.861 233.394C146.473 236.392 145.852 239.561 144.109 242.098C145.573 239.428 145.996 236.345 145.195 233.524C144.458 230.703 142.586 228.14 139.975 226.517C138.693 225.726 137.177 225.068 135.752 224.337L131.426 222.193L122.802 217.856C117.075 214.932 111.346 212.008 105.672 208.998L97.1616 204.48C94.3496 202.935 91.5143 201.426 88.7227 199.848Z" fill="#2E4972"/>
<path d="M143.126 229.382C149.801 231.84 139.687 254.35 133.012 251.892C126.338 249.434 123.191 242.403 125.983 236.187C128.776 229.971 136.451 226.925 143.126 229.382Z" fill="#102752"/>
<path d="M153.943 225.118C161.792 228.008 145.319 264.673 137.47 261.783C129.621 258.893 126.945 248.342 131.494 238.217C136.043 228.092 146.094 222.227 153.943 225.118Z" fill="#102752"/>
<path d="M137.471 261.782C135.13 261.065 133.134 259.524 131.702 257.663C130.281 255.781 129.41 253.583 128.991 251.342C128.146 246.831 129.001 242.185 130.833 237.972C132.768 233.798 135.739 229.929 139.821 227.232C141.849 225.892 144.167 224.868 146.636 224.419C149.096 223.992 151.714 224.15 153.944 225.117C151.599 224.429 149.097 224.43 146.799 225.037C144.488 225.609 142.366 226.697 140.496 228.038C138.633 229.396 136.989 230.997 135.613 232.771C134.223 234.535 133.069 236.451 132.157 238.459C130.383 242.481 129.509 246.882 130.09 251.192C130.395 253.335 131.076 255.454 132.289 257.325C133.47 259.212 135.261 260.794 137.471 261.782Z" fill="#1C3763"/>
<path d="M155.05 225.524C161.5 227.9 145.028 264.564 138.577 262.189C133.194 260.207 133.262 250.667 137.811 240.542C142.359 230.417 149.668 223.543 155.05 225.524Z" fill="#1C3763"/>
<path d="M156.476 226.051C161.022 227.725 144.549 264.39 140.003 262.716C136.21 261.319 137.346 252.172 141.895 242.047C146.444 231.922 152.683 224.654 156.476 226.051Z" fill="#081C3D"/>
</svg>
