<svg width="121" height="88" viewBox="0 0 121 88" fill="none" xmlns="http://www.w3.org/2000/svg">
<path fill-rule="evenodd" clip-rule="evenodd" d="M39.75 41.5V0.5L45.25 5.5V22L54.25 29.5V12L59.25 16V57.5L54.25 53.5V37L45.25 29.5V45.5L39.75 41.5ZM61.25 16V26.5L66.75 22.5V19L75.25 12.5V22.5L61.25 33.5V57.5L81.25 41.5V30.5L76.25 34.5V39L66.75 46.5V36L81.25 25V0.5L61.25 16Z" fill="#7B2CF2"/>
<path d="M34.868 70.332V81.5H32.628V76.748H27.844V81.5H25.604V70.332H27.844V74.924H32.628V70.332H34.868ZM41.2487 81.612C40.4701 81.612 39.7661 81.4787 39.1367 81.212C38.5181 80.9453 38.0274 80.5613 37.6647 80.06C37.3021 79.5587 37.1154 78.9667 37.1047 78.284H39.5047C39.5367 78.7427 39.6967 79.1053 39.9847 79.372C40.2834 79.6387 40.6887 79.772 41.2007 79.772C41.7234 79.772 42.1341 79.6493 42.4327 79.404C42.7314 79.148 42.8808 78.8173 42.8808 78.412C42.8808 78.0813 42.7794 77.8093 42.5767 77.596C42.3741 77.3827 42.1181 77.2173 41.8088 77.1C41.5101 76.972 41.0941 76.8333 40.5608 76.684C39.8354 76.4707 39.2434 76.2627 38.7847 76.06C38.3367 75.8467 37.9474 75.532 37.6167 75.116C37.2967 74.6893 37.1367 74.124 37.1367 73.42C37.1367 72.7587 37.3021 72.1827 37.6327 71.692C37.9634 71.2013 38.4274 70.828 39.0247 70.572C39.6221 70.3053 40.3047 70.172 41.0728 70.172C42.2247 70.172 43.1581 70.4547 43.8728 71.02C44.5981 71.5747 44.9981 72.3533 45.0728 73.356H42.6087C42.5874 72.972 42.4221 72.6573 42.1128 72.412C41.8141 72.156 41.4141 72.028 40.9127 72.028C40.4754 72.028 40.1234 72.14 39.8567 72.364C39.6007 72.588 39.4727 72.9133 39.4727 73.34C39.4727 73.6387 39.5687 73.8893 39.7607 74.092C39.9634 74.284 40.2087 74.444 40.4967 74.572C40.7954 74.6893 41.2114 74.828 41.7448 74.988C42.4701 75.2013 43.0621 75.4147 43.5208 75.628C43.9794 75.8413 44.3741 76.1613 44.7048 76.588C45.0354 77.0147 45.2008 77.5747 45.2008 78.268C45.2008 78.8653 45.0461 79.42 44.7367 79.932C44.4274 80.444 43.9741 80.8547 43.3767 81.164C42.7794 81.4627 42.0701 81.612 41.2487 81.612ZM46.8867 77.052C46.8867 76.1667 47.0681 75.3827 47.4307 74.7C47.8041 74.0067 48.3054 73.468 48.9347 73.084C49.5641 72.7 50.2574 72.508 51.0147 72.508C51.6441 72.508 52.1987 72.6307 52.6787 72.876C53.1694 73.1107 53.5641 73.4147 53.8627 73.788V72.636H56.1187V85.724H53.8627V80.284C53.5641 80.668 53.1641 80.988 52.6627 81.244C52.1614 81.5 51.5961 81.628 50.9667 81.628C50.2201 81.628 49.5321 81.436 48.9027 81.052C48.2841 80.6573 47.7934 80.1133 47.4307 79.42C47.0681 78.7267 46.8867 77.9373 46.8867 77.052ZM53.8627 77.068C53.8627 76.524 53.7507 76.0547 53.5267 75.66C53.3027 75.2653 53.0094 74.9667 52.6467 74.764C52.2947 74.5613 51.9161 74.46 51.5107 74.46C51.1161 74.46 50.7374 74.5613 50.3747 74.764C50.0227 74.9667 49.7347 75.2653 49.5107 75.66C49.2867 76.044 49.1747 76.508 49.1747 77.052C49.1747 77.596 49.2867 78.0707 49.5107 78.476C49.7347 78.8707 50.0227 79.1693 50.3747 79.372C50.7374 79.5747 51.1161 79.676 51.5107 79.676C51.9161 79.676 52.2947 79.5747 52.6467 79.372C53.0094 79.1693 53.3027 78.8707 53.5267 78.476C53.7507 78.0813 53.8627 77.612 53.8627 77.068ZM66.9945 72.636V81.5H64.7385V80.38C64.4505 80.764 64.0718 81.068 63.6025 81.292C63.1438 81.5053 62.6425 81.612 62.0985 81.612C61.4052 81.612 60.7918 81.468 60.2585 81.18C59.7252 80.8813 59.3038 80.4493 58.9945 79.884C58.6958 79.308 58.5465 78.6253 58.5465 77.836V72.636H60.7865V77.516C60.7865 78.22 60.9625 78.764 61.3145 79.148C61.6665 79.5213 62.1465 79.708 62.7545 79.708C63.3732 79.708 63.8585 79.5213 64.2105 79.148C64.5625 78.764 64.7385 78.22 64.7385 77.516V72.636H66.9945ZM68.9486 77.036C68.9486 76.14 69.1246 75.3453 69.4766 74.652C69.8393 73.9587 70.3246 73.4253 70.9326 73.052C71.5513 72.6787 72.2393 72.492 72.9966 72.492C73.658 72.492 74.234 72.6253 74.7246 72.892C75.226 73.1587 75.626 73.4947 75.9246 73.9V72.636H78.1806V81.5H75.9246V80.204C75.6366 80.62 75.2366 80.9667 74.7246 81.244C74.2233 81.5107 73.642 81.644 72.9806 81.644C72.234 81.644 71.5513 81.452 70.9326 81.068C70.3246 80.684 69.8393 80.1453 69.4766 79.452C69.1246 78.748 68.9486 77.9427 68.9486 77.036ZM75.9246 77.068C75.9246 76.524 75.818 76.06 75.6046 75.676C75.3913 75.2813 75.1033 74.9827 74.7406 74.78C74.378 74.5667 73.9886 74.46 73.5726 74.46C73.1566 74.46 72.7726 74.5613 72.4206 74.764C72.0686 74.9667 71.7806 75.2653 71.5566 75.66C71.3433 76.044 71.2366 76.5027 71.2366 77.036C71.2366 77.5693 71.3433 78.0387 71.5566 78.444C71.7806 78.8387 72.0686 79.1427 72.4206 79.356C72.7833 79.5693 73.1673 79.676 73.5726 79.676C73.9886 79.676 74.378 79.5747 74.7406 79.372C75.1033 79.1587 75.3913 78.86 75.6046 78.476C75.818 78.0813 75.9246 77.612 75.9246 77.068ZM82.9284 74.012C83.2164 73.5427 83.5897 73.1747 84.0484 72.908C84.5177 72.6413 85.051 72.508 85.6484 72.508V74.86H85.0564C84.3524 74.86 83.819 75.0253 83.4564 75.356C83.1044 75.6867 82.9284 76.2627 82.9284 77.084V81.5H80.6884V72.636H82.9284V74.012ZM95.7171 76.876C95.7171 77.196 95.6958 77.484 95.6531 77.74H89.1731C89.2265 78.38 89.4505 78.8813 89.8451 79.244C90.2398 79.6067 90.7251 79.788 91.3011 79.788C92.1331 79.788 92.7251 79.4307 93.0771 78.716H95.4931C95.2371 79.5693 94.7465 80.2733 94.0211 80.828C93.2958 81.372 92.4051 81.644 91.3491 81.644C90.4958 81.644 89.7278 81.4573 89.0451 81.084C88.3731 80.7 87.8451 80.1613 87.4611 79.468C87.0878 78.7747 86.9011 77.9747 86.9011 77.068C86.9011 76.1507 87.0878 75.3453 87.4611 74.652C87.8345 73.9587 88.3571 73.4253 89.0291 73.052C89.7011 72.6787 90.4745 72.492 91.3491 72.492C92.1918 72.492 92.9438 72.6733 93.6051 73.036C94.2771 73.3987 94.7945 73.916 95.1571 74.588C95.5305 75.2493 95.7171 76.012 95.7171 76.876ZM93.3971 76.236C93.3865 75.66 93.1785 75.2013 92.7731 74.86C92.3678 74.508 91.8718 74.332 91.2851 74.332C90.7305 74.332 90.2611 74.5027 89.8771 74.844C89.5038 75.1747 89.2745 75.6387 89.1891 76.236H93.3971Z" fill="#7B2CF2" fill-opacity="0.8"/>
</svg>
