<svg width="20" height="20" viewBox="0 0 20 20" fill="none" xmlns="http://www.w3.org/2000/svg">
<g clip-path="url(#clip0_326_882)">
<path d="M17.0833 12.6V7.30245C17.41 7.18412 17.7183 7.00162 17.98 6.73995L19.2833 5.43662C20.2375 4.48245 20.2375 2.93079 19.2833 1.97745L17.98 0.674121C17.025 -0.280879 15.4733 -0.279212 14.5208 0.674121L13.2175 1.97745C12.96 2.23495 12.775 2.54162 12.655 2.87412H7.38667C6.99 1.22995 5.51583 -4.5415e-05 3.75083 -4.5415e-05C1.6825 -0.000878748 0 1.68162 0 3.74912C0 5.37662 1.04833 6.75079 2.5 7.26912V13.3325H2.33417C1.0475 13.3325 0 14.3791 0 15.6658V17.6658C0 18.9525 1.0475 19.9991 2.33417 19.9991H4.33333C5.62 19.9991 6.66667 18.9525 6.66667 17.6658V15.6658C6.66667 14.3791 5.62 13.3325 4.33333 13.3325H4.16667V7.45662C5.7725 7.27579 7.07667 6.09412 7.4125 4.53912H12.6542C12.7742 4.87162 12.9592 5.17829 13.2167 5.43579L14.52 6.73912C14.7817 7.00079 15.0892 7.18329 15.4158 7.30162V12.5991C13.7492 12.98 12.4992 14.4675 12.4992 16.2483C12.4992 18.3158 14.1817 19.9983 16.2492 19.9983C18.3167 19.9983 19.9992 18.3158 19.9992 16.2483C19.9992 14.4675 18.7492 12.98 17.0825 12.5991L17.0833 12.6ZM5 15.6658V17.6658C5 18.0333 4.70167 18.3325 4.33333 18.3325H2.33417C1.96667 18.3325 1.66667 18.0341 1.66667 17.6658V15.6658C1.66667 15.2983 1.96583 14.9991 2.33417 14.9991H4.33333C4.70083 14.9991 5 15.2975 5 15.6658ZM3.75 5.83245C2.60083 5.83245 1.66667 4.89745 1.66667 3.74912C1.66667 2.60079 2.60083 1.66579 3.75 1.66579C4.89917 1.66579 5.83333 2.60079 5.83333 3.74912C5.83333 4.89745 4.89917 5.83245 3.75 5.83245ZM14.395 4.25745C14.2475 4.10995 14.1675 3.91412 14.1675 3.70579C14.1675 3.49745 14.2483 3.30162 14.395 3.15412L15.6983 1.85079C15.8458 1.70329 16.0417 1.62245 16.25 1.62245C16.4583 1.62245 16.6533 1.70329 16.8008 1.85079L18.1042 3.15412C18.2517 3.30162 18.3325 3.49745 18.3325 3.70579C18.3325 3.91412 18.2508 4.10995 18.1042 4.25745L16.8008 5.56079C16.5058 5.85579 15.9917 5.85495 15.6983 5.56079L14.395 4.25745ZM16.25 18.3325C15.1008 18.3325 14.1667 17.3983 14.1667 16.2491C14.1667 15.1 15.1008 14.1658 16.25 14.1658C17.3992 14.1658 18.3333 15.1 18.3333 16.2491C18.3333 17.3983 17.3992 18.3325 16.25 18.3325Z" fill="black" fill-opacity="0.5"/>
</g>
<defs>
<clipPath id="clip0_326_882">
<rect width="20" height="20" fill="white"/>
</clipPath>
</defs>
</svg>
