<svg width="20" height="20" viewBox="0 0 20 20" fill="none" xmlns="http://www.w3.org/2000/svg">
<g clip-path="url(#clip0_326_945)">
<path d="M18.9692 8.52637L14.8442 4.40137L13.6667 5.58303L17.25 9.16637H5.51416V10.833H17.25L13.6667 14.4164L14.845 15.5947L18.97 11.4697C19.1635 11.2762 19.317 11.0465 19.4217 10.7938C19.5265 10.541 19.5804 10.27 19.5804 9.99637C19.5804 9.72273 19.5265 9.45178 19.4217 9.19898C19.317 8.94619 19.1635 8.7165 18.97 8.52303L18.9692 8.52637Z" fill="black" fill-opacity="0.5"/>
<path d="M8.73 17.5C8.73 17.721 8.6422 17.933 8.48592 18.0893C8.32964 18.2455 8.11768 18.3333 7.89667 18.3333H2.5C2.27899 18.3333 2.06702 18.2455 1.91074 18.0893C1.75446 17.933 1.66667 17.721 1.66667 17.5V2.5C1.66667 2.27899 1.75446 2.06702 1.91074 1.91074C2.06702 1.75446 2.27899 1.66667 2.5 1.66667H7.89667C8.11768 1.66667 8.32964 1.75446 8.48592 1.91074C8.6422 2.06702 8.73 2.27899 8.73 2.5V6.94417H10.3967V2.5C10.3967 1.83696 10.1333 1.20107 9.66443 0.732233C9.19559 0.263392 8.55971 0 7.89667 0L2.5 0C1.83696 0 1.20107 0.263392 0.732233 0.732233C0.263392 1.20107 0 1.83696 0 2.5L0 17.5C0 18.163 0.263392 18.7989 0.732233 19.2678C1.20107 19.7366 1.83696 20 2.5 20H7.89667C8.55971 20 9.19559 19.7366 9.66443 19.2678C10.1333 18.7989 10.3967 18.163 10.3967 17.5V13.0558H8.73V17.5Z" fill="black" fill-opacity="0.5"/>
</g>
<defs>
<clipPath id="clip0_326_945">
<rect width="20" height="20" fill="white"/>
</clipPath>
</defs>
</svg>
