<svg width="20" height="20" viewBox="0 0 20 20" fill="none" xmlns="http://www.w3.org/2000/svg">
<g clip-path="url(#clip0_326_1374)">
<path d="M19.1667 18.3333H4.16667C3.50363 18.3333 2.86774 18.0699 2.3989 17.6011C1.93006 17.1323 1.66667 16.4964 1.66667 15.8333V0.833333C1.66667 0.61232 1.57887 0.400358 1.42259 0.244078C1.26631 0.0877974 1.05435 0 0.833333 0C0.61232 0 0.400358 0.0877974 0.244078 0.244078C0.0877974 0.400358 0 0.61232 0 0.833333L0 15.8333C0.00132321 16.938 0.440735 17.997 1.22185 18.7782C2.00296 19.5593 3.062 19.9987 4.16667 20H19.1667C19.3877 20 19.5996 19.9122 19.7559 19.7559C19.9122 19.5996 20 19.3877 20 19.1667C20 18.9457 19.9122 18.7337 19.7559 18.5774C19.5996 18.4211 19.3877 18.3333 19.1667 18.3333Z" fill="black" fill-opacity="0.5"/>
<path d="M4.99984 16.6665C5.22085 16.6665 5.43281 16.5787 5.58909 16.4224C5.74537 16.2661 5.83317 16.0542 5.83317 15.8332V9.99984C5.83317 9.77882 5.74537 9.56686 5.58909 9.41058C5.43281 9.2543 5.22085 9.1665 4.99984 9.1665C4.77882 9.1665 4.56686 9.2543 4.41058 9.41058C4.2543 9.56686 4.1665 9.77882 4.1665 9.99984V15.8332C4.1665 16.0542 4.2543 16.2661 4.41058 16.4224C4.56686 16.5787 4.77882 16.6665 4.99984 16.6665Z" fill="black" fill-opacity="0.5"/>
<path d="M8.3335 8.33333V15.8333C8.3335 16.0543 8.42129 16.2663 8.57757 16.4226C8.73385 16.5789 8.94582 16.6667 9.16683 16.6667C9.38784 16.6667 9.5998 16.5789 9.75608 16.4226C9.91237 16.2663 10.0002 16.0543 10.0002 15.8333V8.33333C10.0002 8.11232 9.91237 7.90036 9.75608 7.74408C9.5998 7.5878 9.38784 7.5 9.16683 7.5C8.94582 7.5 8.73385 7.5878 8.57757 7.74408C8.42129 7.90036 8.3335 8.11232 8.3335 8.33333Z" fill="black" fill-opacity="0.5"/>
<path d="M12.5 10.8333V15.8333C12.5 16.0543 12.5878 16.2663 12.7441 16.4226C12.9004 16.5789 13.1123 16.6667 13.3333 16.6667C13.5543 16.6667 13.7663 16.5789 13.9226 16.4226C14.0789 16.2663 14.1667 16.0543 14.1667 15.8333V10.8333C14.1667 10.6123 14.0789 10.4004 13.9226 10.2441C13.7663 10.0878 13.5543 10 13.3333 10C13.1123 10 12.9004 10.0878 12.7441 10.2441C12.5878 10.4004 12.5 10.6123 12.5 10.8333Z" fill="black" fill-opacity="0.5"/>
<path d="M16.6665 7.49984V15.8332C16.6665 16.0542 16.7543 16.2661 16.9106 16.4224C17.0669 16.5787 17.2788 16.6665 17.4998 16.6665C17.7209 16.6665 17.9328 16.5787 18.0891 16.4224C18.2454 16.2661 18.3332 16.0542 18.3332 15.8332V7.49984C18.3332 7.27882 18.2454 7.06686 18.0891 6.91058C17.9328 6.7543 17.7209 6.6665 17.4998 6.6665C17.2788 6.6665 17.0669 6.7543 16.9106 6.91058C16.7543 7.06686 16.6665 7.27882 16.6665 7.49984Z" fill="black" fill-opacity="0.5"/>
<path d="M5.00015 7.50001C5.22114 7.49997 5.43307 7.41214 5.58931 7.25585L8.57765 4.26751C8.73648 4.1162 8.94744 4.0318 9.16681 4.0318C9.38619 4.0318 9.59715 4.1162 9.75598 4.26751L11.566 6.07751C12.0348 6.54619 12.6706 6.80948 13.3335 6.80948C13.9964 6.80948 14.6322 6.54619 15.101 6.07751L19.756 1.42251C19.9078 1.26535 19.9918 1.05484 19.9899 0.836346C19.988 0.617849 19.9003 0.408838 19.7458 0.254332C19.5913 0.0998249 19.3823 0.0121841 19.1638 0.0102854C18.9453 0.00838673 18.7348 0.0923821 18.5776 0.24418L13.9226 4.89835C13.7664 5.05457 13.5545 5.14234 13.3335 5.14234C13.1125 5.14234 12.9006 5.05457 12.7443 4.89835L10.9343 3.08918C10.4655 2.6205 9.82972 2.35721 9.16681 2.35721C8.5039 2.35721 7.86813 2.6205 7.39931 3.08918L4.41098 6.07751C4.29447 6.19406 4.21513 6.34253 4.183 6.50415C4.15086 6.66578 4.16736 6.83331 4.23042 6.98556C4.29347 7.13781 4.40026 7.26794 4.53727 7.35952C4.67427 7.45109 4.83536 7.49998 5.00015 7.50001Z" fill="black" fill-opacity="0.5"/>
</g>
<defs>
<clipPath id="clip0_326_1374">
<rect width="20" height="20" fill="white"/>
</clipPath>
</defs>
</svg>
