<svg width="38" height="32" viewBox="0 0 38 32" fill="none" xmlns="http://www.w3.org/2000/svg">
<path d="M35.6673 15.9998H2.33398M35.6673 15.9998V25.9998C35.6673 26.8839 35.3161 27.7317 34.691 28.3569C34.0659 28.982 33.218 29.3332 32.334 29.3332H5.66732C4.78326 29.3332 3.93542 28.982 3.31029 28.3569C2.68517 27.7317 2.33398 26.8839 2.33398 25.9998V15.9998M35.6673 15.9998L29.9173 4.5165C29.6414 3.96115 29.2159 3.49379 28.6889 3.16697C28.1619 2.84015 27.5541 2.66683 26.934 2.6665H11.0673C10.4472 2.66683 9.83942 2.84015 9.31239 3.16697C8.78536 3.49379 8.35995 3.96115 8.08398 4.5165L2.33398 15.9998M9.00065 22.6665H9.01732M15.6673 22.6665H15.684" stroke="#CD1DF1" stroke-width="4" stroke-linecap="round" stroke-linejoin="round"/>
</svg>
