<svg width="38" height="28" viewBox="0 0 38 28" fill="none" xmlns="http://www.w3.org/2000/svg">
<path d="M25.7298 6.71667C26.6595 7.6454 27.3971 8.74828 27.9004 9.96226C28.4036 11.1762 28.6626 12.4775 28.6626 13.7917C28.6626 15.1058 28.4036 16.4071 27.9004 17.6211C27.3971 18.8351 26.6595 19.9379 25.7298 20.8667M11.5964 20.85C10.6667 19.9213 9.92909 18.8184 9.42584 17.6044C8.9226 16.3904 8.66357 15.0892 8.66357 13.775C8.66357 12.4608 8.9226 11.1596 9.42584 9.9456C9.92909 8.73162 10.6667 7.62873 11.5964 6.7M30.4464 2C33.571 5.12546 35.3262 9.36393 35.3262 13.7833C35.3262 18.2027 33.571 22.4412 30.4464 25.5667M6.87977 25.5667C3.75526 22.4412 2 18.2027 2 13.7833C2 9.36393 3.75526 5.12546 6.87977 2M21.9964 13.7833C21.9964 15.6243 20.5041 17.1167 18.6631 17.1167C16.8222 17.1167 15.3298 15.6243 15.3298 13.7833C15.3298 11.9424 16.8222 10.45 18.6631 10.45C20.5041 10.45 21.9964 11.9424 21.9964 13.7833Z" stroke="#49CE73" stroke-width="4" stroke-linecap="round" stroke-linejoin="round"/>
</svg>
