<svg width="34" height="38" viewBox="0 0 34 38" fill="none" xmlns="http://www.w3.org/2000/svg">
<path d="M2.45 10.6002L17 19.0168L31.55 10.6002M17 35.8002V19.0002M32 25.6668V12.3335C31.9994 11.749 31.8451 11.1748 31.5526 10.6688C31.26 10.1627 30.8396 9.74243 30.3333 9.45016L18.6667 2.7835C18.1599 2.49093 17.5851 2.33691 17 2.33691C16.4149 2.33691 15.8401 2.49093 15.3333 2.7835L3.66667 9.45016C3.16044 9.74243 2.73997 10.1627 2.44744 10.6688C2.1549 11.1748 2.0006 11.749 2 12.3335V25.6668C2.0006 26.2514 2.1549 26.8255 2.44744 27.3316C2.73997 27.8376 3.16044 28.2579 3.66667 28.5502L15.3333 35.2168C15.8401 35.5094 16.4149 35.6634 17 35.6634C17.5851 35.6634 18.1599 35.5094 18.6667 35.2168L30.3333 28.5502C30.8396 28.2579 31.26 27.8376 31.5526 27.3316C31.8451 26.8255 31.9994 26.2514 32 25.6668Z" stroke="#00A4EF" stroke-width="4" stroke-linecap="round" stroke-linejoin="round"/>
</svg>
