<svg width="17" height="17" viewBox="0 0 17 17" fill="none" xmlns="http://www.w3.org/2000/svg">
<path d="M8.33203 16.5C12.7503 16.5 16.332 13.0338 16.332 8.75805C16.332 4.4823 12.7503 1.01611 8.33203 1.01611C3.91375 1.01611 0.332031 4.4823 0.332031 8.75805C0.332031 13.0338 3.91375 16.5 8.33203 16.5Z" fill="#8A3FFC"/>
<path d="M8.33203 15.9839C12.7503 15.9839 16.332 12.5177 16.332 8.24194C16.332 3.96618 12.7503 0.5 8.33203 0.5C3.91375 0.5 0.332031 3.96618 0.332031 8.24194C0.332031 12.5177 3.91375 15.9839 8.33203 15.9839Z" fill="#8A3FFC"/>
<path d="M8.33203 15.9839C12.7503 15.9839 16.332 12.5177 16.332 8.24194C16.332 3.96618 12.7503 0.5 8.33203 0.5C3.91375 0.5 0.332031 3.96618 0.332031 8.24194C0.332031 12.5177 3.91375 15.9839 8.33203 15.9839Z" fill="#8A3FFC"/>
<path d="M7.00781 7.67432H9.67448V13.8679H7.00781V7.67432Z" fill="white"/>
<path d="M8.34115 6.22908C9.07753 6.22908 9.67448 5.65139 9.67448 4.93876C9.67448 4.22613 9.07753 3.64844 8.34115 3.64844C7.60477 3.64844 7.00781 4.22613 7.00781 4.93876C7.00781 5.65139 7.60477 6.22908 8.34115 6.22908Z" fill="white"/>
</svg>
