<svg width="18" height="18" viewBox="0 0 18 18" fill="none" xmlns="http://www.w3.org/2000/svg">
<path d="M16.5 7.5H10.5V1.5C10.5 1.10218 10.342 0.720645 10.0607 0.43934C9.77936 0.158036 9.39782 0 9 0C8.60218 0 8.22064 0.158036 7.93934 0.43934C7.65804 0.720645 7.5 1.10218 7.5 1.5V7.5H1.5C1.10218 7.5 0.720645 7.65804 0.43934 7.93934C0.158036 8.22064 0 8.60218 0 9C0 9.39782 0.158036 9.77936 0.43934 10.0607C0.720645 10.342 1.10218 10.5 1.5 10.5H7.5V16.5C7.5 16.8978 7.65804 17.2794 7.93934 17.5607C8.22064 17.842 8.60218 18 9 18C9.39782 18 9.77936 17.842 10.0607 17.5607C10.342 17.2794 10.5 16.8978 10.5 16.5V10.5H16.5C16.8978 10.5 17.2794 10.342 17.5607 10.0607C17.842 9.77936 18 9.39782 18 9C18 8.60218 17.842 8.22064 17.5607 7.93934C17.2794 7.65804 16.8978 7.5 16.5 7.5Z" fill="#8A3FFC" fill-opacity="0.8"/>
</svg>
